%TF.GenerationSoftware,KiCad,Pcbnew,10.0.0*%
%TF.CreationDate,2026-08-22T15:59:18+02:00*%
%TF.ProjectId,PCB v2,50434220-7632-42e6-9b69-6361645f7063,rev?*%
%TF.SameCoordinates,Original*%
%TF.FileFunction,Copper,L2,Bot*%
%TF.FilePolarity,Positive*%
%FSLAX46Y46*%
G04 Gerber Fmt 4.6, Leading zero omitted, Abs format (unit mm)*
G04 Created by KiCad (PCBNEW 10.0.0) date 2026-08-22 15:59:18*
%MOMM*%
%LPD*%
G01*
G04 APERTURE LIST*
G04 Aperture macros list*
%AMRoundRect*
0 Rectangle with rounded corners*
0 $1 Rounding radius*
0 $2 $3 $4 $5 $6 $7 $8 $9 X,Y pos of 4 corners*
0 Add a 4 corners polygon primitive as box body*
4,1,4,$2,$3,$4,$5,$6,$7,$8,$9,$2,$3,0*
0 Add four circle primitives for the rounded corners*
1,1,$1+$1,$2,$3*
1,1,$1+$1,$4,$5*
1,1,$1+$1,$6,$7*
1,1,$1+$1,$8,$9*
0 Add four rect primitives between the rounded corners*
20,1,$1+$1,$2,$3,$4,$5,0*
20,1,$1+$1,$4,$5,$6,$7,0*
20,1,$1+$1,$6,$7,$8,$9,0*
20,1,$1+$1,$8,$9,$2,$3,0*%
G04 Aperture macros list end*
%TA.AperFunction,ComponentPad*%
%ADD10C,3.800000*%
%TD*%
%TA.AperFunction,SMDPad,CuDef*%
%ADD11RoundRect,0.200000X-0.275000X0.200000X-0.275000X-0.200000X0.275000X-0.200000X0.275000X0.200000X0*%
%TD*%
%TA.AperFunction,SMDPad,CuDef*%
%ADD12RoundRect,0.075000X-0.910000X-0.225000X0.910000X-0.225000X0.910000X0.225000X-0.910000X0.225000X0*%
%TD*%
%TA.AperFunction,SMDPad,CuDef*%
%ADD13RoundRect,0.200000X0.200000X0.275000X-0.200000X0.275000X-0.200000X-0.275000X0.200000X-0.275000X0*%
%TD*%
%TA.AperFunction,SMDPad,CuDef*%
%ADD14RoundRect,0.200000X-0.200000X-0.275000X0.200000X-0.275000X0.200000X0.275000X-0.200000X0.275000X0*%
%TD*%
%TA.AperFunction,SMDPad,CuDef*%
%ADD15RoundRect,0.200000X0.275000X-0.200000X0.275000X0.200000X-0.275000X0.200000X-0.275000X-0.200000X0*%
%TD*%
%TA.AperFunction,SMDPad,CuDef*%
%ADD16RoundRect,0.150000X0.512500X0.150000X-0.512500X0.150000X-0.512500X-0.150000X0.512500X-0.150000X0*%
%TD*%
%TA.AperFunction,SMDPad,CuDef*%
%ADD17RoundRect,0.225000X0.225000X0.250000X-0.225000X0.250000X-0.225000X-0.250000X0.225000X-0.250000X0*%
%TD*%
%TA.AperFunction,SMDPad,CuDef*%
%ADD18RoundRect,0.225000X-0.250000X0.225000X-0.250000X-0.225000X0.250000X-0.225000X0.250000X0.225000X0*%
%TD*%
%TA.AperFunction,SMDPad,CuDef*%
%ADD19RoundRect,0.075000X0.910000X0.225000X-0.910000X0.225000X-0.910000X-0.225000X0.910000X-0.225000X0*%
%TD*%
%TA.AperFunction,SMDPad,CuDef*%
%ADD20RoundRect,0.225000X-0.225000X-0.250000X0.225000X-0.250000X0.225000X0.250000X-0.225000X0.250000X0*%
%TD*%
%TA.AperFunction,SMDPad,CuDef*%
%ADD21RoundRect,0.225000X0.250000X-0.225000X0.250000X0.225000X-0.250000X0.225000X-0.250000X-0.225000X0*%
%TD*%
%TA.AperFunction,SMDPad,CuDef*%
%ADD22RoundRect,0.250000X-0.475000X0.250000X-0.475000X-0.250000X0.475000X-0.250000X0.475000X0.250000X0*%
%TD*%
%TA.AperFunction,SMDPad,CuDef*%
%ADD23R,2.260600X2.260600*%
%TD*%
%TA.AperFunction,ViaPad*%
%ADD24C,0.600000*%
%TD*%
%TA.AperFunction,Conductor*%
%ADD25C,0.200000*%
%TD*%
%TA.AperFunction,Conductor*%
%ADD26C,0.600000*%
%TD*%
G04 APERTURE END LIST*
D10*
%TO.P,H2,1,1_1*%
%TO.N,GND*%
X172106471Y-77680000D03*
%TD*%
%TO.P,H3,1,1_1*%
%TO.N,GND*%
X123896471Y-112840000D03*
%TD*%
%TO.P,H4,1,1_1*%
%TO.N,GND*%
X172106471Y-112840000D03*
%TD*%
%TO.P,H1,1,1_1*%
%TO.N,GND*%
X123896471Y-77680000D03*
%TD*%
D11*
%TO.P,R32,1*%
%TO.N,S5*%
X143196471Y-99590000D03*
%TO.P,R32,2*%
%TO.N,Net-(U15-OUTPUT)*%
X143196471Y-101240000D03*
%TD*%
D12*
%TO.P,U19,1*%
%TO.N,N/C*%
X126536471Y-109710000D03*
%TO.P,U19,2,-IN_2*%
%TO.N,S7*%
X126536471Y-108440000D03*
%TO.P,U19,3,+IN_3*%
%TO.N,GNDA*%
X126536471Y-107170000D03*
%TO.P,U19,4,V-_4*%
%TO.N,-2V5*%
X126536471Y-105900000D03*
%TO.P,U19,5*%
%TO.N,N/C*%
X131476471Y-105900000D03*
%TO.P,U19,6,OUTPUT_6*%
%TO.N,Net-(U19-OUTPUT)*%
X131476471Y-107170000D03*
%TO.P,U19,7,V+_7*%
%TO.N,+2V5*%
X131476471Y-108440000D03*
%TO.P,U19,8*%
%TO.N,N/C*%
X131476471Y-109710000D03*
%TD*%
D13*
%TO.P,R39,1*%
%TO.N,Net-(U18-+IN)*%
X155786471Y-95750000D03*
%TO.P,R39,2*%
%TO.N,V_sac*%
X154136471Y-95750000D03*
%TD*%
D12*
%TO.P,U15,1*%
%TO.N,N/C*%
X134416471Y-104330000D03*
%TO.P,U15,2,-IN_2*%
%TO.N,S5*%
X134416471Y-103060000D03*
%TO.P,U15,3,+IN_3*%
%TO.N,GNDA*%
X134416471Y-101790000D03*
%TO.P,U15,4,V-_4*%
%TO.N,-2V5*%
X134416471Y-100520000D03*
%TO.P,U15,5*%
%TO.N,N/C*%
X139356471Y-100520000D03*
%TO.P,U15,6,OUTPUT_6*%
%TO.N,Net-(U15-OUTPUT)*%
X139356471Y-101790000D03*
%TO.P,U15,7,V+_7*%
%TO.N,+2V5*%
X139356471Y-103060000D03*
%TO.P,U15,8*%
%TO.N,N/C*%
X139356471Y-104330000D03*
%TD*%
D14*
%TO.P,R37,1*%
%TO.N,S6*%
X138246471Y-111420000D03*
%TO.P,R37,2*%
%TO.N,Net-(U17-OUTPUT)*%
X139896471Y-111420000D03*
%TD*%
D15*
%TO.P,R6,1*%
%TO.N,S_sac*%
X140646471Y-83575000D03*
%TO.P,R6,2*%
%TO.N,V_sac*%
X140646471Y-81925000D03*
%TD*%
D16*
%TO.P,U1,1,SW_1*%
%TO.N,Net-(U1-SW)*%
X129506471Y-88000000D03*
%TO.P,U1,2,GND_2*%
%TO.N,GND*%
X129506471Y-88950000D03*
%TO.P,U1,3,FB_3*%
%TO.N,Net-(U1-FB)*%
X129506471Y-89900000D03*
%TO.P,U1,4,~{SHDN}_4*%
%TO.N,+5V*%
X127231471Y-89900000D03*
%TO.P,U1,5,D_5*%
%TO.N,Net-(U1-D)*%
X127231471Y-88950000D03*
%TO.P,U1,6,V_{IN}_6*%
%TO.N,+5V*%
X127231471Y-88000000D03*
%TD*%
D17*
%TO.P,C14,1*%
%TO.N,S7*%
X129191471Y-111430000D03*
%TO.P,C14,2*%
%TO.N,Net-(U19-OUTPUT)*%
X127641471Y-111430000D03*
%TD*%
D18*
%TO.P,C34,1*%
%TO.N,GNDA*%
X131936471Y-102735000D03*
%TO.P,C34,2*%
%TO.N,-2V5*%
X131936471Y-104285000D03*
%TD*%
D19*
%TO.P,U4,1*%
%TO.N,N/C*%
X138501471Y-81965000D03*
%TO.P,U4,2,-IN_2*%
%TO.N,S_sac*%
X138501471Y-83235000D03*
%TO.P,U4,3,+IN_3*%
%TO.N,GND*%
X138501471Y-84505000D03*
%TO.P,U4,4,V-_4*%
%TO.N,-2V5*%
X138501471Y-85775000D03*
%TO.P,U4,5*%
%TO.N,N/C*%
X133561471Y-85775000D03*
%TO.P,U4,6,OUTPUT_6*%
%TO.N,V_sac*%
X133561471Y-84505000D03*
%TO.P,U4,7,V+_7*%
%TO.N,+2V5*%
X133561471Y-83235000D03*
%TO.P,U4,8*%
%TO.N,N/C*%
X133561471Y-81965000D03*
%TD*%
D13*
%TO.P,R28,1*%
%TO.N,Net-(U14--IN)*%
X142976471Y-94890000D03*
%TO.P,R28,2*%
%TO.N,Net-(U13-OUTPUT)*%
X141326471Y-94890000D03*
%TD*%
D20*
%TO.P,C2,1*%
%TO.N,-5V*%
X127306471Y-91410000D03*
%TO.P,C2,2*%
%TO.N,Net-(U1-FB)*%
X128856471Y-91410000D03*
%TD*%
D18*
%TO.P,C30,1*%
%TO.N,GNDA*%
X132106471Y-98640000D03*
%TO.P,C30,2*%
%TO.N,-2V5*%
X132106471Y-100190000D03*
%TD*%
D15*
%TO.P,R30,1*%
%TO.N,GNDA*%
X144136471Y-84455000D03*
%TO.P,R30,2*%
%TO.N,Net-(U14-+IN)*%
X144136471Y-82805000D03*
%TD*%
D12*
%TO.P,U20,1*%
%TO.N,N/C*%
X151896471Y-110225000D03*
%TO.P,U20,2,-IN_2*%
%TO.N,Net-(U20--IN)*%
X151896471Y-108955000D03*
%TO.P,U20,3,+IN_3*%
%TO.N,Net-(U20-+IN)*%
X151896471Y-107685000D03*
%TO.P,U20,4,V-_4*%
%TO.N,-2V5*%
X151896471Y-106415000D03*
%TO.P,U20,5*%
%TO.N,N/C*%
X156836471Y-106415000D03*
%TO.P,U20,6,OUTPUT_6*%
%TO.N,Vout7*%
X156836471Y-107685000D03*
%TO.P,U20,7,V+_7*%
%TO.N,+2V5*%
X156836471Y-108955000D03*
%TO.P,U20,8*%
%TO.N,N/C*%
X156836471Y-110225000D03*
%TD*%
D17*
%TO.P,C38,1*%
%TO.N,GNDA*%
X127951471Y-104190000D03*
%TO.P,C38,2*%
%TO.N,-2V5*%
X126401471Y-104190000D03*
%TD*%
D13*
%TO.P,R45,1*%
%TO.N,GNDA*%
X160526471Y-112240000D03*
%TO.P,R45,2*%
%TO.N,Net-(U20-+IN)*%
X158876471Y-112240000D03*
%TD*%
D20*
%TO.P,C32,1*%
%TO.N,GNDA*%
X153131471Y-87130000D03*
%TO.P,C32,2*%
%TO.N,-2V5*%
X154681471Y-87130000D03*
%TD*%
D13*
%TO.P,R29,1*%
%TO.N,Net-(U14-+IN)*%
X145381471Y-79480000D03*
%TO.P,R29,2*%
%TO.N,V_sac*%
X143731471Y-79480000D03*
%TD*%
D11*
%TO.P,R40,1*%
%TO.N,GNDA*%
X157456471Y-94180000D03*
%TO.P,R40,2*%
%TO.N,Net-(U18-+IN)*%
X157456471Y-95830000D03*
%TD*%
D18*
%TO.P,C12,1*%
%TO.N,S5*%
X141606471Y-99595000D03*
%TO.P,C12,2*%
%TO.N,Net-(U15-OUTPUT)*%
X141606471Y-101145000D03*
%TD*%
D20*
%TO.P,C26,1*%
%TO.N,GNDA*%
X130766471Y-96160000D03*
%TO.P,C26,2*%
%TO.N,-2V5*%
X132316471Y-96160000D03*
%TD*%
D13*
%TO.P,R34,1*%
%TO.N,Net-(U16-+IN)*%
X151641471Y-94250000D03*
%TO.P,R34,2*%
%TO.N,V_sac*%
X149991471Y-94250000D03*
%TD*%
D18*
%TO.P,C27,1*%
%TO.N,GNDA*%
X141486471Y-96470000D03*
%TO.P,C27,2*%
%TO.N,+2V5*%
X141486471Y-98020000D03*
%TD*%
D17*
%TO.P,C40,1*%
%TO.N,GNDA*%
X153706471Y-104780000D03*
%TO.P,C40,2*%
%TO.N,-2V5*%
X152156471Y-104780000D03*
%TD*%
D21*
%TO.P,C29,1*%
%TO.N,GNDA*%
X153336471Y-85415000D03*
%TO.P,C29,2*%
%TO.N,+2V5*%
X153336471Y-83865000D03*
%TD*%
%TO.P,C41,1*%
%TO.N,GNDA*%
X158986471Y-110660000D03*
%TO.P,C41,2*%
%TO.N,+2V5*%
X158986471Y-109110000D03*
%TD*%
D11*
%TO.P,R33,1*%
%TO.N,Net-(U16--IN)*%
X144846471Y-99560000D03*
%TO.P,R33,2*%
%TO.N,Net-(U15-OUTPUT)*%
X144846471Y-101210000D03*
%TD*%
D20*
%TO.P,C11,1*%
%TO.N,S4*%
X140496471Y-91780000D03*
%TO.P,C11,2*%
%TO.N,Net-(U13-OUTPUT)*%
X142046471Y-91780000D03*
%TD*%
D13*
%TO.P,R41,1*%
%TO.N,Vout6*%
X153606471Y-103080000D03*
%TO.P,R41,2*%
%TO.N,Net-(U18--IN)*%
X151956471Y-103080000D03*
%TD*%
%TO.P,R36,1*%
%TO.N,Vout5*%
X151636471Y-92490000D03*
%TO.P,R36,2*%
%TO.N,Net-(U16--IN)*%
X149986471Y-92490000D03*
%TD*%
D12*
%TO.P,U18,1*%
%TO.N,N/C*%
X151796471Y-101395000D03*
%TO.P,U18,2,-IN_2*%
%TO.N,Net-(U18--IN)*%
X151796471Y-100125000D03*
%TO.P,U18,3,+IN_3*%
%TO.N,Net-(U18-+IN)*%
X151796471Y-98855000D03*
%TO.P,U18,4,V-_4*%
%TO.N,-2V5*%
X151796471Y-97585000D03*
%TO.P,U18,5*%
%TO.N,N/C*%
X156736471Y-97585000D03*
%TO.P,U18,6,OUTPUT_6*%
%TO.N,Vout6*%
X156736471Y-98855000D03*
%TO.P,U18,7,V+_7*%
%TO.N,+2V5*%
X156736471Y-100125000D03*
%TO.P,U18,8*%
%TO.N,N/C*%
X156736471Y-101395000D03*
%TD*%
D14*
%TO.P,R42,1*%
%TO.N,S7*%
X130731471Y-111460000D03*
%TO.P,R42,2*%
%TO.N,Net-(U19-OUTPUT)*%
X132381471Y-111460000D03*
%TD*%
D18*
%TO.P,C39,1*%
%TO.N,GNDA*%
X129586471Y-102300000D03*
%TO.P,C39,2*%
%TO.N,+2V5*%
X129586471Y-103850000D03*
%TD*%
D14*
%TO.P,R27,1*%
%TO.N,S4*%
X140476471Y-93320000D03*
%TO.P,R27,2*%
%TO.N,Net-(U13-OUTPUT)*%
X142126471Y-93320000D03*
%TD*%
D12*
%TO.P,U17,1*%
%TO.N,N/C*%
X134406471Y-109810000D03*
%TO.P,U17,2,-IN_2*%
%TO.N,S6*%
X134406471Y-108540000D03*
%TO.P,U17,3,+IN_3*%
%TO.N,GNDA*%
X134406471Y-107270000D03*
%TO.P,U17,4,V-_4*%
%TO.N,-2V5*%
X134406471Y-106000000D03*
%TO.P,U17,5*%
%TO.N,N/C*%
X139346471Y-106000000D03*
%TO.P,U17,6,OUTPUT_6*%
%TO.N,Net-(U17-OUTPUT)*%
X139346471Y-107270000D03*
%TO.P,U17,7,V+_7*%
%TO.N,+2V5*%
X139346471Y-108540000D03*
%TO.P,U17,8*%
%TO.N,N/C*%
X139346471Y-109810000D03*
%TD*%
D14*
%TO.P,R3,1*%
%TO.N,-5V*%
X127226471Y-93060000D03*
%TO.P,R3,2*%
%TO.N,Net-(U1-FB)*%
X128876471Y-93060000D03*
%TD*%
D21*
%TO.P,C35,1*%
%TO.N,GNDA*%
X141466471Y-110160000D03*
%TO.P,C35,2*%
%TO.N,+2V5*%
X141466471Y-108610000D03*
%TD*%
D22*
%TO.P,C1,1*%
%TO.N,+5V*%
X131746471Y-88020000D03*
%TO.P,C1,2*%
%TO.N,GND*%
X131746471Y-89920000D03*
%TD*%
D21*
%TO.P,C33,1*%
%TO.N,GNDA*%
X153316471Y-91270000D03*
%TO.P,C33,2*%
%TO.N,+2V5*%
X153316471Y-89720000D03*
%TD*%
D13*
%TO.P,R46,1*%
%TO.N,Vout7*%
X157076471Y-104780000D03*
%TO.P,R46,2*%
%TO.N,Net-(U20--IN)*%
X155426471Y-104780000D03*
%TD*%
%TO.P,R31,1*%
%TO.N,Vout4*%
X148561471Y-79550000D03*
%TO.P,R31,2*%
%TO.N,Net-(U14--IN)*%
X146911471Y-79550000D03*
%TD*%
D17*
%TO.P,C6,1*%
%TO.N,S_sac*%
X135356471Y-80360000D03*
%TO.P,C6,2*%
%TO.N,V_sac*%
X133806471Y-80360000D03*
%TD*%
D12*
%TO.P,U16,1*%
%TO.N,N/C*%
X146116471Y-90885000D03*
%TO.P,U16,2,-IN_2*%
%TO.N,Net-(U16--IN)*%
X146116471Y-89615000D03*
%TO.P,U16,3,+IN_3*%
%TO.N,Net-(U16-+IN)*%
X146116471Y-88345000D03*
%TO.P,U16,4,V-_4*%
%TO.N,-2V5*%
X146116471Y-87075000D03*
%TO.P,U16,5*%
%TO.N,N/C*%
X151056471Y-87075000D03*
%TO.P,U16,6,OUTPUT_6*%
%TO.N,Vout5*%
X151056471Y-88345000D03*
%TO.P,U16,7,V+_7*%
%TO.N,+2V5*%
X151056471Y-89615000D03*
%TO.P,U16,8*%
%TO.N,N/C*%
X151056471Y-90885000D03*
%TD*%
D17*
%TO.P,C28,1*%
%TO.N,GNDA*%
X151811471Y-79630000D03*
%TO.P,C28,2*%
%TO.N,-2V5*%
X150261471Y-79630000D03*
%TD*%
D21*
%TO.P,C31,1*%
%TO.N,GNDA*%
X141486471Y-104420000D03*
%TO.P,C31,2*%
%TO.N,+2V5*%
X141486471Y-102870000D03*
%TD*%
D13*
%TO.P,R44,1*%
%TO.N,Net-(U20-+IN)*%
X157255000Y-112350000D03*
%TO.P,R44,2*%
%TO.N,V_sac*%
X155605000Y-112350000D03*
%TD*%
D20*
%TO.P,C44,1*%
%TO.N,GND*%
X135651471Y-87550000D03*
%TO.P,C44,2*%
%TO.N,+2V5*%
X137201471Y-87550000D03*
%TD*%
D12*
%TO.P,U13,1*%
%TO.N,N/C*%
X134416471Y-98780000D03*
%TO.P,U13,2,-IN_2*%
%TO.N,S4*%
X134416471Y-97510000D03*
%TO.P,U13,3,+IN_3*%
%TO.N,GNDA*%
X134416471Y-96240000D03*
%TO.P,U13,4,V-_4*%
%TO.N,-2V5*%
X134416471Y-94970000D03*
%TO.P,U13,5*%
%TO.N,N/C*%
X139356471Y-94970000D03*
%TO.P,U13,6,OUTPUT_6*%
%TO.N,Net-(U13-OUTPUT)*%
X139356471Y-96240000D03*
%TO.P,U13,7,V+_7*%
%TO.N,+2V5*%
X139356471Y-97510000D03*
%TO.P,U13,8*%
%TO.N,N/C*%
X139356471Y-98780000D03*
%TD*%
D22*
%TO.P,C3,1*%
%TO.N,-5V*%
X124606471Y-87950000D03*
%TO.P,C3,2*%
%TO.N,GND*%
X124606471Y-89850000D03*
%TD*%
D18*
%TO.P,C36,1*%
%TO.N,GNDA*%
X149416471Y-96320000D03*
%TO.P,C36,2*%
%TO.N,-2V5*%
X149416471Y-97870000D03*
%TD*%
D13*
%TO.P,R43,1*%
%TO.N,Net-(U20--IN)*%
X143121471Y-111810000D03*
%TO.P,R43,2*%
%TO.N,Net-(U19-OUTPUT)*%
X141471471Y-111810000D03*
%TD*%
D18*
%TO.P,C43,1*%
%TO.N,GND*%
X140666471Y-85070000D03*
%TO.P,C43,2*%
%TO.N,-2V5*%
X140666471Y-86620000D03*
%TD*%
D13*
%TO.P,R38,1*%
%TO.N,Net-(U18--IN)*%
X143036471Y-107180000D03*
%TO.P,R38,2*%
%TO.N,Net-(U17-OUTPUT)*%
X141386471Y-107180000D03*
%TD*%
D23*
%TO.P,L1,1*%
%TO.N,Net-(U1-SW)*%
X129804871Y-81791600D03*
%TO.P,L1,2*%
%TO.N,+5V*%
X129804871Y-85500000D03*
%TO.P,L1,3*%
%TO.N,Net-(U1-D)*%
X126096471Y-85500000D03*
%TO.P,L1,4*%
%TO.N,-5V*%
X126096471Y-81791600D03*
%TD*%
D20*
%TO.P,C37,1*%
%TO.N,GNDA*%
X155961471Y-103080000D03*
%TO.P,C37,2*%
%TO.N,+2V5*%
X157511471Y-103080000D03*
%TD*%
D12*
%TO.P,U14,1*%
%TO.N,N/C*%
X146256471Y-85185000D03*
%TO.P,U14,2,-IN_2*%
%TO.N,Net-(U14--IN)*%
X146256471Y-83915000D03*
%TO.P,U14,3,+IN_3*%
%TO.N,Net-(U14-+IN)*%
X146256471Y-82645000D03*
%TO.P,U14,4,V-_4*%
%TO.N,-2V5*%
X146256471Y-81375000D03*
%TO.P,U14,5*%
%TO.N,N/C*%
X151196471Y-81375000D03*
%TO.P,U14,6,OUTPUT_6*%
%TO.N,Vout4*%
X151196471Y-82645000D03*
%TO.P,U14,7,V+_7*%
%TO.N,+2V5*%
X151196471Y-83915000D03*
%TO.P,U14,8*%
%TO.N,N/C*%
X151196471Y-85185000D03*
%TD*%
D17*
%TO.P,C13,1*%
%TO.N,S6*%
X136751471Y-111460000D03*
%TO.P,C13,2*%
%TO.N,Net-(U17-OUTPUT)*%
X135201471Y-111460000D03*
%TD*%
D13*
%TO.P,R35,1*%
%TO.N,GNDA*%
X154816471Y-93500000D03*
%TO.P,R35,2*%
%TO.N,Net-(U16-+IN)*%
X153166471Y-93500000D03*
%TD*%
D24*
%TO.N,GND*%
X169276471Y-112790000D03*
X159436977Y-87590766D03*
X125116470Y-102422159D03*
X130270000Y-83480000D03*
X124866471Y-91870000D03*
X132546471Y-86707755D03*
X132705101Y-90420000D03*
X165440000Y-91280000D03*
X166984485Y-95644485D03*
X124680000Y-96660000D03*
X126876471Y-77000000D03*
X163140000Y-100190000D03*
X165406471Y-82800000D03*
X164868971Y-88208971D03*
X136650000Y-82740000D03*
X128296471Y-94760000D03*
X130382569Y-92750000D03*
%TO.N,Net-(U12--IN)*%
X143460000Y-113295000D03*
X147066471Y-109390000D03*
%TO.N,-2V5*%
X128241471Y-106275000D03*
X136446471Y-92690000D03*
X139926471Y-87960000D03*
X144296471Y-87150000D03*
X136446471Y-97740000D03*
X140606471Y-89960000D03*
X153516471Y-97630000D03*
X141741471Y-80635000D03*
X136446471Y-103310000D03*
X142606471Y-85350000D03*
X147571471Y-95464998D03*
X144636471Y-81375000D03*
X154706471Y-85880000D03*
X137157079Y-80200000D03*
X154151471Y-105805000D03*
%TO.N,+2V5*%
X123000000Y-85070000D03*
X127530000Y-102680000D03*
X137861471Y-106710000D03*
X127338236Y-79700000D03*
X148776471Y-101020000D03*
X123866471Y-104370000D03*
X123000000Y-93490000D03*
X148576471Y-107920000D03*
X148766471Y-94890000D03*
X137861471Y-93760000D03*
X137861471Y-96750000D03*
X154966471Y-100700000D03*
X135906471Y-86420000D03*
X143836471Y-90530000D03*
X138516471Y-89693460D03*
X148026471Y-91950000D03*
X137861471Y-101020000D03*
X149229097Y-88772625D03*
%TO.N,GNDA*%
X128666471Y-96530000D03*
X146210000Y-98290000D03*
X136950000Y-91660000D03*
X156566471Y-87960000D03*
X139730000Y-114160000D03*
X157400000Y-91880000D03*
X129320000Y-99220000D03*
X162790000Y-95830000D03*
X147816471Y-84190000D03*
X153636471Y-80860000D03*
X160583258Y-80655255D03*
X156997500Y-90657500D03*
X138780000Y-92560000D03*
X131190000Y-101902598D03*
X142178235Y-106471765D03*
X123826471Y-94580000D03*
X154590000Y-90160000D03*
X137585001Y-110145001D03*
X154798235Y-103688235D03*
X130820000Y-98420000D03*
X142165392Y-113075392D03*
X144350000Y-85360000D03*
X152296470Y-96525000D03*
X158578235Y-93058235D03*
X122650000Y-106150000D03*
X154560000Y-88320000D03*
X131790000Y-113370000D03*
X129840000Y-100630000D03*
X163560556Y-92395915D03*
X163786471Y-85350000D03*
X130480000Y-103190000D03*
X137376471Y-108656471D03*
X154951471Y-108735000D03*
%TO.N,BUSY*%
X166976471Y-86950000D03*
X161246471Y-95280000D03*
%TO.N,S3*%
X136096471Y-107340000D03*
X136658346Y-109374597D03*
%TO.N,V_sac*%
X140336471Y-80850000D03*
X141806471Y-82480000D03*
X147756471Y-112310000D03*
X142430000Y-88810000D03*
X147345911Y-103220560D03*
X142235736Y-79430735D03*
X152915295Y-113728824D03*
%TO.N,-5V*%
X125076471Y-94020000D03*
X124276471Y-82950000D03*
X127206471Y-94260000D03*
%TO.N,+5V*%
X130356471Y-94620000D03*
X134006471Y-90590000D03*
X162786471Y-83600000D03*
X126866471Y-87210000D03*
X159466471Y-86730000D03*
%TO.N,S1*%
X139421435Y-90620355D03*
X137706471Y-91320000D03*
%TO.N,S4*%
X137103621Y-93503745D03*
X127606471Y-98530000D03*
X136226471Y-96470000D03*
%TO.N,S5*%
X136186471Y-100950000D03*
X138896471Y-99670000D03*
X128294282Y-99035656D03*
%TO.N,S6*%
X128200699Y-99830166D03*
%TO.N,S7*%
X128069942Y-100619410D03*
%TO.N,Net-(U10--IN)*%
X144086216Y-98587523D03*
X147106471Y-100250000D03*
%TO.N,Net-(C45-Pad1)*%
X157911876Y-82504595D03*
X158775406Y-81671065D03*
%TO.N,Vout1*%
X154166471Y-92552334D03*
X157056471Y-89750000D03*
%TO.N,Vdrive*%
X162056471Y-80260000D03*
X166226471Y-85540000D03*
%TO.N,SPI_SCK*%
X170796471Y-92860000D03*
X172176471Y-92710000D03*
%TO.N,SPI_MISO*%
X162366471Y-105940000D03*
X167756471Y-85020000D03*
%TO.N,Vout4*%
X155114633Y-85191956D03*
%TO.N,Vout5*%
X161816471Y-90660000D03*
%TO.N,Vout6*%
X160326471Y-93520000D03*
%TO.N,Vout7*%
X159546471Y-102480000D03*
%TO.N,S_sac*%
X123608236Y-107371764D03*
%TO.N,Net-(U19-OUTPUT)*%
X129580341Y-109212988D03*
X129956471Y-107200000D03*
%TO.N,Net-(U14--IN)*%
X147886471Y-80560000D03*
X147688182Y-82175000D03*
X144239705Y-92885000D03*
%TO.N,Net-(U16--IN)*%
X147740000Y-98740000D03*
X152896470Y-94472464D03*
%TD*%
%TO.N,GND*%
D25*
X131746471Y-89920000D02*
X130776471Y-88950000D01*
X130270000Y-83480000D02*
X128621285Y-83480000D01*
X137516472Y-84505000D02*
X136650000Y-83638528D01*
X163140000Y-100190000D02*
X166984485Y-96345515D01*
X164880000Y-87590766D02*
X165024234Y-87590766D01*
X124680000Y-101985689D02*
X124680000Y-96660000D01*
X165024234Y-87590766D02*
X166826471Y-85788529D01*
X138501471Y-84505000D02*
X137516472Y-84505000D01*
X124606471Y-89850000D02*
X124606471Y-91610000D01*
X128193971Y-90848804D02*
X128193971Y-89600001D01*
X130116515Y-86930300D02*
X130721471Y-87535256D01*
X124606471Y-91610000D02*
X124866471Y-91870000D01*
X128296471Y-94760000D02*
X128296471Y-94630000D01*
X135651471Y-87550000D02*
X134809226Y-86707755D01*
X140101471Y-84505000D02*
X140666471Y-85070000D01*
X166984485Y-96345515D02*
X166984485Y-95644485D01*
X132246471Y-90420000D02*
X131746471Y-89920000D01*
X128193971Y-89600001D02*
X128843972Y-88950000D01*
X138501471Y-84505000D02*
X140101471Y-84505000D01*
X134809226Y-86707755D02*
X132546471Y-86707755D01*
X130721471Y-87535256D02*
X130721471Y-88895000D01*
X128086471Y-90956304D02*
X128193971Y-90848804D01*
X136650000Y-83638528D02*
X136650000Y-82740000D01*
X130382569Y-92750000D02*
X132705101Y-90427468D01*
X130776471Y-88950000D02*
X129506471Y-88950000D01*
X128843972Y-88950000D02*
X129506471Y-88950000D01*
X132705101Y-90427468D02*
X132705101Y-90420000D01*
X128621285Y-83480000D02*
X128374571Y-83726714D01*
X128374571Y-86930300D02*
X130116515Y-86930300D01*
X128374571Y-83726714D02*
X128374571Y-86930300D01*
X164880000Y-88197942D02*
X164868971Y-88208971D01*
X164880000Y-87590766D02*
X164880000Y-88197942D01*
X159436977Y-87590766D02*
X164880000Y-87590766D01*
X132705101Y-90420000D02*
X132246471Y-90420000D01*
X125116470Y-102422159D02*
X124680000Y-101985689D01*
X128086471Y-94420000D02*
X128086471Y-90956304D01*
X130721471Y-88895000D02*
X130776471Y-88950000D01*
X128296471Y-94630000D02*
X128086471Y-94420000D01*
X166826471Y-85788529D02*
X166826471Y-84220000D01*
X166826471Y-84220000D02*
X165406471Y-82800000D01*
%TO.N,Net-(U12--IN)*%
X143460000Y-113295000D02*
X143460000Y-112659119D01*
X143460000Y-112659119D02*
X146729119Y-109390000D01*
X146729119Y-109390000D02*
X147066471Y-109390000D01*
%TO.N,-2V5*%
D26*
X137026471Y-95190000D02*
X137026471Y-97160000D01*
X139821471Y-85775000D02*
X138501471Y-85775000D01*
X145121471Y-92085000D02*
X144191472Y-92085000D01*
X141106471Y-90460000D02*
X140606471Y-89960000D01*
X142606471Y-85700000D02*
X141686471Y-86620000D01*
X137157079Y-80149392D02*
X137306471Y-80000000D01*
X136446471Y-94610000D02*
X136086471Y-94970000D01*
X151896471Y-106415000D02*
X151896471Y-105040000D01*
X138384931Y-88375000D02*
X139448011Y-88375000D01*
X136446471Y-99474999D02*
X136986471Y-100014999D01*
X147571471Y-95464998D02*
X147426492Y-95464998D01*
X135401470Y-100520000D02*
X134416471Y-100520000D01*
X132316471Y-95321370D02*
X132316471Y-96160000D01*
X136446471Y-104944999D02*
X135391470Y-106000000D01*
X153471471Y-97585000D02*
X153516471Y-97630000D01*
X136446471Y-97740000D02*
X136446471Y-99474999D01*
X144371471Y-87075000D02*
X144296471Y-87150000D01*
X136986471Y-100014999D02*
X136986471Y-102770000D01*
X136446471Y-103310000D02*
X136446471Y-104944999D01*
X137157079Y-80200000D02*
X137157079Y-80149392D01*
X136096471Y-90660000D02*
X136096471Y-92340000D01*
X127866471Y-105900000D02*
X126536471Y-105900000D01*
X146826471Y-94647056D02*
X146826471Y-93790000D01*
X136086471Y-94970000D02*
X134416471Y-94970000D01*
X132667842Y-94970000D02*
X132316471Y-95321370D01*
X138383201Y-88373270D02*
X138384931Y-88375000D01*
X154681471Y-87130000D02*
X154681471Y-85905000D01*
X150261471Y-79630000D02*
X148516471Y-81375000D01*
X136446471Y-99474999D02*
X135401470Y-100520000D01*
X137026471Y-97160000D02*
X136446471Y-97740000D01*
X131936471Y-104285000D02*
X132421219Y-104285000D01*
X136096471Y-92340000D02*
X136446471Y-92690000D01*
X140666471Y-86620000D02*
X139821471Y-85775000D01*
X134136219Y-106000000D02*
X134406471Y-106000000D01*
X134416471Y-94970000D02*
X132667842Y-94970000D01*
X126401471Y-104190000D02*
X126401471Y-105765000D01*
X146826471Y-93790000D02*
X145121471Y-92085000D01*
X151896471Y-105040000D02*
X152156471Y-104780000D01*
X141686471Y-86620000D02*
X140666471Y-86620000D01*
X139866471Y-87956540D02*
X139866471Y-87892224D01*
X154681471Y-85905000D02*
X154706471Y-85880000D01*
X149701471Y-97585000D02*
X149416471Y-97870000D01*
X151796471Y-97585000D02*
X149701471Y-97585000D01*
X128241471Y-106275000D02*
X127866471Y-105900000D01*
X135436471Y-93600000D02*
X136446471Y-94610000D01*
X139448011Y-88375000D02*
X139866471Y-87956540D01*
X135391470Y-106000000D02*
X134406471Y-106000000D01*
X147426492Y-95464998D02*
X147384954Y-95423460D01*
X147384954Y-95205539D02*
X146826471Y-94647056D01*
X142606471Y-81500000D02*
X142606471Y-85350000D01*
X141116471Y-80010000D02*
X141741471Y-80635000D01*
X144191472Y-92085000D02*
X143836471Y-91729999D01*
X142635101Y-90460000D02*
X141106471Y-90460000D01*
X143836471Y-91729999D02*
X143836471Y-91330000D01*
X126401471Y-105765000D02*
X126536471Y-105900000D01*
D25*
X140666471Y-86620000D02*
X140356471Y-86620000D01*
D26*
X136096471Y-90660000D02*
X138383201Y-88373270D01*
X136986471Y-102770000D02*
X136446471Y-103310000D01*
X143836471Y-91330000D02*
X143505101Y-91330000D01*
X139926471Y-87952224D02*
X139926471Y-87960000D01*
X132106471Y-100190000D02*
X134086471Y-100190000D01*
X139866471Y-87892224D02*
X139926471Y-87952224D01*
X134086471Y-100190000D02*
X134416471Y-100520000D01*
X142606471Y-85350000D02*
X142606471Y-85700000D01*
X139376471Y-80000000D02*
X139386471Y-80010000D01*
X136446471Y-94610000D02*
X137026471Y-95190000D01*
X141741471Y-80635000D02*
X142606471Y-81500000D01*
X151796471Y-97585000D02*
X153471471Y-97585000D01*
X137306471Y-80000000D02*
X139376471Y-80000000D01*
X144636471Y-81375000D02*
X146256471Y-81375000D01*
X132421219Y-104285000D02*
X134136219Y-106000000D01*
X154151471Y-105805000D02*
X153541471Y-106415000D01*
X136096471Y-90660000D02*
X135436471Y-91320000D01*
X139386471Y-80010000D02*
X141116471Y-80010000D01*
X146116471Y-87075000D02*
X144371471Y-87075000D01*
X135436471Y-91320000D02*
X135436471Y-93600000D01*
X148516471Y-81375000D02*
X146256471Y-81375000D01*
X143505101Y-91330000D02*
X142635101Y-90460000D01*
X153541471Y-106415000D02*
X151896471Y-106415000D01*
X147384954Y-95423460D02*
X147384954Y-95205539D01*
%TO.N,+2V5*%
X136386471Y-86420000D02*
X135906471Y-86420000D01*
X137861471Y-107735252D02*
X138666219Y-108540000D01*
X138186471Y-97510000D02*
X139356471Y-97510000D01*
X139884382Y-89070000D02*
X139779381Y-89175000D01*
D25*
X123000000Y-85070000D02*
X123000000Y-81512157D01*
D26*
X137861471Y-93760000D02*
X137861471Y-96750000D01*
X151196471Y-83915000D02*
X149476723Y-83915000D01*
X153336471Y-83865000D02*
X151246471Y-83865000D01*
D25*
X126676936Y-80361300D02*
X127338236Y-79700000D01*
D26*
X149036471Y-101280000D02*
X148776471Y-101020000D01*
X138666219Y-108540000D02*
X139346471Y-108540000D01*
X147116723Y-86275000D02*
X143781471Y-86275000D01*
X153316471Y-89720000D02*
X151161471Y-89720000D01*
X149229097Y-84162626D02*
X147116723Y-86275000D01*
X137861471Y-102549999D02*
X137861471Y-106710000D01*
X158721471Y-107750252D02*
X158721471Y-103265000D01*
X148576471Y-107920000D02*
X149036471Y-107460000D01*
X139346471Y-108540000D02*
X141396471Y-108540000D01*
X158831471Y-108955000D02*
X158986471Y-109110000D01*
X142098629Y-89610000D02*
X141630000Y-89141371D01*
X138371472Y-103060000D02*
X139356471Y-103060000D01*
X135046471Y-83735001D02*
X134546470Y-83235000D01*
X129126471Y-104310000D02*
X129126471Y-107780000D01*
X137201471Y-87235000D02*
X136386471Y-86420000D01*
X141396471Y-108540000D02*
X141466471Y-108610000D01*
X158536471Y-103080000D02*
X157511471Y-103080000D01*
X129126471Y-107780000D02*
X129786471Y-108440000D01*
D25*
X123000000Y-81512157D02*
X124150857Y-80361300D01*
D26*
X158746471Y-102870000D02*
X158536471Y-103080000D01*
X158746471Y-101454748D02*
X158746471Y-102870000D01*
X141486471Y-102870000D02*
X139546471Y-102870000D01*
X149476723Y-83915000D02*
X149229097Y-84162626D01*
X137861471Y-97185000D02*
X138186471Y-97510000D01*
X140986471Y-89070000D02*
X139884382Y-89070000D01*
X155541471Y-100125000D02*
X154966471Y-100700000D01*
X137861471Y-102549999D02*
X138371472Y-103060000D01*
X158721471Y-103265000D02*
X158536471Y-103080000D01*
D25*
X124150857Y-80361300D02*
X126676936Y-80361300D01*
D26*
X156836471Y-108955000D02*
X157516723Y-108955000D01*
X122980000Y-103483529D02*
X123866471Y-104370000D01*
X135906471Y-85940000D02*
X135046471Y-85080000D01*
X122866471Y-96480002D02*
X122980000Y-96593531D01*
X139546471Y-102870000D02*
X139356471Y-103060000D01*
X156836471Y-108955000D02*
X158831471Y-108955000D01*
X135046471Y-85080000D02*
X135046471Y-83735001D01*
X129586471Y-103850000D02*
X129126471Y-104310000D01*
X137861471Y-97185000D02*
X137861471Y-102549999D01*
X137201471Y-87550000D02*
X137201471Y-87235000D01*
X156736471Y-100125000D02*
X155541471Y-100125000D01*
X157516723Y-108955000D02*
X158721471Y-107750252D01*
X141630000Y-89141371D02*
X141630000Y-89070000D01*
X122866471Y-93623529D02*
X123000000Y-93490000D01*
X129586471Y-103850000D02*
X128416471Y-102680000D01*
X139779381Y-89175000D02*
X139034931Y-89175000D01*
X149036471Y-107460000D02*
X149036471Y-101280000D01*
X150071472Y-89615000D02*
X149836472Y-89380000D01*
X157416723Y-100125000D02*
X156736471Y-100125000D01*
X143781471Y-86275000D02*
X140986471Y-89070000D01*
X148026471Y-91950000D02*
X148026471Y-94150000D01*
X140976471Y-97510000D02*
X139356471Y-97510000D01*
X129786471Y-108440000D02*
X131476471Y-108440000D01*
X142916471Y-89610000D02*
X142098629Y-89610000D01*
X122866471Y-96480002D02*
X122866471Y-93623529D01*
X151161471Y-89720000D02*
X151056471Y-89615000D01*
X137861471Y-96750000D02*
X137861471Y-97185000D01*
X134546470Y-83235000D02*
X133561471Y-83235000D01*
X149836472Y-89380000D02*
X149229097Y-88772625D01*
X122980000Y-96593531D02*
X122980000Y-103483529D01*
X151056471Y-89615000D02*
X150071472Y-89615000D01*
X141486471Y-98020000D02*
X140976471Y-97510000D01*
X135906471Y-86420000D02*
X135906471Y-85940000D01*
X157416723Y-100125000D02*
X158746471Y-101454748D01*
X143836471Y-90530000D02*
X142916471Y-89610000D01*
X137861471Y-106710000D02*
X137861471Y-107735252D01*
X148026471Y-94150000D02*
X148766471Y-94890000D01*
X149229097Y-88772625D02*
X149229097Y-84162626D01*
X128416471Y-102680000D02*
X127530000Y-102680000D01*
X141630000Y-89070000D02*
X140986471Y-89070000D01*
X151246471Y-83865000D02*
X151196471Y-83915000D01*
X139034931Y-89175000D02*
X138516471Y-89693460D01*
%TO.N,GNDA*%
D25*
X156797237Y-88190766D02*
X156566471Y-87960000D01*
X156997500Y-91477500D02*
X157400000Y-91880000D01*
X123650000Y-105735785D02*
X123420000Y-105505785D01*
X158986471Y-110660000D02*
X160526471Y-112200000D01*
X132581472Y-100940000D02*
X131564215Y-100940000D01*
X139730000Y-114160000D02*
X139730000Y-113810000D01*
X123710000Y-106625000D02*
X123710000Y-105977843D01*
X123420000Y-105047843D02*
X123497843Y-104970000D01*
X153480000Y-91270000D02*
X154590000Y-90160000D01*
X133431472Y-101790000D02*
X132581472Y-100940000D01*
X156206471Y-88320000D02*
X156566471Y-87960000D01*
X122876471Y-106376471D02*
X122876471Y-107488529D01*
X157456471Y-94180000D02*
X158578235Y-93058235D01*
X129366471Y-102080000D02*
X127281471Y-102080000D01*
X124860000Y-106478528D02*
X124860000Y-105356370D01*
X124516471Y-107431471D02*
X123710000Y-106625000D01*
X124115000Y-104970000D02*
X124466471Y-104618528D01*
X160195766Y-88190766D02*
X156797237Y-88190766D01*
X122650000Y-106150000D02*
X122876471Y-106376471D01*
X127176471Y-103415000D02*
X127951471Y-104190000D01*
X162416471Y-90908529D02*
X162416471Y-90411471D01*
X141806764Y-113075392D02*
X141761078Y-113121078D01*
X154951471Y-110007410D02*
X154951471Y-108735000D01*
X149621471Y-96525000D02*
X149416471Y-96320000D01*
X153316471Y-91270000D02*
X153480000Y-91270000D01*
X162065000Y-91260000D02*
X162416471Y-90908529D01*
X130766471Y-96160000D02*
X125406471Y-96160000D01*
X123650000Y-105917843D02*
X123650000Y-105735785D01*
X153370000Y-87130000D02*
X154560000Y-88320000D01*
X141871471Y-112585000D02*
X141884119Y-112585000D01*
X124466471Y-104618528D02*
X124466471Y-104121471D01*
X154951471Y-108735000D02*
X154951471Y-107708528D01*
X148459043Y-83547428D02*
X147816471Y-84190000D01*
X124860000Y-105356370D02*
X125651471Y-104564899D01*
X137850002Y-92560000D02*
X138780000Y-92560000D01*
X130020000Y-99220000D02*
X130820000Y-98420000D01*
X129590000Y-102300000D02*
X129840000Y-102550000D01*
X124030000Y-103685001D02*
X124030000Y-94783529D01*
X154816471Y-93500000D02*
X154836471Y-93520000D01*
X125551472Y-107170000D02*
X124860000Y-106478528D01*
X150666471Y-80775000D02*
X150129061Y-80775000D01*
X137261471Y-108541471D02*
X137376471Y-108656471D01*
X134416471Y-101790000D02*
X133431472Y-101790000D01*
X131541471Y-96935000D02*
X130766471Y-96160000D01*
X158986471Y-110660000D02*
X158821471Y-110825000D01*
X144136471Y-84455000D02*
X144136471Y-85146471D01*
X148459043Y-82445020D02*
X148459043Y-83547428D01*
X131564215Y-100940000D02*
X129844215Y-99220000D01*
X150129061Y-80775000D02*
X148459043Y-82445020D01*
X141486471Y-105780001D02*
X142178235Y-106471765D01*
X125406471Y-96160000D02*
X123826471Y-94580000D01*
X154549119Y-96525000D02*
X149621471Y-96525000D01*
X158578235Y-93058235D02*
X160376471Y-91260000D01*
X141282157Y-113600000D02*
X141761078Y-113121078D01*
X137376471Y-109936471D02*
X137585001Y-110145001D01*
X126620000Y-102741471D02*
X126620000Y-103415000D01*
X124466471Y-104121471D02*
X124030000Y-103685001D01*
X133460167Y-96240000D02*
X132765167Y-96935000D01*
X160376471Y-91260000D02*
X162065000Y-91260000D01*
X136950000Y-91660000D02*
X137850002Y-92560000D01*
X156126471Y-103245000D02*
X155961471Y-103080000D01*
X153131471Y-87130000D02*
X153370000Y-87130000D01*
X130480000Y-103190000D02*
X130476471Y-103190000D01*
X141761078Y-113121078D02*
X141871471Y-113010685D01*
X155961471Y-103080000D02*
X155406471Y-103080000D01*
X131936471Y-102726471D02*
X129840000Y-100630000D01*
X154836471Y-93520000D02*
X154836471Y-96237648D01*
X155551471Y-105842648D02*
X156126471Y-105267648D01*
X129586471Y-102300000D02*
X129366471Y-102080000D01*
X141486471Y-104420000D02*
X141486471Y-104343291D01*
X127281471Y-102080000D02*
X126620000Y-102741471D01*
X155551471Y-107108528D02*
X155551471Y-105842648D01*
X132765167Y-96935000D02*
X131541471Y-96935000D01*
X123667942Y-108280000D02*
X124165000Y-108280000D01*
X129586471Y-102300000D02*
X129590000Y-102300000D01*
X160526471Y-112200000D02*
X160526471Y-112240000D01*
X157400000Y-91880000D02*
X158578235Y-93058235D01*
X155406471Y-103080000D02*
X153706471Y-104780000D01*
X134936471Y-106740000D02*
X136345000Y-106740000D01*
X154951471Y-107708528D02*
X155551471Y-107108528D01*
X125651471Y-103716304D02*
X125952775Y-103415000D01*
X142171471Y-112297648D02*
X142171471Y-110865000D01*
X154836471Y-96237648D02*
X154549119Y-96525000D01*
X125952775Y-103415000D02*
X126620000Y-103415000D01*
X156997500Y-90657500D02*
X156997500Y-91477500D01*
X155769061Y-110825000D02*
X154951471Y-110007410D01*
X151811471Y-79630000D02*
X150666471Y-80775000D01*
X154560000Y-88320000D02*
X156206471Y-88320000D01*
X141871471Y-113010685D02*
X141871471Y-112585000D01*
X125651471Y-104564899D02*
X125651471Y-103716304D01*
X122876471Y-107488529D02*
X123667942Y-108280000D01*
X144136471Y-85146471D02*
X144350000Y-85360000D01*
X126536471Y-107170000D02*
X125551472Y-107170000D01*
X131936471Y-102735000D02*
X131936471Y-102726471D01*
X123420000Y-105505785D02*
X123420000Y-105047843D01*
X141884119Y-112585000D02*
X142171471Y-112297648D01*
X123497843Y-104970000D02*
X124115000Y-104970000D01*
X136345000Y-106740000D02*
X137261471Y-107656471D01*
X124165000Y-108280000D02*
X124516471Y-107928529D01*
X124516471Y-107928529D02*
X124516471Y-107431471D01*
X139730000Y-113810000D02*
X139940000Y-113600000D01*
X130476471Y-103190000D02*
X129586471Y-102300000D01*
X142171471Y-110865000D02*
X141466471Y-110160000D01*
X129844215Y-99220000D02*
X129320000Y-99220000D01*
X141486471Y-104420000D02*
X141486471Y-105780001D01*
X124030000Y-94783529D02*
X123826471Y-94580000D01*
X129320000Y-99220000D02*
X130020000Y-99220000D01*
X158821471Y-110825000D02*
X155769061Y-110825000D01*
X142165392Y-113075392D02*
X141806764Y-113075392D01*
X134406471Y-107270000D02*
X134936471Y-106740000D01*
X137261471Y-107656471D02*
X137261471Y-108541471D01*
X156126471Y-105267648D02*
X156126471Y-103245000D01*
X139940000Y-113600000D02*
X141282157Y-113600000D01*
X123710000Y-105977843D02*
X123650000Y-105917843D01*
X162416471Y-90411471D02*
X160195766Y-88190766D01*
X134416471Y-96240000D02*
X133460167Y-96240000D01*
X137376471Y-108656471D02*
X137376471Y-109936471D01*
X126620000Y-103415000D02*
X127176471Y-103415000D01*
%TO.N,BUSY*%
X161246471Y-92680000D02*
X166976471Y-86950000D01*
X161246471Y-95280000D02*
X161246471Y-92680000D01*
%TO.N,S3*%
X136658346Y-107901875D02*
X136096471Y-107340000D01*
X136658346Y-109374597D02*
X136658346Y-107901875D01*
%TO.N,V_sac*%
X140336471Y-80850000D02*
X140646471Y-81160000D01*
X148356471Y-102210000D02*
X148356471Y-101448529D01*
X145511471Y-91485000D02*
X144440000Y-91485000D01*
X148196471Y-108388529D02*
X147976471Y-108168528D01*
X149591471Y-94250000D02*
X148626471Y-93285000D01*
X148196471Y-104071120D02*
X147345911Y-103220560D01*
X148356471Y-95560000D02*
X148356471Y-95328529D01*
X154113823Y-113702648D02*
X153926471Y-113890000D01*
X153926471Y-113890000D02*
X153076471Y-113890000D01*
X144436471Y-90281471D02*
X142965000Y-88810000D01*
X148176471Y-101268528D02*
X148176471Y-100771471D01*
X131576471Y-84050000D02*
X131596471Y-84050000D01*
X153946471Y-95560000D02*
X148356471Y-95560000D01*
X136557079Y-80710608D02*
X136686471Y-80840000D01*
X140646471Y-81160000D02*
X140646471Y-81925000D01*
X141676471Y-82350000D02*
X141071471Y-82350000D01*
X143731471Y-79480000D02*
X142285001Y-79480000D01*
X155605000Y-112350000D02*
X154866471Y-112350000D01*
X148196471Y-111870000D02*
X148196471Y-108388529D01*
X148274999Y-91350000D02*
X147318881Y-91350000D01*
X136557079Y-80336912D02*
X136557079Y-80710608D01*
X147183881Y-91485000D02*
X144440000Y-91485000D01*
X154113823Y-113102648D02*
X154113823Y-113702648D01*
X147976471Y-108168528D02*
X147976471Y-107671472D01*
X135805167Y-79585000D02*
X136557079Y-80336912D01*
X147756471Y-112310000D02*
X148196471Y-111870000D01*
X144440000Y-91485000D02*
X144436471Y-91481471D01*
X153076471Y-113890000D02*
X152915295Y-113728824D01*
X142965000Y-88810000D02*
X142430000Y-88810000D01*
X147345911Y-103220560D02*
X148356471Y-102210000D01*
X141806471Y-82480000D02*
X141676471Y-82350000D01*
X133806471Y-80360000D02*
X134581471Y-79585000D01*
X131596471Y-84050000D02*
X132051471Y-84505000D01*
X148626471Y-91701471D02*
X148274999Y-91350000D01*
X131576471Y-82050000D02*
X131576471Y-84050000D01*
X148176471Y-100771471D02*
X148356471Y-100591472D01*
X133806471Y-80360000D02*
X133266471Y-80360000D01*
X148356471Y-100591472D02*
X148356471Y-95560000D01*
X144436471Y-91481471D02*
X144436471Y-90281471D01*
X149991471Y-94250000D02*
X149591471Y-94250000D01*
X139296471Y-80840000D02*
X139306471Y-80850000D01*
X154866471Y-112350000D02*
X154113823Y-113102648D01*
X141071471Y-82350000D02*
X140646471Y-81925000D01*
X136686471Y-80840000D02*
X139296471Y-80840000D01*
X147318881Y-91350000D02*
X147183881Y-91485000D01*
X148196471Y-107451471D02*
X148196471Y-104071120D01*
X148356471Y-95328529D02*
X147426471Y-94398528D01*
X142285001Y-79480000D02*
X142235736Y-79430735D01*
X154136471Y-95750000D02*
X153946471Y-95560000D01*
X132051471Y-84505000D02*
X133561471Y-84505000D01*
X133266471Y-80360000D02*
X131576471Y-82050000D01*
X147426471Y-94398528D02*
X147426471Y-93400000D01*
X134581471Y-79585000D02*
X135805167Y-79585000D01*
X148356471Y-101448529D02*
X148176471Y-101268528D01*
X148626471Y-93285000D02*
X148626471Y-91701471D01*
X147426471Y-93400000D02*
X145511471Y-91485000D01*
X139306471Y-80850000D02*
X140336471Y-80850000D01*
X147976471Y-107671472D02*
X148196471Y-107451471D01*
%TO.N,-5V*%
D26*
X124530000Y-81956471D02*
X124694871Y-81791600D01*
X123381471Y-92325000D02*
X123381471Y-88545000D01*
X127226471Y-93060000D02*
X127226471Y-91490000D01*
X124276471Y-82713529D02*
X124530000Y-82460000D01*
X124276471Y-87620000D02*
X124276471Y-82950000D01*
X124694871Y-81791600D02*
X126096471Y-81791600D01*
X127226471Y-93060000D02*
X127226471Y-94240000D01*
X127226471Y-91490000D02*
X127306471Y-91410000D01*
X124276471Y-82950000D02*
X124276471Y-82713529D01*
X123381471Y-88545000D02*
X123976471Y-87950000D01*
X124530000Y-82460000D02*
X124530000Y-81956471D01*
X123976471Y-87950000D02*
X124606471Y-87950000D01*
X125076471Y-94020000D02*
X123381471Y-92325000D01*
X127226471Y-94240000D02*
X127206471Y-94260000D01*
X124606471Y-87950000D02*
X124276471Y-87620000D01*
%TO.N,+5V*%
D25*
X159466471Y-86730000D02*
X159656471Y-86730000D01*
D26*
X125876471Y-94680000D02*
X126756471Y-95560000D01*
X130756471Y-85500000D02*
X131746471Y-86490000D01*
X127231471Y-87575000D02*
X126866471Y-87210000D01*
X131886471Y-94620000D02*
X130356471Y-94620000D01*
X131746471Y-88020000D02*
X131746471Y-88330000D01*
X134006471Y-90590000D02*
X134006471Y-92500000D01*
X129416471Y-95560000D02*
X130356471Y-94620000D01*
X134006471Y-92500000D02*
X131886471Y-94620000D01*
X127056471Y-89900000D02*
X125876471Y-91080000D01*
X127231471Y-89900000D02*
X127056471Y-89900000D01*
X132971471Y-89352412D02*
X132971471Y-89555000D01*
D25*
X159656471Y-86730000D02*
X162786471Y-83600000D01*
D26*
X132539059Y-88920000D02*
X132971471Y-89352412D01*
X132971471Y-89555000D02*
X134006471Y-90590000D01*
X132336471Y-88920000D02*
X132539059Y-88920000D01*
X131746471Y-86490000D02*
X131746471Y-88020000D01*
X131746471Y-88330000D02*
X132336471Y-88920000D01*
X125876471Y-91080000D02*
X125876471Y-94680000D01*
X129804871Y-85500000D02*
X130756471Y-85500000D01*
X126756471Y-95560000D02*
X129416471Y-95560000D01*
X127231471Y-88000000D02*
X127231471Y-87575000D01*
%TO.N,S1*%
D25*
X137706471Y-91320000D02*
X138721790Y-91320000D01*
X138721790Y-91320000D02*
X139421435Y-90620355D01*
%TO.N,S4*%
X136226471Y-96470000D02*
X135186471Y-97510000D01*
X137447366Y-93160000D02*
X137103621Y-93503745D01*
X135186471Y-97510000D02*
X134416471Y-97510000D01*
X140316471Y-93160000D02*
X137447366Y-93160000D01*
X127746471Y-98530000D02*
X128766471Y-97510000D01*
X140476471Y-93320000D02*
X140476471Y-91800000D01*
X140476471Y-93320000D02*
X140316471Y-93160000D01*
X128766471Y-97510000D02*
X134416471Y-97510000D01*
X140476471Y-91800000D02*
X140496471Y-91780000D01*
X127606471Y-98530000D02*
X127746471Y-98530000D01*
%TO.N,S5*%
X128294282Y-99035656D02*
X128280728Y-99049210D01*
X132415786Y-101340000D02*
X132906471Y-101830685D01*
X128449228Y-99230166D02*
X128800699Y-99581637D01*
X130898529Y-100840000D02*
X131398529Y-101340000D01*
X132906471Y-101830685D02*
X132906471Y-101850000D01*
X133131471Y-102075000D02*
X133131471Y-102172410D01*
X141531471Y-99670000D02*
X138896471Y-99670000D01*
X141606471Y-99595000D02*
X141531471Y-99670000D01*
X133349061Y-102390000D02*
X133446471Y-102390000D01*
X128800699Y-99581637D02*
X128800699Y-99670699D01*
X130088529Y-100030000D02*
X130440000Y-100381471D01*
X131398529Y-101340000D02*
X132415786Y-101340000D01*
X143191471Y-99595000D02*
X143196471Y-99590000D01*
X129160000Y-100030000D02*
X130088529Y-100030000D01*
X130440000Y-100381471D02*
X130440000Y-100664314D01*
X136186471Y-102560000D02*
X135686471Y-103060000D01*
X132906471Y-101850000D02*
X133131471Y-102075000D01*
X128280728Y-99150728D02*
X128360166Y-99230166D01*
X128280728Y-99049210D02*
X128280728Y-99150728D01*
X128360166Y-99230166D02*
X128449228Y-99230166D01*
X134116471Y-103060000D02*
X134416471Y-103060000D01*
X130440000Y-100664314D02*
X130615686Y-100840000D01*
X133131471Y-102172410D02*
X133349061Y-102390000D01*
X135686471Y-103060000D02*
X134416471Y-103060000D01*
X133446471Y-102390000D02*
X134116471Y-103060000D01*
X128800699Y-99670699D02*
X129160000Y-100030000D01*
X130615686Y-100840000D02*
X130898529Y-100840000D01*
X141606471Y-99595000D02*
X143191471Y-99595000D01*
X136186471Y-100950000D02*
X136186471Y-102560000D01*
%TO.N,S6*%
X128318471Y-100019410D02*
X128669942Y-100370881D01*
X131161471Y-104733696D02*
X131462775Y-105035000D01*
X129630000Y-101550000D02*
X130060167Y-101550000D01*
X136791471Y-111420000D02*
X136751471Y-111460000D01*
X128669942Y-100589942D02*
X129630000Y-101550000D01*
X132806471Y-106050000D02*
X132806471Y-107924999D01*
X131440000Y-103557775D02*
X131161471Y-103836304D01*
X130941471Y-102502598D02*
X131062598Y-102502598D01*
X132543881Y-105300000D02*
X132761471Y-105517590D01*
X131062598Y-102502598D02*
X131161471Y-102601471D01*
X133421472Y-108540000D02*
X134406471Y-108540000D01*
X128200699Y-100019410D02*
X128318471Y-100019410D01*
X138246471Y-111420000D02*
X136791471Y-111420000D01*
X132761471Y-105517590D02*
X132761471Y-106005000D01*
X132295000Y-105035000D02*
X132543881Y-105283881D01*
X132806471Y-107924999D02*
X133421472Y-108540000D01*
X130441304Y-101851304D02*
X130590000Y-102000000D01*
X132761471Y-106005000D02*
X132806471Y-106050000D01*
X131462775Y-105035000D02*
X132295000Y-105035000D01*
X128669942Y-100370881D02*
X128669942Y-100589942D01*
X131161471Y-102601471D02*
X131161471Y-103183696D01*
X132543881Y-105283881D02*
X132543881Y-105300000D01*
X131440000Y-103462225D02*
X131440000Y-103557775D01*
X134406471Y-108540000D02*
X134803881Y-108540000D01*
X130590000Y-102151127D02*
X130941471Y-102502598D01*
X130590000Y-102000000D02*
X130590000Y-102151127D01*
X131161471Y-103836304D02*
X131161471Y-104733696D01*
X134803881Y-108540000D02*
X136751471Y-110487590D01*
X128200699Y-99830166D02*
X128200699Y-100019410D01*
X130361471Y-101851304D02*
X130441304Y-101851304D01*
X130060167Y-101550000D02*
X130361471Y-101851304D01*
X136751471Y-110487590D02*
X136751471Y-111460000D01*
X131161471Y-103183696D02*
X131440000Y-103462225D01*
%TO.N,S7*%
X124050000Y-105752157D02*
X124110000Y-105812158D01*
X125476471Y-108440000D02*
X126536471Y-108440000D01*
X124866471Y-104784213D02*
X124050000Y-105600685D01*
X124110000Y-105812158D02*
X124110000Y-106012157D01*
X124916471Y-107940000D02*
X124976471Y-107940000D01*
X130731471Y-111460000D02*
X129221471Y-111460000D01*
X129191471Y-111430000D02*
X129191471Y-110110001D01*
X127521470Y-108440000D02*
X126536471Y-108440000D01*
X124866471Y-103955786D02*
X124866471Y-104784213D01*
X124210000Y-106112157D02*
X124210000Y-106559314D01*
X124050000Y-105600685D02*
X124050000Y-105752157D01*
X124976471Y-107940000D02*
X125476471Y-108440000D01*
X129221471Y-111460000D02*
X129191471Y-111430000D01*
X124916471Y-107265786D02*
X124916471Y-107940000D01*
X129191471Y-110110001D02*
X127521470Y-108440000D01*
X124110000Y-106012157D02*
X124210000Y-106112157D01*
X128069942Y-100619410D02*
X124800018Y-103889334D01*
X124800018Y-103889334D02*
X124866471Y-103955786D01*
X124210000Y-106559314D02*
X124916471Y-107265786D01*
%TO.N,Net-(U10--IN)*%
X147106471Y-100250000D02*
X146916471Y-100440000D01*
X146916471Y-100440000D02*
X146914119Y-100440000D01*
X145061642Y-98587523D02*
X144086216Y-98587523D01*
X146914119Y-100440000D02*
X145061642Y-98587523D01*
%TO.N,Net-(C45-Pad1)*%
X157941876Y-82504595D02*
X158775406Y-81671065D01*
X157911876Y-82504595D02*
X157941876Y-82504595D01*
%TO.N,Vout1*%
X154166471Y-92552334D02*
X154254137Y-92552334D01*
X154254137Y-92552334D02*
X157056471Y-89750000D01*
%TO.N,Vdrive*%
X161756471Y-80560000D02*
X161756471Y-81070000D01*
X161756471Y-81070000D02*
X166226471Y-85540000D01*
X162056471Y-80260000D02*
X161756471Y-80560000D01*
%TO.N,SPI_SCK*%
X170796471Y-92860000D02*
X172026471Y-92860000D01*
X172026471Y-92860000D02*
X172176471Y-92710000D01*
%TO.N,SPI_MISO*%
X162366471Y-105940000D02*
X167756471Y-100550000D01*
X167756471Y-100550000D02*
X167756471Y-85020000D01*
%TO.N,Vout4*%
X151196471Y-82645000D02*
X152181470Y-82645000D01*
X149256471Y-78855000D02*
X148561471Y-79550000D01*
X152260167Y-78855000D02*
X149256471Y-78855000D01*
X155114633Y-85191956D02*
X154650469Y-84727792D01*
X153340167Y-82645000D02*
X151196471Y-82645000D01*
X152561471Y-82264999D02*
X152561471Y-79156304D01*
X152181470Y-82645000D02*
X152561471Y-82264999D01*
X154650469Y-84727792D02*
X154650469Y-83955302D01*
X154650469Y-83955302D02*
X153340167Y-82645000D01*
X152561471Y-79156304D02*
X152260167Y-78855000D01*
%TO.N,Vout5*%
X154212775Y-89150000D02*
X154091471Y-89271304D01*
X161816471Y-90660000D02*
X160306471Y-89150000D01*
X155320000Y-89990000D02*
X155320000Y-90556471D01*
X155320000Y-90556471D02*
X153796471Y-92080000D01*
X151056471Y-88345000D02*
X153165167Y-88345000D01*
X154091471Y-89271304D02*
X154310167Y-89490000D01*
X152936471Y-92080000D02*
X152526471Y-92490000D01*
X154310167Y-89490000D02*
X154820000Y-89490000D01*
X153165167Y-88345000D02*
X154091471Y-89271304D01*
X154820000Y-89490000D02*
X155320000Y-89990000D01*
X160306471Y-89150000D02*
X154212775Y-89150000D01*
X153796471Y-92080000D02*
X152936471Y-92080000D01*
X152526471Y-92490000D02*
X151636471Y-92490000D01*
%TO.N,Vout6*%
X157133881Y-98855000D02*
X156736471Y-98855000D01*
X160326471Y-93520000D02*
X160326471Y-95662410D01*
X155751472Y-98855000D02*
X153606471Y-101000001D01*
X156736471Y-98855000D02*
X155751472Y-98855000D01*
X160326471Y-95662410D02*
X157133881Y-98855000D01*
X153606471Y-101000001D02*
X153606471Y-103080000D01*
%TO.N,Vout7*%
X158188881Y-109910000D02*
X157833881Y-109555000D01*
X155769061Y-109555000D02*
X155551471Y-109337410D01*
X157956471Y-104780000D02*
X157076471Y-104780000D01*
X157833881Y-109555000D02*
X155769061Y-109555000D01*
X155851472Y-107685000D02*
X156836471Y-107685000D01*
X155551471Y-109337410D02*
X155551471Y-107985001D01*
X157233881Y-107685000D02*
X158121471Y-106797410D01*
X159546471Y-102480000D02*
X159546471Y-106230000D01*
X156836471Y-107685000D02*
X157233881Y-107685000D01*
X158121471Y-106797410D02*
X158121471Y-104945000D01*
X159761471Y-106445000D02*
X159761471Y-109558696D01*
X155551471Y-107985001D02*
X155851472Y-107685000D01*
X159761471Y-109558696D02*
X159410167Y-109910000D01*
X158121471Y-104945000D02*
X157956471Y-104780000D01*
X159546471Y-106230000D02*
X159761471Y-106445000D01*
X159410167Y-109910000D02*
X158188881Y-109910000D01*
%TO.N,S_sac*%
X138501471Y-83235000D02*
X139486470Y-83235000D01*
X122266471Y-104460000D02*
X122266471Y-81680000D01*
X140646471Y-83575000D02*
X138841471Y-83575000D01*
X139486470Y-83235000D02*
X139786471Y-82934999D01*
X123020000Y-105671471D02*
X123020000Y-105213529D01*
X123020000Y-105213529D02*
X122266471Y-104460000D01*
X135496471Y-81040000D02*
X135356471Y-80900000D01*
X141784999Y-87370000D02*
X140192775Y-87370000D01*
X124066471Y-79880000D02*
X124807741Y-79880000D01*
X139786471Y-81582590D02*
X139523881Y-81320000D01*
X123608236Y-107371764D02*
X123608236Y-107161764D01*
X123250000Y-106184314D02*
X123250000Y-105901471D01*
X136536471Y-81320000D02*
X136256471Y-81040000D01*
X141056471Y-79100000D02*
X143206471Y-81250000D01*
X136256471Y-81040000D02*
X135496471Y-81040000D01*
X143206471Y-85948528D02*
X141784999Y-87370000D01*
X124807741Y-79880000D02*
X125587741Y-79100000D01*
X138841471Y-83575000D02*
X138501471Y-83235000D01*
X122266471Y-81680000D02*
X124066471Y-79880000D01*
X137684061Y-86625000D02*
X135840000Y-84780939D01*
X123276471Y-106210785D02*
X123250000Y-106184314D01*
X135356471Y-80900000D02*
X135356471Y-80360000D01*
X143206471Y-81250000D02*
X143206471Y-85948528D01*
X123250000Y-105901471D02*
X123020000Y-105671471D01*
X139786471Y-82934999D02*
X139786471Y-81582590D01*
X139523881Y-81320000D02*
X136536471Y-81320000D01*
X135840000Y-80843529D02*
X135356471Y-80360000D01*
X135840000Y-84780939D02*
X135840000Y-80843529D01*
X123276471Y-106829999D02*
X123276471Y-106210785D01*
X125587741Y-79100000D02*
X141056471Y-79100000D01*
X139447775Y-86625000D02*
X137684061Y-86625000D01*
X123608236Y-107161764D02*
X123276471Y-106829999D01*
X140192775Y-87370000D02*
X139447775Y-86625000D01*
%TO.N,Net-(U15-OUTPUT)*%
X144846471Y-101210000D02*
X143226471Y-101210000D01*
X143226471Y-101210000D02*
X143196471Y-101240000D01*
X141701471Y-101240000D02*
X141606471Y-101145000D01*
X143196471Y-101240000D02*
X141701471Y-101240000D01*
X140776471Y-101790000D02*
X139356471Y-101790000D01*
X141421471Y-101145000D02*
X140776471Y-101790000D01*
X141606471Y-101145000D02*
X141421471Y-101145000D01*
%TO.N,Net-(U19-OUTPUT)*%
X128446471Y-112235000D02*
X131606471Y-112235000D01*
X132381471Y-111460000D02*
X134121471Y-113200000D01*
X131606471Y-112235000D02*
X132381471Y-111460000D01*
X131476471Y-107170000D02*
X129986471Y-107170000D01*
X131606471Y-110685000D02*
X132381471Y-111460000D01*
X129986471Y-107170000D02*
X129956471Y-107200000D01*
X134121471Y-113200000D02*
X141116471Y-113200000D01*
X130318823Y-110685000D02*
X131606471Y-110685000D01*
X129580341Y-109946518D02*
X130318823Y-110685000D01*
X141471471Y-112845000D02*
X141471471Y-111810000D01*
X129580341Y-109212988D02*
X129580341Y-109946518D01*
X141116471Y-113200000D02*
X141471471Y-112845000D01*
X127641471Y-111430000D02*
X128446471Y-112235000D01*
%TO.N,Net-(U18-+IN)*%
X155786471Y-95750000D02*
X157376471Y-95750000D01*
X151796471Y-98855000D02*
X153451471Y-98855000D01*
X157376471Y-95750000D02*
X157456471Y-95830000D01*
X153451471Y-98855000D02*
X155786471Y-96520000D01*
X155786471Y-96520000D02*
X155786471Y-95750000D01*
%TO.N,Net-(U17-OUTPUT)*%
X139436471Y-107180000D02*
X139346471Y-107270000D01*
X141890167Y-109410000D02*
X142241471Y-109058696D01*
X140691471Y-109711304D02*
X140992775Y-109410000D01*
X140691471Y-110625000D02*
X140691471Y-109711304D01*
X141386471Y-107180000D02*
X139436471Y-107180000D01*
X139896471Y-111420000D02*
X138516471Y-112800000D01*
X135201471Y-112575000D02*
X135201471Y-112095000D01*
X142241471Y-109058696D02*
X142241471Y-108035000D01*
X142241471Y-108035000D02*
X141386471Y-107180000D01*
X139896471Y-111420000D02*
X140691471Y-110625000D01*
X135426471Y-112800000D02*
X135201471Y-112575000D01*
X140992775Y-109410000D02*
X141890167Y-109410000D01*
X135201471Y-112095000D02*
X135201471Y-111460000D01*
X138516471Y-112800000D02*
X135426471Y-112800000D01*
%TO.N,Net-(U1-SW)*%
D26*
X129506471Y-88000000D02*
X129311471Y-88000000D01*
D25*
X128546471Y-87596471D02*
X128546471Y-87910000D01*
X128390000Y-83020000D02*
X127985300Y-83424700D01*
X129804871Y-81791600D02*
X128576471Y-83020000D01*
X127985300Y-83424700D02*
X127985300Y-83550300D01*
X127855000Y-87350000D02*
X128300000Y-87350000D01*
X128576471Y-83020000D02*
X128390000Y-83020000D01*
X127685600Y-83850000D02*
X127670000Y-83850000D01*
X128300000Y-87350000D02*
X128546471Y-87596471D01*
X127590000Y-86163529D02*
X127590000Y-87085001D01*
X127670000Y-86083529D02*
X127590000Y-86163529D01*
X127670000Y-83850000D02*
X127670000Y-86083529D01*
X128546471Y-87910000D02*
X128636471Y-88000000D01*
X127985300Y-83550300D02*
X127685600Y-83850000D01*
X128636471Y-88000000D02*
X129506471Y-88000000D01*
X127590000Y-87085001D02*
X127855000Y-87350000D01*
%TO.N,Net-(U1-FB)*%
X128876471Y-91430000D02*
X128856471Y-91410000D01*
X128856471Y-91240000D02*
X129516471Y-90580000D01*
X129516471Y-90580000D02*
X129506471Y-90570000D01*
X129506471Y-90570000D02*
X129506471Y-89900000D01*
X128856471Y-91410000D02*
X128856471Y-91240000D01*
X128876471Y-93060000D02*
X128876471Y-91430000D01*
%TO.N,Net-(U1-D)*%
X126416471Y-88950000D02*
X126096471Y-88630000D01*
D26*
X125616471Y-85980000D02*
X126096471Y-85500000D01*
D25*
X127231471Y-88950000D02*
X126416471Y-88950000D01*
X126096471Y-88630000D02*
X126096471Y-85500000D01*
%TO.N,Net-(U14--IN)*%
X146911471Y-79550000D02*
X146911471Y-79585000D01*
X147866471Y-82353289D02*
X147866471Y-83289999D01*
X146911471Y-79585000D02*
X147886471Y-80560000D01*
X142976471Y-94148234D02*
X144239705Y-92885000D01*
X147866471Y-83289999D02*
X147241470Y-83915000D01*
X147241470Y-83915000D02*
X146256471Y-83915000D01*
X147688182Y-82175000D02*
X147866471Y-82353289D01*
X142976471Y-94890000D02*
X142976471Y-94148234D01*
%TO.N,Net-(U13-OUTPUT)*%
X139356471Y-96240000D02*
X139976471Y-96240000D01*
X141326471Y-94890000D02*
X141326471Y-93740000D01*
X139976471Y-96240000D02*
X141326471Y-94890000D01*
X142126471Y-93320000D02*
X142126471Y-91860000D01*
X141746471Y-93320000D02*
X142126471Y-93320000D01*
X142126471Y-91860000D02*
X142046471Y-91780000D01*
X141326471Y-93740000D02*
X141746471Y-93320000D01*
%TO.N,Net-(U14-+IN)*%
X146096471Y-82805000D02*
X146256471Y-82645000D01*
X144036471Y-80825000D02*
X144036471Y-82705000D01*
X144036471Y-82705000D02*
X144136471Y-82805000D01*
X145381471Y-79480000D02*
X144036471Y-80825000D01*
X144136471Y-82805000D02*
X146096471Y-82805000D01*
%TO.N,Net-(U20--IN)*%
X149893881Y-113895000D02*
X150611471Y-113177410D01*
X154926471Y-106588528D02*
X154499999Y-107015000D01*
X150611471Y-109255001D02*
X150911472Y-108955000D01*
X150834061Y-107080000D02*
X150611471Y-107302590D01*
X143211470Y-113895000D02*
X149893881Y-113895000D01*
X142910000Y-112996471D02*
X142860000Y-113046471D01*
X142860000Y-113543529D02*
X143211470Y-113895000D01*
X154015000Y-107015000D02*
X153950000Y-107080000D01*
X154926471Y-105813529D02*
X154926471Y-106588528D01*
X150611471Y-107302590D02*
X150611471Y-108067410D01*
X155426471Y-104780000D02*
X155426471Y-105313529D01*
X150611471Y-108067410D02*
X151499061Y-108955000D01*
X151499061Y-108955000D02*
X151896471Y-108955000D01*
X150911472Y-108955000D02*
X151896471Y-108955000D01*
X142910000Y-112021471D02*
X142910000Y-112996471D01*
X143121471Y-111810000D02*
X142910000Y-112021471D01*
X142860000Y-113046471D02*
X142860000Y-113543529D01*
X155426471Y-105313529D02*
X154926471Y-105813529D01*
X154499999Y-107015000D02*
X154015000Y-107015000D01*
X150611471Y-113177410D02*
X150611471Y-109255001D01*
X153950000Y-107080000D02*
X150834061Y-107080000D01*
%TO.N,Net-(U20-+IN)*%
X156330000Y-111920000D02*
X156305000Y-111895000D01*
X156700000Y-112410000D02*
X156400000Y-112110000D01*
X156400000Y-112110000D02*
X156400000Y-111920000D01*
X156305000Y-111895000D02*
X156305000Y-111862352D01*
X158876471Y-112240000D02*
X157365000Y-112240000D01*
X155565000Y-111575000D02*
X153181471Y-109191471D01*
X157195000Y-112410000D02*
X156700000Y-112410000D01*
X157365000Y-112240000D02*
X157255000Y-112350000D01*
X152095000Y-107685000D02*
X151896471Y-107685000D01*
X156017648Y-111575000D02*
X155565000Y-111575000D01*
X156400000Y-111920000D02*
X156330000Y-111920000D01*
X153181471Y-109191471D02*
X153181471Y-108572590D01*
X152963881Y-108355000D02*
X152765000Y-108355000D01*
X152765000Y-108355000D02*
X152095000Y-107685000D01*
X157255000Y-112350000D02*
X157195000Y-112410000D01*
X156305000Y-111862352D02*
X156017648Y-111575000D01*
X153181471Y-108572590D02*
X152963881Y-108355000D01*
%TO.N,Net-(U16-+IN)*%
X146513881Y-88345000D02*
X149106471Y-90937590D01*
X153496470Y-94720993D02*
X153137463Y-95080000D01*
X149106471Y-90937590D02*
X149106471Y-93002648D01*
X151786471Y-95080000D02*
X151786471Y-94980000D01*
X149106471Y-93002648D02*
X149578823Y-93475000D01*
X151641471Y-94835000D02*
X151641471Y-94250000D01*
X146116471Y-88345000D02*
X146513881Y-88345000D01*
X153137463Y-95080000D02*
X151786471Y-95080000D01*
X153496470Y-93829999D02*
X153496470Y-94720993D01*
X151786471Y-94980000D02*
X151641471Y-94835000D01*
X150866471Y-93475000D02*
X151641471Y-94250000D01*
X153166471Y-93500000D02*
X153496470Y-93829999D01*
X149578823Y-93475000D02*
X150866471Y-93475000D01*
%TO.N,Net-(U16--IN)*%
X152466471Y-93887352D02*
X152054119Y-93475000D01*
X152054119Y-93475000D02*
X151432157Y-93475000D01*
X144831471Y-88727410D02*
X145719061Y-89615000D01*
X150447157Y-92490000D02*
X149986471Y-92490000D01*
X147740000Y-98740000D02*
X147740000Y-100980000D01*
X145719061Y-89615000D02*
X146116471Y-89615000D01*
X147485000Y-100980000D02*
X147355000Y-100850000D01*
X149606471Y-92110000D02*
X149606471Y-90167590D01*
X147355000Y-100850000D02*
X146136471Y-100850000D01*
X151432157Y-93475000D02*
X150447157Y-92490000D01*
X152466471Y-94042465D02*
X152466471Y-93887352D01*
X144831471Y-87962590D02*
X144831471Y-88727410D01*
X147183881Y-87745000D02*
X145049061Y-87745000D01*
X149606471Y-90167590D02*
X147183881Y-87745000D01*
X145049061Y-87745000D02*
X144831471Y-87962590D01*
X146136471Y-100850000D02*
X144846471Y-99560000D01*
X149986471Y-92490000D02*
X149606471Y-92110000D01*
X152896470Y-94472464D02*
X152466471Y-94042465D01*
X147740000Y-100980000D02*
X147485000Y-100980000D01*
%TO.N,Net-(U18--IN)*%
X147156471Y-110148529D02*
X147666471Y-109638529D01*
X147666471Y-109638529D02*
X147666471Y-109141471D01*
X145705000Y-107180000D02*
X143036471Y-107180000D01*
X150056471Y-110858529D02*
X148005000Y-112910000D01*
X148005000Y-112910000D02*
X147507942Y-112910000D01*
X152366471Y-103080000D02*
X151956471Y-103080000D01*
X151796471Y-100125000D02*
X152193881Y-100125000D01*
X147507942Y-112910000D02*
X147156471Y-112558529D01*
X151956471Y-103080000D02*
X150056471Y-104980000D01*
X150056471Y-104980000D02*
X150056471Y-110858529D01*
X147666471Y-109141471D02*
X145705000Y-107180000D01*
X153081471Y-101012590D02*
X153081471Y-102365000D01*
X152193881Y-100125000D02*
X153081471Y-101012590D01*
X147156471Y-112558529D02*
X147156471Y-110148529D01*
X153081471Y-102365000D02*
X152366471Y-103080000D01*
%TD*%
%TA.AperFunction,Conductor*%
%TO.N,GNDA*%
G36*
X170827124Y-75440185D02*
G01*
X170872879Y-75492989D01*
X170882823Y-75562147D01*
X170853798Y-75625703D01*
X170826057Y-75649494D01*
X170715183Y-75719161D01*
X170504386Y-75887265D01*
X170313736Y-76077915D01*
X170145632Y-76288712D01*
X170002185Y-76517005D01*
X169885205Y-76759917D01*
X169796158Y-77014397D01*
X169796155Y-77014405D01*
X169736159Y-77277268D01*
X169736157Y-77277280D01*
X169717843Y-77439813D01*
X169690776Y-77504227D01*
X169633181Y-77543782D01*
X169563344Y-77545919D01*
X169503438Y-77509960D01*
X169480064Y-77473386D01*
X169445865Y-77390821D01*
X169445863Y-77390818D01*
X169445861Y-77390814D01*
X169358260Y-77259711D01*
X169358257Y-77259707D01*
X169246763Y-77148213D01*
X169246759Y-77148210D01*
X169115656Y-77060609D01*
X169115643Y-77060602D01*
X168969972Y-77000264D01*
X168969960Y-77000261D01*
X168815316Y-76969500D01*
X168815313Y-76969500D01*
X168657629Y-76969500D01*
X168657626Y-76969500D01*
X168502981Y-77000261D01*
X168502969Y-77000264D01*
X168357298Y-77060602D01*
X168357285Y-77060609D01*
X168226182Y-77148210D01*
X168226178Y-77148213D01*
X168114684Y-77259707D01*
X168114681Y-77259711D01*
X168027080Y-77390814D01*
X168027073Y-77390827D01*
X167966735Y-77536498D01*
X167966732Y-77536510D01*
X167935971Y-77691153D01*
X167935971Y-77848846D01*
X167966732Y-78003489D01*
X167966735Y-78003501D01*
X168027073Y-78149172D01*
X168027080Y-78149185D01*
X168114681Y-78280288D01*
X168114684Y-78280292D01*
X168226178Y-78391786D01*
X168226182Y-78391789D01*
X168357285Y-78479390D01*
X168357298Y-78479397D01*
X168499217Y-78538181D01*
X168502974Y-78539737D01*
X168612494Y-78561522D01*
X168657624Y-78570499D01*
X168657627Y-78570500D01*
X168657629Y-78570500D01*
X168815315Y-78570500D01*
X168815316Y-78570499D01*
X168969968Y-78539737D01*
X169115650Y-78479394D01*
X169246760Y-78391789D01*
X169358260Y-78280289D01*
X169445865Y-78149179D01*
X169496007Y-78028122D01*
X169539846Y-77973722D01*
X169606140Y-77951656D01*
X169673839Y-77968934D01*
X169721450Y-78020071D01*
X169733787Y-78061689D01*
X169736158Y-78082725D01*
X169736159Y-78082731D01*
X169796155Y-78345594D01*
X169796158Y-78345602D01*
X169885205Y-78600082D01*
X170002185Y-78842994D01*
X170015600Y-78864343D01*
X170145633Y-79071289D01*
X170245221Y-79196168D01*
X170281446Y-79241594D01*
X170313737Y-79282085D01*
X170504386Y-79472734D01*
X170715182Y-79640838D01*
X170943474Y-79784284D01*
X171186392Y-79901267D01*
X171349052Y-79958184D01*
X171440868Y-79990312D01*
X171440876Y-79990315D01*
X171440879Y-79990315D01*
X171440880Y-79990316D01*
X171703739Y-80050312D01*
X171971658Y-80080499D01*
X171971659Y-80080500D01*
X171971662Y-80080500D01*
X172241283Y-80080500D01*
X172241283Y-80080499D01*
X172509203Y-80050312D01*
X172772062Y-79990316D01*
X173026550Y-79901267D01*
X173269468Y-79784284D01*
X173497760Y-79640838D01*
X173708556Y-79472734D01*
X173899205Y-79282085D01*
X174067309Y-79071289D01*
X174147478Y-78943700D01*
X174199812Y-78897411D01*
X174268865Y-78886763D01*
X174332713Y-78915138D01*
X174371086Y-78973527D01*
X174376471Y-79009674D01*
X174376471Y-111510325D01*
X174356786Y-111577364D01*
X174303982Y-111623119D01*
X174234824Y-111633063D01*
X174171268Y-111604038D01*
X174147477Y-111576297D01*
X174111808Y-111519531D01*
X174067309Y-111448711D01*
X173899205Y-111237915D01*
X173708556Y-111047266D01*
X173497760Y-110879162D01*
X173276657Y-110740233D01*
X173269465Y-110735714D01*
X173026553Y-110618734D01*
X172772073Y-110529687D01*
X172772065Y-110529684D01*
X172574098Y-110484500D01*
X172509203Y-110469688D01*
X172509199Y-110469687D01*
X172509190Y-110469686D01*
X172241284Y-110439500D01*
X172241280Y-110439500D01*
X171971662Y-110439500D01*
X171971657Y-110439500D01*
X171703751Y-110469686D01*
X171703739Y-110469688D01*
X171440876Y-110529684D01*
X171440868Y-110529687D01*
X171186388Y-110618734D01*
X170943476Y-110735714D01*
X170715183Y-110879161D01*
X170504386Y-111047265D01*
X170313736Y-111237915D01*
X170145632Y-111448712D01*
X170002185Y-111677005D01*
X169885206Y-111919914D01*
X169848991Y-112023410D01*
X169808269Y-112080185D01*
X169743316Y-112105932D01*
X169674754Y-112092475D01*
X169663058Y-112085556D01*
X169655650Y-112080606D01*
X169655643Y-112080602D01*
X169509972Y-112020264D01*
X169509960Y-112020261D01*
X169355316Y-111989500D01*
X169355313Y-111989500D01*
X169197629Y-111989500D01*
X169197626Y-111989500D01*
X169042981Y-112020261D01*
X169042969Y-112020264D01*
X168897298Y-112080602D01*
X168897285Y-112080609D01*
X168766182Y-112168210D01*
X168766178Y-112168213D01*
X168654684Y-112279707D01*
X168654681Y-112279711D01*
X168567080Y-112410814D01*
X168567073Y-112410827D01*
X168506735Y-112556498D01*
X168506732Y-112556510D01*
X168475971Y-112711153D01*
X168475971Y-112868846D01*
X168506732Y-113023489D01*
X168506735Y-113023501D01*
X168567073Y-113169172D01*
X168567080Y-113169185D01*
X168654681Y-113300288D01*
X168654684Y-113300292D01*
X168766178Y-113411786D01*
X168766182Y-113411789D01*
X168897285Y-113499390D01*
X168897298Y-113499397D01*
X169010116Y-113546127D01*
X169042974Y-113559737D01*
X169197624Y-113590499D01*
X169197627Y-113590500D01*
X169197629Y-113590500D01*
X169355315Y-113590500D01*
X169355316Y-113590499D01*
X169509968Y-113559737D01*
X169655300Y-113499538D01*
X169724767Y-113492070D01*
X169787247Y-113523345D01*
X169819792Y-113573145D01*
X169885203Y-113760076D01*
X169885204Y-113760079D01*
X170002185Y-114002994D01*
X170002187Y-114002997D01*
X170145633Y-114231289D01*
X170234624Y-114342880D01*
X170313736Y-114442084D01*
X170504386Y-114632734D01*
X170611998Y-114718552D01*
X170652138Y-114775740D01*
X170654988Y-114845552D01*
X170619642Y-114905822D01*
X170557324Y-114937415D01*
X170534685Y-114939499D01*
X125468257Y-114939499D01*
X125401218Y-114919814D01*
X125355463Y-114867010D01*
X125345519Y-114797852D01*
X125374544Y-114734296D01*
X125390944Y-114718552D01*
X125426651Y-114690076D01*
X125498556Y-114632734D01*
X125689205Y-114442085D01*
X125857309Y-114231289D01*
X126000755Y-114002997D01*
X126117738Y-113760079D01*
X126206787Y-113505591D01*
X126266783Y-113242732D01*
X126296971Y-112974809D01*
X126296971Y-112705191D01*
X126266783Y-112437268D01*
X126206787Y-112174409D01*
X126117738Y-111919921D01*
X126025485Y-111728355D01*
X126000756Y-111677005D01*
X125975757Y-111637219D01*
X125857309Y-111448711D01*
X125689205Y-111237915D01*
X125498556Y-111047266D01*
X125287760Y-110879162D01*
X125066657Y-110740233D01*
X125059465Y-110735714D01*
X124816553Y-110618734D01*
X124562073Y-110529687D01*
X124562065Y-110529684D01*
X124364098Y-110484500D01*
X124299203Y-110469688D01*
X124299199Y-110469687D01*
X124299190Y-110469686D01*
X124031284Y-110439500D01*
X124031280Y-110439500D01*
X123761662Y-110439500D01*
X123761657Y-110439500D01*
X123493751Y-110469686D01*
X123493739Y-110469688D01*
X123230876Y-110529684D01*
X123230868Y-110529687D01*
X122976388Y-110618734D01*
X122733476Y-110735714D01*
X122505183Y-110879161D01*
X122294386Y-111047265D01*
X122103736Y-111237915D01*
X122071446Y-111278406D01*
X122014257Y-111318546D01*
X121944446Y-111321396D01*
X121884176Y-111286050D01*
X121852583Y-111223731D01*
X121850499Y-111201093D01*
X121850499Y-105192625D01*
X121870184Y-105125586D01*
X121922988Y-105079831D01*
X121992146Y-105069887D01*
X122055702Y-105098912D01*
X122062180Y-105104944D01*
X122383181Y-105425945D01*
X122416666Y-105487268D01*
X122419500Y-105513626D01*
X122419500Y-105584801D01*
X122419499Y-105584819D01*
X122419499Y-105750525D01*
X122419498Y-105750525D01*
X122419499Y-105750528D01*
X122460423Y-105903256D01*
X122460424Y-105903258D01*
X122460423Y-105903258D01*
X122477651Y-105933096D01*
X122477653Y-105933098D01*
X122477654Y-105933100D01*
X122504870Y-105980240D01*
X122539479Y-106040186D01*
X122613180Y-106113887D01*
X122646665Y-106175210D01*
X122648134Y-106183219D01*
X122649499Y-106192341D01*
X122649499Y-106263371D01*
X122673565Y-106353186D01*
X122674606Y-106360141D01*
X122674068Y-106364037D01*
X122675971Y-106378490D01*
X122675971Y-106743329D01*
X122675970Y-106743347D01*
X122675970Y-106909053D01*
X122675969Y-106909053D01*
X122716894Y-107061785D01*
X122732709Y-107089175D01*
X122732712Y-107089180D01*
X122795318Y-107197620D01*
X122811789Y-107265521D01*
X122809549Y-107283801D01*
X122807736Y-107292916D01*
X122807736Y-107450610D01*
X122838497Y-107605253D01*
X122838500Y-107605265D01*
X122898838Y-107750936D01*
X122898845Y-107750949D01*
X122986446Y-107882052D01*
X122986449Y-107882056D01*
X123097943Y-107993550D01*
X123097947Y-107993553D01*
X123229050Y-108081154D01*
X123229063Y-108081161D01*
X123298053Y-108109737D01*
X123374739Y-108141501D01*
X123526981Y-108171784D01*
X123529389Y-108172263D01*
X123529392Y-108172264D01*
X123529394Y-108172264D01*
X123687080Y-108172264D01*
X123687081Y-108172263D01*
X123841733Y-108141501D01*
X123987415Y-108081158D01*
X124118525Y-107993553D01*
X124118529Y-107993548D01*
X124123235Y-107989688D01*
X124124366Y-107991066D01*
X124178289Y-107961610D01*
X124247982Y-107966581D01*
X124303923Y-108008443D01*
X124324442Y-108050674D01*
X124337252Y-108098478D01*
X124356894Y-108171785D01*
X124356897Y-108171790D01*
X124435946Y-108308709D01*
X124435950Y-108308714D01*
X124435951Y-108308716D01*
X124547755Y-108420520D01*
X124675580Y-108494319D01*
X124701258Y-108514023D01*
X125093111Y-108905877D01*
X125108809Y-108925083D01*
X125115415Y-108935057D01*
X125123773Y-108955233D01*
X125160375Y-109002934D01*
X125162753Y-109006524D01*
X125171838Y-109035955D01*
X125182944Y-109064682D01*
X125182050Y-109069037D01*
X125183362Y-109073285D01*
X125175095Y-109102949D01*
X125168906Y-109133127D01*
X125164985Y-109139226D01*
X125164606Y-109140590D01*
X125163444Y-109141624D01*
X125157751Y-109150484D01*
X125123772Y-109194767D01*
X125065784Y-109334763D01*
X125065784Y-109334764D01*
X125050971Y-109447272D01*
X125050971Y-109972727D01*
X125065784Y-110085235D01*
X125065784Y-110085236D01*
X125118446Y-110212374D01*
X125123773Y-110225233D01*
X125216020Y-110345451D01*
X125336238Y-110437698D01*
X125476235Y-110495687D01*
X125588751Y-110510500D01*
X126760597Y-110510500D01*
X126827636Y-110530185D01*
X126873391Y-110582989D01*
X126883335Y-110652147D01*
X126854310Y-110715703D01*
X126848278Y-110722181D01*
X126843503Y-110726955D01*
X126843500Y-110726959D01*
X126754472Y-110871294D01*
X126754467Y-110871305D01*
X126701122Y-111032290D01*
X126690971Y-111131647D01*
X126690971Y-111728337D01*
X126690972Y-111728355D01*
X126701121Y-111827707D01*
X126701122Y-111827710D01*
X126754467Y-111988694D01*
X126754472Y-111988705D01*
X126843500Y-112133040D01*
X126843503Y-112133044D01*
X126963426Y-112252967D01*
X126963430Y-112252970D01*
X127107765Y-112341998D01*
X127107768Y-112341999D01*
X127107774Y-112342003D01*
X127268763Y-112395349D01*
X127368126Y-112405500D01*
X127716373Y-112405499D01*
X127783412Y-112425183D01*
X127804054Y-112441818D01*
X127961610Y-112599374D01*
X127961620Y-112599385D01*
X127965950Y-112603715D01*
X127965951Y-112603716D01*
X128077755Y-112715520D01*
X128162914Y-112764686D01*
X128214686Y-112794577D01*
X128367414Y-112835501D01*
X128367417Y-112835501D01*
X128533124Y-112835501D01*
X128533140Y-112835500D01*
X131519802Y-112835500D01*
X131519818Y-112835501D01*
X131527414Y-112835501D01*
X131685525Y-112835501D01*
X131685528Y-112835501D01*
X131838256Y-112794577D01*
X131890028Y-112764686D01*
X131975187Y-112715520D01*
X132086991Y-112603716D01*
X132086991Y-112603714D01*
X132097196Y-112593510D01*
X132097198Y-112593506D01*
X132218888Y-112471818D01*
X132280212Y-112438334D01*
X132306569Y-112435500D01*
X132456374Y-112435500D01*
X132523413Y-112455185D01*
X132544054Y-112471818D01*
X133752755Y-113680520D01*
X133752757Y-113680521D01*
X133752761Y-113680524D01*
X133889680Y-113759573D01*
X133889683Y-113759575D01*
X133889687Y-113759577D01*
X134042414Y-113800501D01*
X134042416Y-113800501D01*
X134208125Y-113800501D01*
X134208141Y-113800500D01*
X141029802Y-113800500D01*
X141029818Y-113800501D01*
X141037414Y-113800501D01*
X141195525Y-113800501D01*
X141195528Y-113800501D01*
X141348256Y-113759577D01*
X141348258Y-113759575D01*
X141348260Y-113759575D01*
X141348261Y-113759574D01*
X141399499Y-113729992D01*
X141399500Y-113729991D01*
X141485187Y-113680520D01*
X141596991Y-113568716D01*
X141596991Y-113568714D01*
X141607195Y-113558511D01*
X141607199Y-113558506D01*
X141829975Y-113335730D01*
X141829978Y-113335728D01*
X141840185Y-113325520D01*
X141840187Y-113325520D01*
X141951991Y-113213716D01*
X142020316Y-113095373D01*
X142028112Y-113081869D01*
X142078676Y-113033655D01*
X142147282Y-113020429D01*
X142212148Y-113046394D01*
X142252679Y-113103307D01*
X142259500Y-113143868D01*
X142259500Y-113464471D01*
X142259499Y-113622586D01*
X142288279Y-113729991D01*
X142296340Y-113760076D01*
X142300422Y-113775311D01*
X142300426Y-113775319D01*
X142379475Y-113912238D01*
X142379481Y-113912246D01*
X142508720Y-114041485D01*
X142508726Y-114041490D01*
X142723879Y-114256644D01*
X142723882Y-114256648D01*
X142730950Y-114263716D01*
X142842754Y-114375520D01*
X142842755Y-114375521D01*
X142842757Y-114375522D01*
X142899271Y-114408150D01*
X142942995Y-114433394D01*
X142971025Y-114449577D01*
X142979686Y-114454577D01*
X142979688Y-114454577D01*
X142979689Y-114454578D01*
X143005513Y-114461497D01*
X143066617Y-114477870D01*
X143132412Y-114495500D01*
X143132413Y-114495500D01*
X149807212Y-114495500D01*
X149807228Y-114495501D01*
X149814824Y-114495501D01*
X149972935Y-114495501D01*
X149972938Y-114495501D01*
X150125666Y-114454577D01*
X150175785Y-114425639D01*
X150262597Y-114375520D01*
X150374401Y-114263716D01*
X150374401Y-114263714D01*
X150384609Y-114253507D01*
X150384610Y-114253504D01*
X151091991Y-113546126D01*
X151171048Y-113409194D01*
X151211972Y-113256467D01*
X151211972Y-113098352D01*
X151211972Y-113090757D01*
X151211971Y-113090739D01*
X151211971Y-111149500D01*
X151231656Y-111082461D01*
X151284460Y-111036706D01*
X151335971Y-111025500D01*
X152844184Y-111025500D01*
X152844191Y-111025500D01*
X152956707Y-111010687D01*
X153096704Y-110952698D01*
X153216922Y-110860451D01*
X153309169Y-110740233D01*
X153367158Y-110600236D01*
X153377829Y-110519179D01*
X153406095Y-110455283D01*
X153464420Y-110416812D01*
X153534284Y-110415981D01*
X153588449Y-110447684D01*
X154716661Y-111575896D01*
X154750146Y-111637219D01*
X154745162Y-111706911D01*
X154703290Y-111762844D01*
X154678094Y-111777436D01*
X154669798Y-111781014D01*
X154634686Y-111790423D01*
X154601644Y-111809500D01*
X154595391Y-111813110D01*
X154595382Y-111813114D01*
X154497761Y-111869475D01*
X154497753Y-111869481D01*
X153633304Y-112733930D01*
X153633298Y-112733938D01*
X153588560Y-112811428D01*
X153588558Y-112811432D01*
X153583445Y-112820289D01*
X153554246Y-112870863D01*
X153524261Y-112982763D01*
X153522141Y-112988415D01*
X153504628Y-113011711D01*
X153489456Y-113036602D01*
X153483881Y-113039310D01*
X153480157Y-113044264D01*
X153452823Y-113054396D01*
X153426609Y-113067130D01*
X153420456Y-113066394D01*
X153414644Y-113068549D01*
X153386173Y-113062295D01*
X153357233Y-113058835D01*
X153348252Y-113053965D01*
X153346401Y-113053559D01*
X153345107Y-113052260D01*
X153337156Y-113047949D01*
X153294479Y-113019433D01*
X153294467Y-113019426D01*
X153148796Y-112959088D01*
X153148784Y-112959085D01*
X152994140Y-112928324D01*
X152994137Y-112928324D01*
X152836453Y-112928324D01*
X152836450Y-112928324D01*
X152681805Y-112959085D01*
X152681793Y-112959088D01*
X152536122Y-113019426D01*
X152536109Y-113019433D01*
X152405006Y-113107034D01*
X152405002Y-113107037D01*
X152293508Y-113218531D01*
X152293505Y-113218535D01*
X152205904Y-113349638D01*
X152205897Y-113349651D01*
X152145559Y-113495322D01*
X152145556Y-113495334D01*
X152114795Y-113649977D01*
X152114795Y-113807670D01*
X152145556Y-113962313D01*
X152145559Y-113962325D01*
X152205897Y-114107996D01*
X152205904Y-114108009D01*
X152293505Y-114239112D01*
X152293508Y-114239116D01*
X152405002Y-114350610D01*
X152405006Y-114350613D01*
X152536109Y-114438214D01*
X152536122Y-114438221D01*
X152681793Y-114498559D01*
X152681798Y-114498561D01*
X152836448Y-114529323D01*
X152836451Y-114529324D01*
X152836453Y-114529324D01*
X152994139Y-114529324D01*
X152994140Y-114529323D01*
X153148792Y-114498561D01*
X153148804Y-114498555D01*
X153154619Y-114496793D01*
X153154997Y-114498041D01*
X153192918Y-114490500D01*
X153839802Y-114490500D01*
X153839818Y-114490501D01*
X153847414Y-114490501D01*
X154005525Y-114490501D01*
X154005528Y-114490501D01*
X154158256Y-114449577D01*
X154230004Y-114408153D01*
X154295187Y-114370520D01*
X154406991Y-114258716D01*
X154406991Y-114258715D01*
X154424424Y-114241282D01*
X154424433Y-114241272D01*
X154594340Y-114071367D01*
X154594340Y-114071366D01*
X154594343Y-114071364D01*
X154673400Y-113934432D01*
X154714324Y-113781705D01*
X154714324Y-113623590D01*
X154714324Y-113615995D01*
X154714323Y-113615977D01*
X154714323Y-113402744D01*
X154734008Y-113335705D01*
X154750633Y-113315072D01*
X154848410Y-113217295D01*
X154909728Y-113183813D01*
X154979420Y-113188797D01*
X155000230Y-113198858D01*
X155115394Y-113268478D01*
X155277804Y-113319086D01*
X155348384Y-113325500D01*
X155348387Y-113325500D01*
X155861613Y-113325500D01*
X155861616Y-113325500D01*
X155932196Y-113319086D01*
X156094606Y-113268478D01*
X156240185Y-113180472D01*
X156342319Y-113078337D01*
X156403640Y-113044853D01*
X156473331Y-113049837D01*
X156517680Y-113078338D01*
X156619811Y-113180469D01*
X156619813Y-113180470D01*
X156619815Y-113180472D01*
X156765394Y-113268478D01*
X156927804Y-113319086D01*
X156998384Y-113325500D01*
X156998387Y-113325500D01*
X157511613Y-113325500D01*
X157511616Y-113325500D01*
X157582196Y-113319086D01*
X157744606Y-113268478D01*
X157890185Y-113180472D01*
X158010472Y-113060185D01*
X158011676Y-113058192D01*
X158012937Y-113057037D01*
X158015094Y-113054285D01*
X158015551Y-113054643D01*
X158063202Y-113011006D01*
X158132061Y-112999166D01*
X158196390Y-113026433D01*
X158205474Y-113034661D01*
X158241282Y-113070469D01*
X158241284Y-113070470D01*
X158241286Y-113070472D01*
X158386865Y-113158478D01*
X158549275Y-113209086D01*
X158619855Y-113215500D01*
X158619858Y-113215500D01*
X159133084Y-113215500D01*
X159133087Y-113215500D01*
X159203667Y-113209086D01*
X159366077Y-113158478D01*
X159511656Y-113070472D01*
X159614144Y-112967983D01*
X159675465Y-112934499D01*
X159745156Y-112939483D01*
X159789505Y-112967984D01*
X159891593Y-113070072D01*
X160037075Y-113158019D01*
X160037074Y-113158019D01*
X160199365Y-113208590D01*
X160199364Y-113208590D01*
X160269879Y-113214998D01*
X160269897Y-113214999D01*
X160776471Y-113214999D01*
X160783052Y-113214999D01*
X160853573Y-113208591D01*
X160853578Y-113208590D01*
X161015867Y-113158018D01*
X161161348Y-113070072D01*
X161281543Y-112949877D01*
X161369490Y-112804395D01*
X161420061Y-112642106D01*
X161426471Y-112571572D01*
X161426471Y-112490000D01*
X160776471Y-112490000D01*
X160776471Y-113214999D01*
X160269897Y-113214999D01*
X160276470Y-113214998D01*
X160276471Y-113214998D01*
X160276471Y-111990000D01*
X160776471Y-111990000D01*
X161426470Y-111990000D01*
X161426470Y-111908417D01*
X161420062Y-111837897D01*
X161420061Y-111837892D01*
X161369489Y-111675603D01*
X161281543Y-111530122D01*
X161161348Y-111409927D01*
X161015866Y-111321980D01*
X161015867Y-111321980D01*
X160853576Y-111271409D01*
X160853577Y-111271409D01*
X160783043Y-111265000D01*
X160776471Y-111265000D01*
X160776471Y-111990000D01*
X160276471Y-111990000D01*
X160276471Y-111265000D01*
X160276470Y-111264999D01*
X160269907Y-111265000D01*
X160269888Y-111265001D01*
X160199368Y-111271408D01*
X160199359Y-111271409D01*
X160065079Y-111313253D01*
X159995219Y-111314404D01*
X159935826Y-111277603D01*
X159905758Y-111214535D01*
X159910483Y-111155864D01*
X159951326Y-111032606D01*
X159961470Y-110933322D01*
X159961471Y-110933309D01*
X159961471Y-110910000D01*
X159110471Y-110910000D01*
X159043432Y-110890315D01*
X158997677Y-110837511D01*
X158986471Y-110786000D01*
X158986471Y-110634500D01*
X159006156Y-110567461D01*
X159058960Y-110521706D01*
X159110471Y-110510500D01*
X159323498Y-110510500D01*
X159323514Y-110510501D01*
X159331110Y-110510501D01*
X159489221Y-110510501D01*
X159489224Y-110510501D01*
X159641952Y-110469577D01*
X159694046Y-110439500D01*
X159716371Y-110426611D01*
X159778367Y-110410000D01*
X159961470Y-110410000D01*
X159961470Y-110386692D01*
X159961469Y-110386677D01*
X159950890Y-110283116D01*
X159963660Y-110214423D01*
X159986564Y-110182836D01*
X160119977Y-110049424D01*
X160119982Y-110049420D01*
X160130185Y-110039216D01*
X160130187Y-110039216D01*
X160241991Y-109927412D01*
X160312856Y-109804669D01*
X160321048Y-109790481D01*
X160361972Y-109637753D01*
X160361972Y-109479639D01*
X160361972Y-109472044D01*
X160361971Y-109472026D01*
X160361971Y-106534059D01*
X160361972Y-106534046D01*
X160361972Y-106365945D01*
X160361972Y-106365943D01*
X160321048Y-106213215D01*
X160281190Y-106144179D01*
X160241991Y-106076284D01*
X160177679Y-106011972D01*
X160172832Y-106005696D01*
X160162899Y-105980240D01*
X160149805Y-105956260D01*
X160148383Y-105943039D01*
X160147434Y-105940606D01*
X160147882Y-105938382D01*
X160146971Y-105929902D01*
X160146971Y-103059765D01*
X160166656Y-102992726D01*
X160167869Y-102990874D01*
X160170416Y-102987063D01*
X160255865Y-102859179D01*
X160316208Y-102713497D01*
X160346971Y-102558842D01*
X160346971Y-102401158D01*
X160346971Y-102401155D01*
X160346970Y-102401153D01*
X160343342Y-102382912D01*
X160316208Y-102246503D01*
X160310514Y-102232756D01*
X160255868Y-102100827D01*
X160255861Y-102100814D01*
X160168260Y-101969711D01*
X160168257Y-101969707D01*
X160056763Y-101858213D01*
X160056759Y-101858210D01*
X159925656Y-101770609D01*
X159925643Y-101770602D01*
X159779972Y-101710264D01*
X159779962Y-101710261D01*
X159646779Y-101683769D01*
X159584868Y-101651384D01*
X159550294Y-101590668D01*
X159547011Y-101565300D01*
X159546971Y-101563724D01*
X159546971Y-101375906D01*
X159543577Y-101358843D01*
X159541503Y-101348416D01*
X159541503Y-101348413D01*
X159523747Y-101259147D01*
X159516209Y-101221251D01*
X159455865Y-101075569D01*
X159455863Y-101075566D01*
X159455861Y-101075562D01*
X159368260Y-100944459D01*
X159368257Y-100944455D01*
X158242014Y-99818213D01*
X158208529Y-99756890D01*
X158207529Y-99751151D01*
X158207158Y-99749769D01*
X158207158Y-99749764D01*
X158149169Y-99609767D01*
X158115191Y-99565486D01*
X158089997Y-99500317D01*
X158104035Y-99431872D01*
X158115191Y-99414514D01*
X158121069Y-99406853D01*
X158149169Y-99370233D01*
X158207158Y-99230236D01*
X158221971Y-99117720D01*
X158221971Y-98667506D01*
X158241656Y-98600467D01*
X158258285Y-98579830D01*
X160695184Y-96142931D01*
X160695187Y-96142930D01*
X160795577Y-96042539D01*
X160856896Y-96009057D01*
X160856898Y-96009057D01*
X160866866Y-96009770D01*
X160926588Y-96014041D01*
X160930707Y-96015662D01*
X161012969Y-96049735D01*
X161012974Y-96049737D01*
X161167624Y-96080499D01*
X161167627Y-96080500D01*
X161167629Y-96080500D01*
X161325315Y-96080500D01*
X161325316Y-96080499D01*
X161479968Y-96049737D01*
X161625650Y-95989394D01*
X161756760Y-95901789D01*
X161868260Y-95790289D01*
X161955865Y-95659179D01*
X162016208Y-95513497D01*
X162046971Y-95358842D01*
X162046971Y-95201158D01*
X162046971Y-95201155D01*
X162046970Y-95201153D01*
X162044809Y-95190288D01*
X162016208Y-95046503D01*
X162006347Y-95022696D01*
X161955868Y-94900827D01*
X161955861Y-94900814D01*
X161867869Y-94769125D01*
X161846991Y-94702447D01*
X161846971Y-94700234D01*
X161846971Y-92980097D01*
X161866656Y-92913058D01*
X161883290Y-92892416D01*
X163574553Y-91201153D01*
X164639500Y-91201153D01*
X164639500Y-91358846D01*
X164670261Y-91513489D01*
X164670264Y-91513501D01*
X164730602Y-91659172D01*
X164730609Y-91659185D01*
X164818210Y-91790288D01*
X164818213Y-91790292D01*
X164929707Y-91901786D01*
X164929711Y-91901789D01*
X165060814Y-91989390D01*
X165060827Y-91989397D01*
X165194439Y-92044740D01*
X165206503Y-92049737D01*
X165361153Y-92080499D01*
X165361156Y-92080500D01*
X165361158Y-92080500D01*
X165518844Y-92080500D01*
X165518845Y-92080499D01*
X165673497Y-92049737D01*
X165819179Y-91989394D01*
X165950289Y-91901789D01*
X166061789Y-91790289D01*
X166149394Y-91659179D01*
X166209737Y-91513497D01*
X166240500Y-91358842D01*
X166240500Y-91201158D01*
X166240500Y-91201155D01*
X166240499Y-91201153D01*
X166234360Y-91170289D01*
X166209737Y-91046503D01*
X166206703Y-91039179D01*
X166149397Y-90900827D01*
X166149390Y-90900814D01*
X166061789Y-90769711D01*
X166061786Y-90769707D01*
X165950292Y-90658213D01*
X165950288Y-90658210D01*
X165819185Y-90570609D01*
X165819172Y-90570602D01*
X165673501Y-90510264D01*
X165673489Y-90510261D01*
X165518845Y-90479500D01*
X165518842Y-90479500D01*
X165361158Y-90479500D01*
X165361155Y-90479500D01*
X165206510Y-90510261D01*
X165206498Y-90510264D01*
X165060827Y-90570602D01*
X165060814Y-90570609D01*
X164929711Y-90658210D01*
X164929707Y-90658213D01*
X164818213Y-90769707D01*
X164818210Y-90769711D01*
X164730609Y-90900814D01*
X164730602Y-90900827D01*
X164670264Y-91046498D01*
X164670261Y-91046510D01*
X164639500Y-91201153D01*
X163574553Y-91201153D01*
X164434803Y-90340903D01*
X166944292Y-87831414D01*
X167005613Y-87797931D01*
X167075305Y-87802915D01*
X167131238Y-87844787D01*
X167155655Y-87910251D01*
X167155971Y-87919097D01*
X167155971Y-94719985D01*
X167136286Y-94787024D01*
X167083482Y-94832779D01*
X167031971Y-94843985D01*
X166905640Y-94843985D01*
X166750995Y-94874746D01*
X166750983Y-94874749D01*
X166605312Y-94935087D01*
X166605299Y-94935094D01*
X166474196Y-95022695D01*
X166474192Y-95022698D01*
X166362698Y-95134192D01*
X166362695Y-95134196D01*
X166275094Y-95265299D01*
X166275087Y-95265312D01*
X166214749Y-95410983D01*
X166214746Y-95410995D01*
X166183985Y-95565638D01*
X166183985Y-95723331D01*
X166214746Y-95877974D01*
X166214749Y-95877986D01*
X166275088Y-96023659D01*
X166275090Y-96023662D01*
X166275091Y-96023664D01*
X166287705Y-96042542D01*
X166291457Y-96048157D01*
X166312334Y-96114835D01*
X166293849Y-96182215D01*
X166276035Y-96204728D01*
X163125339Y-99355425D01*
X163064016Y-99388910D01*
X163061850Y-99389361D01*
X162906508Y-99420261D01*
X162906498Y-99420264D01*
X162760827Y-99480602D01*
X162760814Y-99480609D01*
X162629711Y-99568210D01*
X162629707Y-99568213D01*
X162518213Y-99679707D01*
X162518210Y-99679711D01*
X162430609Y-99810814D01*
X162430602Y-99810827D01*
X162370264Y-99956498D01*
X162370261Y-99956510D01*
X162339500Y-100111153D01*
X162339500Y-100268846D01*
X162370261Y-100423489D01*
X162370264Y-100423501D01*
X162430602Y-100569172D01*
X162430609Y-100569185D01*
X162518210Y-100700288D01*
X162518213Y-100700292D01*
X162629707Y-100811786D01*
X162629711Y-100811789D01*
X162760814Y-100899390D01*
X162760827Y-100899397D01*
X162906498Y-100959735D01*
X162906503Y-100959737D01*
X163061153Y-100990499D01*
X163061156Y-100990500D01*
X163061158Y-100990500D01*
X163218844Y-100990500D01*
X163218845Y-100990499D01*
X163373497Y-100959737D01*
X163519179Y-100899394D01*
X163650289Y-100811789D01*
X163761789Y-100700289D01*
X163849394Y-100569179D01*
X163909737Y-100423497D01*
X163934051Y-100301265D01*
X163940638Y-100268150D01*
X163973023Y-100206239D01*
X163974518Y-100204716D01*
X166944290Y-97234945D01*
X167005613Y-97201460D01*
X167075305Y-97206444D01*
X167131238Y-97248316D01*
X167155655Y-97313780D01*
X167155971Y-97322626D01*
X167155971Y-100249903D01*
X167136286Y-100316942D01*
X167119652Y-100337584D01*
X162351810Y-105105425D01*
X162290487Y-105138910D01*
X162288321Y-105139361D01*
X162132979Y-105170261D01*
X162132969Y-105170264D01*
X161987298Y-105230602D01*
X161987285Y-105230609D01*
X161856182Y-105318210D01*
X161856178Y-105318213D01*
X161744684Y-105429707D01*
X161744681Y-105429711D01*
X161657080Y-105560814D01*
X161657073Y-105560827D01*
X161596735Y-105706498D01*
X161596732Y-105706510D01*
X161565971Y-105861153D01*
X161565971Y-106018846D01*
X161596732Y-106173489D01*
X161596735Y-106173501D01*
X161657073Y-106319172D01*
X161657080Y-106319185D01*
X161744681Y-106450288D01*
X161744684Y-106450292D01*
X161856178Y-106561786D01*
X161856182Y-106561789D01*
X161987285Y-106649390D01*
X161987298Y-106649397D01*
X162132969Y-106709735D01*
X162132974Y-106709737D01*
X162287624Y-106740499D01*
X162287627Y-106740500D01*
X162287629Y-106740500D01*
X162445315Y-106740500D01*
X162445316Y-106740499D01*
X162599968Y-106709737D01*
X162745650Y-106649394D01*
X162876760Y-106561789D01*
X162988260Y-106450289D01*
X163075865Y-106319179D01*
X163136208Y-106173497D01*
X163162725Y-106040187D01*
X163167109Y-106018150D01*
X163199494Y-105956239D01*
X163200989Y-105954716D01*
X168114977Y-101040727D01*
X168114982Y-101040724D01*
X168125185Y-101030520D01*
X168125187Y-101030520D01*
X168236991Y-100918716D01*
X168300499Y-100808716D01*
X168316048Y-100781785D01*
X168356971Y-100629057D01*
X168356971Y-100470943D01*
X168356971Y-92781153D01*
X169995971Y-92781153D01*
X169995971Y-92938846D01*
X170026732Y-93093489D01*
X170026735Y-93093501D01*
X170087073Y-93239172D01*
X170087080Y-93239185D01*
X170174681Y-93370288D01*
X170174684Y-93370292D01*
X170286178Y-93481786D01*
X170286182Y-93481789D01*
X170417285Y-93569390D01*
X170417298Y-93569397D01*
X170562969Y-93629735D01*
X170562974Y-93629737D01*
X170688647Y-93654735D01*
X170717624Y-93660499D01*
X170717627Y-93660500D01*
X170717629Y-93660500D01*
X170875315Y-93660500D01*
X170875316Y-93660499D01*
X171029968Y-93629737D01*
X171175650Y-93569394D01*
X171211976Y-93545122D01*
X171307346Y-93481398D01*
X171374024Y-93460520D01*
X171376237Y-93460500D01*
X171871867Y-93460500D01*
X171919315Y-93469937D01*
X171942974Y-93479737D01*
X171942979Y-93479738D01*
X171942982Y-93479739D01*
X172097624Y-93510499D01*
X172097627Y-93510500D01*
X172097629Y-93510500D01*
X172255315Y-93510500D01*
X172255316Y-93510499D01*
X172409968Y-93479737D01*
X172555650Y-93419394D01*
X172686760Y-93331789D01*
X172798260Y-93220289D01*
X172885865Y-93089179D01*
X172946208Y-92943497D01*
X172976971Y-92788842D01*
X172976971Y-92631158D01*
X172976971Y-92631155D01*
X172976970Y-92631153D01*
X172966007Y-92576037D01*
X172946208Y-92476503D01*
X172946206Y-92476498D01*
X172885868Y-92330827D01*
X172885861Y-92330814D01*
X172798260Y-92199711D01*
X172798257Y-92199707D01*
X172686763Y-92088213D01*
X172686759Y-92088210D01*
X172555656Y-92000609D01*
X172555643Y-92000602D01*
X172409972Y-91940264D01*
X172409960Y-91940261D01*
X172255316Y-91909500D01*
X172255313Y-91909500D01*
X172097629Y-91909500D01*
X172097626Y-91909500D01*
X171942981Y-91940261D01*
X171942969Y-91940264D01*
X171797298Y-92000602D01*
X171797285Y-92000609D01*
X171666182Y-92088210D01*
X171666178Y-92088213D01*
X171554682Y-92199709D01*
X171551557Y-92204388D01*
X171497946Y-92249194D01*
X171448453Y-92259500D01*
X171376237Y-92259500D01*
X171309198Y-92239815D01*
X171307346Y-92238602D01*
X171175656Y-92150609D01*
X171175643Y-92150602D01*
X171029972Y-92090264D01*
X171029960Y-92090261D01*
X170875316Y-92059500D01*
X170875313Y-92059500D01*
X170717629Y-92059500D01*
X170717626Y-92059500D01*
X170562981Y-92090261D01*
X170562969Y-92090264D01*
X170417298Y-92150602D01*
X170417285Y-92150609D01*
X170286182Y-92238210D01*
X170286178Y-92238213D01*
X170174684Y-92349707D01*
X170174681Y-92349711D01*
X170087080Y-92480814D01*
X170087073Y-92480827D01*
X170026735Y-92626498D01*
X170026732Y-92626510D01*
X169995971Y-92781153D01*
X168356971Y-92781153D01*
X168356971Y-85599765D01*
X168376656Y-85532726D01*
X168377869Y-85530874D01*
X168391036Y-85511169D01*
X168465865Y-85399179D01*
X168526208Y-85253497D01*
X168556971Y-85098842D01*
X168556971Y-84941158D01*
X168556971Y-84941155D01*
X168556970Y-84941153D01*
X168531976Y-84815500D01*
X168526208Y-84786503D01*
X168511918Y-84752003D01*
X168465868Y-84640827D01*
X168465861Y-84640814D01*
X168378260Y-84509711D01*
X168378257Y-84509707D01*
X168266763Y-84398213D01*
X168266759Y-84398210D01*
X168135656Y-84310609D01*
X168135643Y-84310602D01*
X167989972Y-84250264D01*
X167989960Y-84250261D01*
X167835316Y-84219500D01*
X167835313Y-84219500D01*
X167677629Y-84219500D01*
X167646282Y-84225735D01*
X167573295Y-84240253D01*
X167503703Y-84234025D01*
X167448526Y-84191161D01*
X167431459Y-84148146D01*
X167429071Y-84148786D01*
X167425263Y-84134566D01*
X167425263Y-84134565D01*
X167398412Y-84034359D01*
X167386048Y-83988215D01*
X167380834Y-83979185D01*
X167337714Y-83904499D01*
X167337713Y-83904497D01*
X167306992Y-83851286D01*
X167306991Y-83851284D01*
X167195187Y-83739480D01*
X167195186Y-83739479D01*
X167190856Y-83735149D01*
X167190845Y-83735139D01*
X166241045Y-82785339D01*
X166207560Y-82724016D01*
X166207109Y-82721849D01*
X166176209Y-82566510D01*
X166176208Y-82566503D01*
X166165015Y-82539480D01*
X166115868Y-82420827D01*
X166115861Y-82420814D01*
X166028260Y-82289711D01*
X166028257Y-82289707D01*
X165916763Y-82178213D01*
X165916759Y-82178210D01*
X165785656Y-82090609D01*
X165785643Y-82090602D01*
X165639972Y-82030264D01*
X165639960Y-82030261D01*
X165485316Y-81999500D01*
X165485313Y-81999500D01*
X165327629Y-81999500D01*
X165327626Y-81999500D01*
X165172981Y-82030261D01*
X165172969Y-82030264D01*
X165027298Y-82090602D01*
X165027285Y-82090609D01*
X164896182Y-82178210D01*
X164896178Y-82178213D01*
X164784684Y-82289707D01*
X164784681Y-82289711D01*
X164697080Y-82420814D01*
X164697073Y-82420827D01*
X164636735Y-82566498D01*
X164636732Y-82566510D01*
X164605971Y-82721153D01*
X164605971Y-82770903D01*
X164586286Y-82837942D01*
X164533482Y-82883697D01*
X164464324Y-82893641D01*
X164400768Y-82864616D01*
X164394290Y-82858584D01*
X162579809Y-81044103D01*
X162546324Y-80982780D01*
X162551308Y-80913088D01*
X162579809Y-80868741D01*
X162678257Y-80770292D01*
X162678260Y-80770289D01*
X162765865Y-80639179D01*
X162826208Y-80493497D01*
X162856971Y-80338842D01*
X162856971Y-80181158D01*
X162856971Y-80181155D01*
X162856970Y-80181153D01*
X162852922Y-80160801D01*
X162826208Y-80026503D01*
X162787684Y-79933497D01*
X162765868Y-79880827D01*
X162765861Y-79880814D01*
X162678260Y-79749711D01*
X162678257Y-79749707D01*
X162566763Y-79638213D01*
X162566759Y-79638210D01*
X162435656Y-79550609D01*
X162435643Y-79550602D01*
X162289972Y-79490264D01*
X162289960Y-79490261D01*
X162135316Y-79459500D01*
X162135313Y-79459500D01*
X161977629Y-79459500D01*
X161977626Y-79459500D01*
X161822981Y-79490261D01*
X161822969Y-79490264D01*
X161677298Y-79550602D01*
X161677285Y-79550609D01*
X161546182Y-79638210D01*
X161546178Y-79638213D01*
X161434684Y-79749707D01*
X161434681Y-79749711D01*
X161347080Y-79880814D01*
X161347073Y-79880827D01*
X161286735Y-80026498D01*
X161286732Y-80026510D01*
X161255971Y-80181153D01*
X161255971Y-80192664D01*
X161239363Y-80254656D01*
X161233929Y-80264069D01*
X161196894Y-80328215D01*
X161155970Y-80480943D01*
X161155970Y-80480945D01*
X161155970Y-80649046D01*
X161155971Y-80649059D01*
X161155971Y-80983330D01*
X161155970Y-80983348D01*
X161155970Y-81149054D01*
X161155969Y-81149054D01*
X161196894Y-81301786D01*
X161196895Y-81301787D01*
X161215887Y-81334682D01*
X161275292Y-81437575D01*
X161275952Y-81438717D01*
X161394820Y-81557585D01*
X161394826Y-81557590D01*
X162502730Y-82665495D01*
X162536215Y-82726818D01*
X162531231Y-82796510D01*
X162489359Y-82852443D01*
X162462502Y-82867737D01*
X162407295Y-82890604D01*
X162407285Y-82890609D01*
X162276182Y-82978210D01*
X162276178Y-82978213D01*
X162164684Y-83089707D01*
X162164681Y-83089711D01*
X162077080Y-83220814D01*
X162077073Y-83220827D01*
X162016735Y-83366498D01*
X162016732Y-83366508D01*
X161985832Y-83521850D01*
X161953447Y-83583761D01*
X161951896Y-83585339D01*
X159643608Y-85893626D01*
X159582285Y-85927111D01*
X159551404Y-85928906D01*
X159551404Y-85929500D01*
X159387626Y-85929500D01*
X159232981Y-85960261D01*
X159232969Y-85960264D01*
X159087298Y-86020602D01*
X159087285Y-86020609D01*
X158956182Y-86108210D01*
X158956178Y-86108213D01*
X158844684Y-86219707D01*
X158844681Y-86219711D01*
X158757080Y-86350814D01*
X158757073Y-86350827D01*
X158696735Y-86496498D01*
X158696732Y-86496510D01*
X158665971Y-86651153D01*
X158665971Y-86808846D01*
X158696732Y-86963489D01*
X158696735Y-86963501D01*
X158746611Y-87083914D01*
X158754080Y-87153384D01*
X158735156Y-87200250D01*
X158727591Y-87211573D01*
X158727579Y-87211594D01*
X158667241Y-87357264D01*
X158667238Y-87357276D01*
X158636477Y-87511919D01*
X158636477Y-87669612D01*
X158667238Y-87824255D01*
X158667241Y-87824267D01*
X158727579Y-87969938D01*
X158727586Y-87969951D01*
X158815187Y-88101054D01*
X158815190Y-88101058D01*
X158926684Y-88212552D01*
X158926688Y-88212555D01*
X159057791Y-88300156D01*
X159057804Y-88300163D01*
X159083820Y-88310939D01*
X159138224Y-88354779D01*
X159160289Y-88421073D01*
X159143010Y-88488773D01*
X159091873Y-88536384D01*
X159036368Y-88549500D01*
X154299441Y-88549500D01*
X154291835Y-88549499D01*
X154291833Y-88549499D01*
X154270260Y-88549499D01*
X154230890Y-88537937D01*
X154203225Y-88529814D01*
X154203223Y-88529812D01*
X154203221Y-88529812D01*
X154203217Y-88529807D01*
X154182583Y-88513180D01*
X153998878Y-88329475D01*
X153803172Y-88133770D01*
X153769688Y-88072448D01*
X153774672Y-88002757D01*
X153806078Y-87959673D01*
X153804091Y-87957686D01*
X153818430Y-87943345D01*
X153879750Y-87909856D01*
X153949442Y-87914835D01*
X153993798Y-87943339D01*
X154003426Y-87952967D01*
X154003430Y-87952970D01*
X154147765Y-88041998D01*
X154147768Y-88041999D01*
X154147774Y-88042003D01*
X154308763Y-88095349D01*
X154408126Y-88105500D01*
X154954815Y-88105499D01*
X154954823Y-88105498D01*
X154954826Y-88105498D01*
X155009231Y-88099940D01*
X155054179Y-88095349D01*
X155215168Y-88042003D01*
X155359515Y-87952968D01*
X155479439Y-87833044D01*
X155568474Y-87688697D01*
X155621820Y-87527708D01*
X155631971Y-87428345D01*
X155631970Y-86831656D01*
X155621820Y-86732292D01*
X155568474Y-86571303D01*
X155500431Y-86460989D01*
X155481971Y-86395893D01*
X155481971Y-86096736D01*
X155483960Y-86074616D01*
X155484144Y-86073597D01*
X155506971Y-85958843D01*
X155506971Y-85947687D01*
X155508960Y-85936716D01*
X155519828Y-85915049D01*
X155526656Y-85891797D01*
X155536539Y-85881735D01*
X155540287Y-85874264D01*
X155548872Y-85869179D01*
X155562078Y-85855735D01*
X155624922Y-85813745D01*
X155736422Y-85702245D01*
X155824027Y-85571135D01*
X155828542Y-85560236D01*
X155840946Y-85530289D01*
X155884370Y-85425453D01*
X155915133Y-85270798D01*
X155915133Y-85113114D01*
X155915133Y-85113111D01*
X155915132Y-85113109D01*
X155912295Y-85098846D01*
X155884370Y-84958459D01*
X155869384Y-84922280D01*
X155824030Y-84812783D01*
X155824023Y-84812770D01*
X155736422Y-84681667D01*
X155736419Y-84681663D01*
X155624925Y-84570169D01*
X155624921Y-84570166D01*
X155493818Y-84482565D01*
X155493805Y-84482558D01*
X155348134Y-84422220D01*
X155342298Y-84420450D01*
X155342857Y-84418604D01*
X155288861Y-84390355D01*
X155254291Y-84329637D01*
X155250969Y-84301128D01*
X155250969Y-84044361D01*
X155250970Y-84044348D01*
X155250970Y-83876247D01*
X155250970Y-83876245D01*
X155210046Y-83723517D01*
X155171345Y-83656485D01*
X155130989Y-83586586D01*
X155019185Y-83474782D01*
X155019184Y-83474781D01*
X155014854Y-83470451D01*
X155014843Y-83470441D01*
X153970150Y-82425748D01*
X157111376Y-82425748D01*
X157111376Y-82583441D01*
X157142137Y-82738084D01*
X157142140Y-82738096D01*
X157202478Y-82883767D01*
X157202485Y-82883780D01*
X157290086Y-83014883D01*
X157290089Y-83014887D01*
X157401583Y-83126381D01*
X157401587Y-83126384D01*
X157532690Y-83213985D01*
X157532703Y-83213992D01*
X157678374Y-83274330D01*
X157678379Y-83274332D01*
X157773290Y-83293211D01*
X157833029Y-83305094D01*
X157833032Y-83305095D01*
X157833034Y-83305095D01*
X157990720Y-83305095D01*
X157990721Y-83305094D01*
X158145373Y-83274332D01*
X158258042Y-83227662D01*
X158291048Y-83213992D01*
X158291048Y-83213991D01*
X158291055Y-83213989D01*
X158422165Y-83126384D01*
X158533665Y-83014884D01*
X158621270Y-82883774D01*
X158681613Y-82738092D01*
X158705065Y-82620190D01*
X158737448Y-82558284D01*
X158738942Y-82556763D01*
X158790068Y-82505637D01*
X158851389Y-82472154D01*
X158853556Y-82471703D01*
X158931623Y-82456174D01*
X159008903Y-82440802D01*
X159154585Y-82380459D01*
X159285695Y-82292854D01*
X159397195Y-82181354D01*
X159484800Y-82050244D01*
X159545143Y-81904562D01*
X159575906Y-81749907D01*
X159575906Y-81592223D01*
X159575906Y-81592220D01*
X159575905Y-81592218D01*
X159567611Y-81550520D01*
X159545143Y-81437568D01*
X159502527Y-81334682D01*
X159484803Y-81291892D01*
X159484796Y-81291879D01*
X159397195Y-81160776D01*
X159397192Y-81160772D01*
X159285698Y-81049278D01*
X159285694Y-81049275D01*
X159154591Y-80961674D01*
X159154578Y-80961667D01*
X159008907Y-80901329D01*
X159008895Y-80901326D01*
X158854251Y-80870565D01*
X158854248Y-80870565D01*
X158696564Y-80870565D01*
X158696561Y-80870565D01*
X158541916Y-80901326D01*
X158541904Y-80901329D01*
X158396233Y-80961667D01*
X158396220Y-80961674D01*
X158265117Y-81049275D01*
X158265113Y-81049278D01*
X158153619Y-81160772D01*
X158153616Y-81160776D01*
X158066015Y-81291879D01*
X158066008Y-81291892D01*
X158005670Y-81437563D01*
X158005667Y-81437573D01*
X157974767Y-81592915D01*
X157942382Y-81654826D01*
X157940835Y-81656400D01*
X157929464Y-81667772D01*
X157868142Y-81701260D01*
X157841779Y-81704095D01*
X157833031Y-81704095D01*
X157678386Y-81734856D01*
X157678374Y-81734859D01*
X157532703Y-81795197D01*
X157532690Y-81795204D01*
X157401587Y-81882805D01*
X157401583Y-81882808D01*
X157290089Y-81994302D01*
X157290086Y-81994306D01*
X157202485Y-82125409D01*
X157202478Y-82125422D01*
X157142140Y-82271093D01*
X157142137Y-82271105D01*
X157111376Y-82425748D01*
X153970150Y-82425748D01*
X153827757Y-82283355D01*
X153827755Y-82283352D01*
X153708884Y-82164481D01*
X153708883Y-82164480D01*
X153604992Y-82104499D01*
X153604991Y-82104498D01*
X153571950Y-82085422D01*
X153507411Y-82068129D01*
X153419224Y-82044499D01*
X153285971Y-82044499D01*
X153218932Y-82024814D01*
X153173177Y-81972010D01*
X153161971Y-81920499D01*
X153161971Y-79077247D01*
X153161970Y-79077241D01*
X153160381Y-79071309D01*
X153160381Y-79071310D01*
X153121047Y-78924517D01*
X153099249Y-78886763D01*
X153083949Y-78860262D01*
X153041991Y-78787588D01*
X152930187Y-78675784D01*
X152930186Y-78675783D01*
X152925856Y-78671453D01*
X152925845Y-78671443D01*
X152747757Y-78493355D01*
X152747755Y-78493352D01*
X152628884Y-78374481D01*
X152628883Y-78374480D01*
X152542071Y-78324360D01*
X152542071Y-78324359D01*
X152542067Y-78324358D01*
X152491952Y-78295423D01*
X152339224Y-78254499D01*
X152181110Y-78254499D01*
X152173514Y-78254499D01*
X152173498Y-78254500D01*
X149177411Y-78254500D01*
X149136490Y-78265464D01*
X149136490Y-78265465D01*
X149099222Y-78275451D01*
X149024685Y-78295423D01*
X149024680Y-78295426D01*
X148887761Y-78374475D01*
X148887753Y-78374481D01*
X148724054Y-78538181D01*
X148662731Y-78571666D01*
X148636373Y-78574500D01*
X148304855Y-78574500D01*
X148285616Y-78576248D01*
X148234278Y-78580913D01*
X148071864Y-78631522D01*
X147926282Y-78719530D01*
X147926281Y-78719531D01*
X147824152Y-78821661D01*
X147762829Y-78855146D01*
X147693137Y-78850162D01*
X147648790Y-78821661D01*
X147546659Y-78719530D01*
X147474291Y-78675782D01*
X147401077Y-78631522D01*
X147238667Y-78580914D01*
X147238665Y-78580913D01*
X147238663Y-78580913D01*
X147189249Y-78576423D01*
X147168087Y-78574500D01*
X146654855Y-78574500D01*
X146635616Y-78576248D01*
X146584278Y-78580913D01*
X146421864Y-78631522D01*
X146276286Y-78719528D01*
X146269149Y-78726665D01*
X146207824Y-78760147D01*
X146138133Y-78755160D01*
X146093790Y-78726661D01*
X146016659Y-78649530D01*
X145986870Y-78631522D01*
X145871077Y-78561522D01*
X145708667Y-78510914D01*
X145708665Y-78510913D01*
X145708663Y-78510913D01*
X145659249Y-78506423D01*
X145638087Y-78504500D01*
X145124855Y-78504500D01*
X145105616Y-78506248D01*
X145054278Y-78510913D01*
X144891864Y-78561522D01*
X144746282Y-78649530D01*
X144746281Y-78649531D01*
X144644152Y-78751661D01*
X144582829Y-78785146D01*
X144513137Y-78780162D01*
X144468790Y-78751661D01*
X144366659Y-78649530D01*
X144336870Y-78631522D01*
X144221077Y-78561522D01*
X144058667Y-78510914D01*
X144058665Y-78510913D01*
X144058663Y-78510913D01*
X144009249Y-78506423D01*
X143988087Y-78504500D01*
X143474855Y-78504500D01*
X143455616Y-78506248D01*
X143404278Y-78510913D01*
X143241864Y-78561522D01*
X143096282Y-78649530D01*
X142976001Y-78769811D01*
X142956491Y-78802085D01*
X142904962Y-78849271D01*
X142836103Y-78861109D01*
X142771774Y-78833839D01*
X142762694Y-78825614D01*
X142746028Y-78808948D01*
X142746024Y-78808945D01*
X142614921Y-78721344D01*
X142614908Y-78721337D01*
X142469237Y-78660999D01*
X142469225Y-78660996D01*
X142314581Y-78630235D01*
X142314578Y-78630235D01*
X142156894Y-78630235D01*
X142156891Y-78630235D01*
X142002246Y-78660996D01*
X142002234Y-78660999D01*
X141856563Y-78721337D01*
X141856552Y-78721343D01*
X141743642Y-78796787D01*
X141676965Y-78817664D01*
X141609584Y-78799179D01*
X141587071Y-78781365D01*
X141544061Y-78738355D01*
X141544059Y-78738352D01*
X141425188Y-78619481D01*
X141425187Y-78619480D01*
X141314897Y-78555804D01*
X141314895Y-78555803D01*
X141288256Y-78540423D01*
X141288255Y-78540422D01*
X141288254Y-78540422D01*
X141232352Y-78525443D01*
X141135528Y-78499499D01*
X140977414Y-78499499D01*
X140969818Y-78499499D01*
X140969802Y-78499500D01*
X126327150Y-78499500D01*
X126260111Y-78479815D01*
X126214356Y-78427011D01*
X126204412Y-78357853D01*
X126206259Y-78347908D01*
X126266782Y-78082735D01*
X126266783Y-78082732D01*
X126284989Y-77921153D01*
X155795971Y-77921153D01*
X155795971Y-78078846D01*
X155826732Y-78233489D01*
X155826735Y-78233501D01*
X155887073Y-78379172D01*
X155887080Y-78379185D01*
X155974681Y-78510288D01*
X155974684Y-78510292D01*
X156086178Y-78621786D01*
X156086182Y-78621789D01*
X156217285Y-78709390D01*
X156217298Y-78709397D01*
X156362969Y-78769735D01*
X156362974Y-78769737D01*
X156498963Y-78796787D01*
X156517624Y-78800499D01*
X156517627Y-78800500D01*
X156517629Y-78800500D01*
X156675315Y-78800500D01*
X156675316Y-78800499D01*
X156829968Y-78769737D01*
X156975650Y-78709394D01*
X157106760Y-78621789D01*
X157218260Y-78510289D01*
X157305865Y-78379179D01*
X157307814Y-78374475D01*
X157340556Y-78295426D01*
X157366208Y-78233497D01*
X157396971Y-78078842D01*
X157396971Y-77921158D01*
X157396971Y-77921155D01*
X157396970Y-77921153D01*
X157382586Y-77848842D01*
X157366208Y-77766503D01*
X157366206Y-77766498D01*
X157305868Y-77620827D01*
X157305861Y-77620814D01*
X157218260Y-77489711D01*
X157218257Y-77489707D01*
X157106763Y-77378213D01*
X157106759Y-77378210D01*
X156975656Y-77290609D01*
X156975643Y-77290602D01*
X156829972Y-77230264D01*
X156829960Y-77230261D01*
X156675316Y-77199500D01*
X156675313Y-77199500D01*
X156517629Y-77199500D01*
X156517626Y-77199500D01*
X156362981Y-77230261D01*
X156362969Y-77230264D01*
X156217298Y-77290602D01*
X156217285Y-77290609D01*
X156086182Y-77378210D01*
X156086178Y-77378213D01*
X155974684Y-77489707D01*
X155974681Y-77489711D01*
X155887080Y-77620814D01*
X155887073Y-77620827D01*
X155826735Y-77766498D01*
X155826732Y-77766510D01*
X155795971Y-77921153D01*
X126284989Y-77921153D01*
X126296971Y-77814809D01*
X126296971Y-77807532D01*
X126316656Y-77740493D01*
X126369460Y-77694738D01*
X126438618Y-77684794D01*
X126489862Y-77704430D01*
X126497286Y-77709390D01*
X126497292Y-77709394D01*
X126497294Y-77709395D01*
X126497298Y-77709397D01*
X126572372Y-77740493D01*
X126642974Y-77769737D01*
X126797624Y-77800499D01*
X126797627Y-77800500D01*
X126797629Y-77800500D01*
X126955315Y-77800500D01*
X126955316Y-77800499D01*
X126965650Y-77798443D01*
X126990758Y-77793450D01*
X126990763Y-77793449D01*
X127076271Y-77776439D01*
X127109968Y-77769737D01*
X127255650Y-77709394D01*
X127386760Y-77621789D01*
X127498260Y-77510289D01*
X127585865Y-77379179D01*
X127646208Y-77233497D01*
X127676971Y-77078842D01*
X127676971Y-76921158D01*
X127676971Y-76921155D01*
X127676970Y-76921153D01*
X127646209Y-76766510D01*
X127646208Y-76766503D01*
X127615078Y-76691347D01*
X127585868Y-76620827D01*
X127585861Y-76620814D01*
X127498260Y-76489711D01*
X127498257Y-76489707D01*
X127386763Y-76378213D01*
X127386759Y-76378210D01*
X127255656Y-76290609D01*
X127255643Y-76290602D01*
X127109972Y-76230264D01*
X127109960Y-76230261D01*
X126955316Y-76199500D01*
X126955313Y-76199500D01*
X126797629Y-76199500D01*
X126797626Y-76199500D01*
X126642981Y-76230261D01*
X126642969Y-76230264D01*
X126497298Y-76290602D01*
X126497285Y-76290609D01*
X126366182Y-76378210D01*
X126366178Y-76378213D01*
X126254684Y-76489707D01*
X126254679Y-76489714D01*
X126220093Y-76541474D01*
X126166480Y-76586279D01*
X126097155Y-76594985D01*
X126034128Y-76564829D01*
X126005269Y-76526377D01*
X126000757Y-76517006D01*
X125941843Y-76423246D01*
X125857309Y-76288711D01*
X125689205Y-76077915D01*
X125498556Y-75887266D01*
X125287760Y-75719162D01*
X125237935Y-75687855D01*
X125176885Y-75649494D01*
X125130594Y-75597159D01*
X125119946Y-75528105D01*
X125148321Y-75464257D01*
X125206711Y-75425885D01*
X125242857Y-75420500D01*
X170760085Y-75420500D01*
X170827124Y-75440185D01*
G37*
%TD.AperFunction*%
%TA.AperFunction,Conductor*%
G36*
X145471942Y-107800185D02*
G01*
X145492584Y-107816819D01*
X146388678Y-108712913D01*
X146393786Y-108722268D01*
X146402154Y-108728877D01*
X146410242Y-108752405D01*
X146422163Y-108774236D01*
X146421402Y-108784868D01*
X146424869Y-108794952D01*
X146418953Y-108819116D01*
X146417179Y-108843928D01*
X146410790Y-108852462D01*
X146408255Y-108862818D01*
X146388543Y-108888411D01*
X146377049Y-108899869D01*
X146360403Y-108909480D01*
X146248599Y-109021284D01*
X146248597Y-109021286D01*
X144099162Y-111170721D01*
X144037787Y-111204111D01*
X143968103Y-111199019D01*
X143912234Y-111157061D01*
X143905503Y-111147060D01*
X143876943Y-111099815D01*
X143876942Y-111099814D01*
X143876939Y-111099810D01*
X143756659Y-110979530D01*
X143712275Y-110952699D01*
X143611077Y-110891522D01*
X143448667Y-110840914D01*
X143448665Y-110840913D01*
X143448663Y-110840913D01*
X143399249Y-110836423D01*
X143378087Y-110834500D01*
X142864855Y-110834500D01*
X142845616Y-110836248D01*
X142794278Y-110840913D01*
X142631864Y-110891522D01*
X142486279Y-110979532D01*
X142481766Y-110983068D01*
X142416852Y-111008912D01*
X142348270Y-110995558D01*
X142297795Y-110947245D01*
X142281453Y-110879314D01*
X142299763Y-110820353D01*
X142378015Y-110693488D01*
X142378018Y-110693481D01*
X142431326Y-110532606D01*
X142441470Y-110433322D01*
X142441471Y-110433309D01*
X142441471Y-110410000D01*
X141590471Y-110410000D01*
X141523432Y-110390315D01*
X141477677Y-110337511D01*
X141466471Y-110286000D01*
X141466471Y-110134500D01*
X141486156Y-110067461D01*
X141538960Y-110021706D01*
X141590471Y-110010500D01*
X141803498Y-110010500D01*
X141803514Y-110010501D01*
X141811110Y-110010501D01*
X141969221Y-110010501D01*
X141969224Y-110010501D01*
X142121952Y-109969577D01*
X142183271Y-109934174D01*
X142196375Y-109926608D01*
X142258367Y-109910000D01*
X142441470Y-109910000D01*
X142441470Y-109886692D01*
X142441469Y-109886677D01*
X142430890Y-109783116D01*
X142443660Y-109714423D01*
X142466564Y-109682836D01*
X142599977Y-109549424D01*
X142599982Y-109549420D01*
X142610185Y-109539216D01*
X142610187Y-109539216D01*
X142721991Y-109427412D01*
X142775819Y-109334179D01*
X142801048Y-109290481D01*
X142841972Y-109137753D01*
X142841972Y-108979639D01*
X142841972Y-108972044D01*
X142841971Y-108972026D01*
X142841971Y-108279500D01*
X142861656Y-108212461D01*
X142914460Y-108166706D01*
X142965971Y-108155500D01*
X143293084Y-108155500D01*
X143293087Y-108155500D01*
X143363667Y-108149086D01*
X143526077Y-108098478D01*
X143671656Y-108010472D01*
X143791943Y-107890185D01*
X143822069Y-107840349D01*
X143873597Y-107793162D01*
X143928186Y-107780500D01*
X145404903Y-107780500D01*
X145471942Y-107800185D01*
G37*
%TD.AperFunction*%
%TA.AperFunction,Conductor*%
G36*
X137464049Y-108470354D02*
G01*
X137470527Y-108476386D01*
X137840926Y-108846785D01*
X137874411Y-108908108D01*
X137875413Y-108913854D01*
X137875782Y-108915233D01*
X137933772Y-109055233D01*
X137967750Y-109099514D01*
X137992944Y-109164684D01*
X137978905Y-109233129D01*
X137967750Y-109250486D01*
X137933772Y-109294766D01*
X137875784Y-109434763D01*
X137875784Y-109434764D01*
X137860971Y-109547272D01*
X137860971Y-110072727D01*
X137875784Y-110185235D01*
X137875785Y-110185239D01*
X137926262Y-110307102D01*
X137933731Y-110376571D01*
X137902456Y-110439050D01*
X137848592Y-110472939D01*
X137811492Y-110484500D01*
X137756864Y-110501522D01*
X137611286Y-110589528D01*
X137581887Y-110618927D01*
X137520563Y-110652411D01*
X137450872Y-110647425D01*
X137429106Y-110636780D01*
X137410870Y-110625531D01*
X137364148Y-110573582D01*
X137351971Y-110519995D01*
X137351971Y-110408535D01*
X137351969Y-110408526D01*
X137347145Y-110390520D01*
X137311048Y-110255805D01*
X137255583Y-110159737D01*
X137231991Y-110118874D01*
X137218356Y-110105239D01*
X137211709Y-110095408D01*
X137204549Y-110072975D01*
X137193265Y-110052310D01*
X137194123Y-110040308D01*
X137190465Y-110028847D01*
X137196569Y-110006106D01*
X137198249Y-109982618D01*
X137206191Y-109970259D01*
X137208579Y-109961366D01*
X137216574Y-109954104D01*
X137226751Y-109938270D01*
X137280132Y-109884889D01*
X137280135Y-109884886D01*
X137367740Y-109753776D01*
X137428083Y-109608094D01*
X137458846Y-109453439D01*
X137458846Y-109295755D01*
X137458846Y-109295752D01*
X137458845Y-109295750D01*
X137432774Y-109164684D01*
X137428083Y-109141100D01*
X137424781Y-109133127D01*
X137367743Y-108995424D01*
X137367736Y-108995411D01*
X137279744Y-108863722D01*
X137258866Y-108797044D01*
X137258846Y-108794831D01*
X137258846Y-108564067D01*
X137278531Y-108497028D01*
X137331335Y-108451273D01*
X137400493Y-108441329D01*
X137464049Y-108470354D01*
G37*
%TD.AperFunction*%
%TA.AperFunction,Conductor*%
G36*
X154995415Y-107488869D02*
G01*
X155045679Y-107537400D01*
X155061725Y-107605402D01*
X155045294Y-107660723D01*
X155036323Y-107676263D01*
X155026373Y-107693497D01*
X154991894Y-107753216D01*
X154950970Y-107905944D01*
X154950970Y-107905946D01*
X154950970Y-108074047D01*
X154950971Y-108074060D01*
X154950971Y-109250740D01*
X154950970Y-109250758D01*
X154950970Y-109416464D01*
X154950969Y-109416464D01*
X154950970Y-109416467D01*
X154986597Y-109549428D01*
X154991895Y-109569197D01*
X155005156Y-109592165D01*
X155005157Y-109592167D01*
X155070948Y-109706122D01*
X155070952Y-109706127D01*
X155200191Y-109835366D01*
X155200197Y-109835371D01*
X155314652Y-109949826D01*
X155348137Y-110011149D01*
X155350971Y-110037507D01*
X155350971Y-110212374D01*
X155331286Y-110279413D01*
X155278482Y-110325168D01*
X155209324Y-110335112D01*
X155145768Y-110306087D01*
X155139290Y-110300055D01*
X153818290Y-108979055D01*
X153784805Y-108917732D01*
X153781971Y-108891374D01*
X153781971Y-108661650D01*
X153781972Y-108661637D01*
X153781972Y-108493534D01*
X153775761Y-108470354D01*
X153741048Y-108340806D01*
X153711882Y-108290289D01*
X153661995Y-108203880D01*
X153661989Y-108203872D01*
X153563549Y-108105432D01*
X153444401Y-107986285D01*
X153444401Y-107986284D01*
X153418289Y-107960172D01*
X153384804Y-107898849D01*
X153384804Y-107898844D01*
X153381971Y-107872492D01*
X153381971Y-107804500D01*
X153401656Y-107737461D01*
X153454460Y-107691706D01*
X153505971Y-107680500D01*
X153863331Y-107680500D01*
X153863347Y-107680501D01*
X153870943Y-107680501D01*
X154029054Y-107680501D01*
X154029057Y-107680501D01*
X154181785Y-107639577D01*
X154185493Y-107637436D01*
X154194714Y-107632113D01*
X154256714Y-107615500D01*
X154413330Y-107615500D01*
X154413346Y-107615501D01*
X154420942Y-107615501D01*
X154579053Y-107615501D01*
X154579056Y-107615501D01*
X154731784Y-107574577D01*
X154782604Y-107545236D01*
X154782606Y-107545234D01*
X154810725Y-107533341D01*
X154840947Y-107524757D01*
X154861714Y-107500895D01*
X154861866Y-107500777D01*
X154926892Y-107475216D01*
X154995415Y-107488869D01*
G37*
%TD.AperFunction*%
%TA.AperFunction,Conductor*%
G36*
X127795344Y-106939685D02*
G01*
X127797133Y-106940856D01*
X127862292Y-106984394D01*
X127862294Y-106984395D01*
X127862298Y-106984397D01*
X127911018Y-107004577D01*
X128007974Y-107044737D01*
X128130193Y-107069048D01*
X128162624Y-107075499D01*
X128162627Y-107075500D01*
X128201971Y-107075500D01*
X128269010Y-107095185D01*
X128314765Y-107147989D01*
X128325971Y-107199500D01*
X128325971Y-107858846D01*
X128356732Y-108013489D01*
X128356735Y-108013501D01*
X128409876Y-108141796D01*
X128417345Y-108211265D01*
X128386069Y-108273744D01*
X128325980Y-108309396D01*
X128256155Y-108306902D01*
X128207634Y-108276929D01*
X128032864Y-108102159D01*
X128005984Y-108061930D01*
X127949171Y-107924771D01*
X127949168Y-107924765D01*
X127914877Y-107880077D01*
X127889682Y-107814908D01*
X127903720Y-107746463D01*
X127914876Y-107729103D01*
X127948734Y-107684978D01*
X128006669Y-107545108D01*
X128006670Y-107545104D01*
X128021470Y-107432697D01*
X128021471Y-107432683D01*
X128021471Y-107420000D01*
X126660471Y-107420000D01*
X126593432Y-107400315D01*
X126547677Y-107347511D01*
X126536471Y-107296000D01*
X126536471Y-107044000D01*
X126556156Y-106976961D01*
X126608960Y-106931206D01*
X126660471Y-106920000D01*
X127728305Y-106920000D01*
X127795344Y-106939685D01*
G37*
%TD.AperFunction*%
%TA.AperFunction,Conductor*%
G36*
X145965184Y-101426687D02*
G01*
X145967833Y-101426549D01*
X145971238Y-101427409D01*
X145998332Y-101434669D01*
X145998331Y-101434669D01*
X146014162Y-101438910D01*
X146057413Y-101450500D01*
X146057414Y-101450500D01*
X147065703Y-101450500D01*
X147127702Y-101467113D01*
X147215481Y-101517791D01*
X147253216Y-101539577D01*
X147405943Y-101580501D01*
X147405945Y-101580501D01*
X147571654Y-101580501D01*
X147571670Y-101580500D01*
X147591598Y-101580500D01*
X147658637Y-101600185D01*
X147689166Y-101632200D01*
X147691001Y-101630793D01*
X147695952Y-101637245D01*
X147719652Y-101660945D01*
X147753137Y-101722268D01*
X147755971Y-101748626D01*
X147755971Y-101909902D01*
X147736286Y-101976941D01*
X147719652Y-101997583D01*
X147331250Y-102385985D01*
X147269927Y-102419470D01*
X147267761Y-102419921D01*
X147112419Y-102450821D01*
X147112409Y-102450824D01*
X146966738Y-102511162D01*
X146966725Y-102511169D01*
X146835622Y-102598770D01*
X146835618Y-102598773D01*
X146724124Y-102710267D01*
X146724121Y-102710271D01*
X146636520Y-102841374D01*
X146636513Y-102841387D01*
X146576175Y-102987058D01*
X146576172Y-102987070D01*
X146545411Y-103141713D01*
X146545411Y-103299406D01*
X146576172Y-103454049D01*
X146576175Y-103454061D01*
X146636513Y-103599732D01*
X146636520Y-103599745D01*
X146724121Y-103730848D01*
X146724124Y-103730852D01*
X146835618Y-103842346D01*
X146835622Y-103842349D01*
X146966725Y-103929950D01*
X146966738Y-103929957D01*
X147112409Y-103990295D01*
X147112414Y-103990297D01*
X147177058Y-104003155D01*
X147267760Y-104021198D01*
X147329671Y-104053583D01*
X147331250Y-104055134D01*
X147559652Y-104283536D01*
X147593137Y-104344859D01*
X147595971Y-104371217D01*
X147595971Y-107151374D01*
X147576286Y-107218413D01*
X147559652Y-107239055D01*
X147495952Y-107302754D01*
X147495946Y-107302762D01*
X147416897Y-107439681D01*
X147416893Y-107439690D01*
X147409599Y-107466907D01*
X147409600Y-107466908D01*
X147400525Y-107500777D01*
X147381040Y-107573497D01*
X147375970Y-107592417D01*
X147375971Y-107679891D01*
X147375971Y-107702374D01*
X147356286Y-107769413D01*
X147303482Y-107815168D01*
X147234324Y-107825112D01*
X147170768Y-107796087D01*
X147164290Y-107790055D01*
X146192590Y-106818355D01*
X146192588Y-106818352D01*
X146073717Y-106699481D01*
X146073709Y-106699475D01*
X145980967Y-106645931D01*
X145980966Y-106645931D01*
X145936785Y-106620423D01*
X145784057Y-106579499D01*
X145625943Y-106579499D01*
X145618347Y-106579499D01*
X145618331Y-106579500D01*
X143928186Y-106579500D01*
X143861147Y-106559815D01*
X143822069Y-106519650D01*
X143791943Y-106469815D01*
X143791941Y-106469813D01*
X143791940Y-106469811D01*
X143671659Y-106349530D01*
X143526077Y-106261522D01*
X143433771Y-106232759D01*
X143363667Y-106210914D01*
X143363665Y-106210913D01*
X143363663Y-106210913D01*
X143314249Y-106206423D01*
X143293087Y-106204500D01*
X142779855Y-106204500D01*
X142760616Y-106206248D01*
X142709278Y-106210913D01*
X142546864Y-106261522D01*
X142401282Y-106349530D01*
X142401281Y-106349531D01*
X142299152Y-106451661D01*
X142237829Y-106485146D01*
X142168137Y-106480162D01*
X142123790Y-106451661D01*
X142021659Y-106349530D01*
X141876077Y-106261522D01*
X141783771Y-106232759D01*
X141713667Y-106210914D01*
X141713665Y-106210913D01*
X141713663Y-106210913D01*
X141664249Y-106206423D01*
X141643087Y-106204500D01*
X141129855Y-106204500D01*
X141076920Y-106209310D01*
X141059274Y-106210914D01*
X140992859Y-106231609D01*
X140922999Y-106232759D01*
X140863607Y-106195957D01*
X140833540Y-106132888D01*
X140831971Y-106113223D01*
X140831971Y-105737286D01*
X140831970Y-105737272D01*
X140825391Y-105687302D01*
X140817158Y-105624764D01*
X140759169Y-105484767D01*
X140758454Y-105483835D01*
X140758096Y-105482908D01*
X140755107Y-105477732D01*
X140755914Y-105477265D01*
X140733257Y-105418669D01*
X140747292Y-105350224D01*
X140796104Y-105300232D01*
X140864194Y-105284565D01*
X140921923Y-105302807D01*
X140927980Y-105306542D01*
X140927989Y-105306547D01*
X141088864Y-105359855D01*
X141188154Y-105369999D01*
X141736471Y-105369999D01*
X141784779Y-105369999D01*
X141784793Y-105369998D01*
X141884078Y-105359855D01*
X142044952Y-105306547D01*
X142044963Y-105306542D01*
X142189199Y-105217575D01*
X142189203Y-105217572D01*
X142309043Y-105097732D01*
X142309046Y-105097728D01*
X142398013Y-104953492D01*
X142398018Y-104953481D01*
X142451326Y-104792606D01*
X142461470Y-104693322D01*
X142461471Y-104693309D01*
X142461471Y-104670000D01*
X141736471Y-104670000D01*
X141736471Y-105369999D01*
X141188154Y-105369999D01*
X141236470Y-105369998D01*
X141236471Y-105369998D01*
X141236471Y-104544000D01*
X141256156Y-104476961D01*
X141308960Y-104431206D01*
X141360471Y-104420000D01*
X141486471Y-104420000D01*
X141486471Y-104294000D01*
X141506156Y-104226961D01*
X141558960Y-104181206D01*
X141610471Y-104170000D01*
X142461470Y-104170000D01*
X142461470Y-104146692D01*
X142461469Y-104146677D01*
X142451326Y-104047392D01*
X142398018Y-103886518D01*
X142398013Y-103886507D01*
X142309046Y-103742271D01*
X142309043Y-103742267D01*
X142299810Y-103733034D01*
X142266325Y-103671711D01*
X142271309Y-103602019D01*
X142299814Y-103557668D01*
X142309439Y-103548044D01*
X142398474Y-103403697D01*
X142451820Y-103242708D01*
X142461971Y-103143345D01*
X142461970Y-102596656D01*
X142451820Y-102497292D01*
X142398474Y-102336303D01*
X142398470Y-102336297D01*
X142398469Y-102336294D01*
X142309441Y-102191959D01*
X142309438Y-102191955D01*
X142266359Y-102148876D01*
X142232874Y-102087553D01*
X142237858Y-102017861D01*
X142279730Y-101961928D01*
X142288937Y-101955660D01*
X142302926Y-101947031D01*
X142370319Y-101928592D01*
X142436982Y-101949515D01*
X142455703Y-101964890D01*
X142486282Y-101995469D01*
X142486284Y-101995470D01*
X142486286Y-101995472D01*
X142631865Y-102083478D01*
X142794275Y-102134086D01*
X142864855Y-102140500D01*
X142864858Y-102140500D01*
X143528084Y-102140500D01*
X143528087Y-102140500D01*
X143598667Y-102134086D01*
X143761077Y-102083478D01*
X143906656Y-101995472D01*
X143948789Y-101953338D01*
X144010109Y-101919853D01*
X144079801Y-101924836D01*
X144124151Y-101953338D01*
X144136282Y-101965469D01*
X144136284Y-101965470D01*
X144136286Y-101965472D01*
X144281865Y-102053478D01*
X144444275Y-102104086D01*
X144514855Y-102110500D01*
X144514858Y-102110500D01*
X145178084Y-102110500D01*
X145178087Y-102110500D01*
X145248667Y-102104086D01*
X145411077Y-102053478D01*
X145556656Y-101965472D01*
X145676943Y-101845185D01*
X145764949Y-101699606D01*
X145815557Y-101537196D01*
X145815668Y-101535970D01*
X145815935Y-101535295D01*
X145816837Y-101530761D01*
X145817661Y-101530924D01*
X145822848Y-101517791D01*
X145825169Y-101498378D01*
X145835419Y-101485962D01*
X145841333Y-101470990D01*
X145857204Y-101459576D01*
X145869653Y-101444499D01*
X145884990Y-101439595D01*
X145898059Y-101430198D01*
X145917580Y-101429177D01*
X145936205Y-101423223D01*
X145965184Y-101426687D01*
G37*
%TD.AperFunction*%
%TA.AperFunction,Conductor*%
G36*
X154335285Y-101251119D02*
G01*
X154348618Y-101249203D01*
X154368761Y-101258402D01*
X154390398Y-101263109D01*
X154408949Y-101276755D01*
X154412174Y-101278228D01*
X154416772Y-101282509D01*
X154417171Y-101282803D01*
X154417929Y-101283536D01*
X154456182Y-101321789D01*
X154460397Y-101324605D01*
X154460400Y-101324608D01*
X154587285Y-101409390D01*
X154587298Y-101409397D01*
X154708443Y-101459576D01*
X154732974Y-101469737D01*
X154876961Y-101498378D01*
X154887624Y-101500499D01*
X154887627Y-101500500D01*
X154887629Y-101500500D01*
X155045314Y-101500500D01*
X155071475Y-101495296D01*
X155102779Y-101489069D01*
X155172370Y-101495296D01*
X155227548Y-101538158D01*
X155250793Y-101604047D01*
X155250971Y-101610686D01*
X155250971Y-101657727D01*
X155265784Y-101770235D01*
X155265784Y-101770236D01*
X155323771Y-101910230D01*
X155323773Y-101910234D01*
X155353915Y-101949515D01*
X155408147Y-102020191D01*
X155433342Y-102085359D01*
X155419304Y-102153804D01*
X155374870Y-102201215D01*
X155283739Y-102257426D01*
X155163898Y-102377267D01*
X155163895Y-102377271D01*
X155074928Y-102521507D01*
X155074923Y-102521518D01*
X155021615Y-102682393D01*
X155011471Y-102781677D01*
X155011471Y-102830000D01*
X155837471Y-102830000D01*
X155904510Y-102849685D01*
X155950265Y-102902489D01*
X155961471Y-102954000D01*
X155961471Y-103206000D01*
X155941786Y-103273039D01*
X155888982Y-103318794D01*
X155837471Y-103330000D01*
X155011472Y-103330000D01*
X155011472Y-103378322D01*
X155021615Y-103477607D01*
X155074923Y-103638481D01*
X155074926Y-103638488D01*
X155084198Y-103653519D01*
X155102639Y-103720912D01*
X155081717Y-103787575D01*
X155028075Y-103832345D01*
X155015551Y-103837002D01*
X154936867Y-103861521D01*
X154791284Y-103949529D01*
X154671475Y-104069338D01*
X154610152Y-104102822D01*
X154540460Y-104097838D01*
X154496379Y-104069603D01*
X154375878Y-103949831D01*
X154362291Y-103925128D01*
X154346005Y-103902126D01*
X154345681Y-103894927D01*
X154342207Y-103888610D01*
X154344132Y-103860483D01*
X154342867Y-103832327D01*
X154346583Y-103824687D01*
X154346980Y-103818903D01*
X154353970Y-103809505D01*
X154359750Y-103797624D01*
X154358062Y-103796604D01*
X154361941Y-103790186D01*
X154361943Y-103790185D01*
X154449949Y-103644606D01*
X154500557Y-103482196D01*
X154506971Y-103411616D01*
X154506971Y-102748384D01*
X154500557Y-102677804D01*
X154449949Y-102515394D01*
X154361943Y-102369815D01*
X154361941Y-102369813D01*
X154361940Y-102369811D01*
X154243290Y-102251161D01*
X154209805Y-102189838D01*
X154206971Y-102163480D01*
X154206971Y-101371941D01*
X154213209Y-101350695D01*
X154214789Y-101328607D01*
X154222861Y-101317823D01*
X154226656Y-101304902D01*
X154243389Y-101290402D01*
X154256661Y-101272674D01*
X154269281Y-101267966D01*
X154279460Y-101259147D01*
X154301377Y-101255995D01*
X154322125Y-101248257D01*
X154335285Y-101251119D01*
G37*
%TD.AperFunction*%
%TA.AperFunction,Conductor*%
G36*
X123985703Y-97069726D02*
G01*
X124007602Y-97094548D01*
X124024411Y-97119704D01*
X124051947Y-97160915D01*
X124058602Y-97170874D01*
X124079480Y-97237551D01*
X124079500Y-97239765D01*
X124079500Y-101899019D01*
X124079499Y-101899037D01*
X124079499Y-102064743D01*
X124079498Y-102064743D01*
X124120423Y-102217476D01*
X124129246Y-102232756D01*
X124129245Y-102232756D01*
X124129247Y-102232758D01*
X124199475Y-102354398D01*
X124199481Y-102354406D01*
X124281896Y-102436821D01*
X124315381Y-102498144D01*
X124315832Y-102500310D01*
X124346731Y-102655650D01*
X124346734Y-102655660D01*
X124407072Y-102801331D01*
X124407079Y-102801344D01*
X124494680Y-102932447D01*
X124494683Y-102932451D01*
X124610488Y-103048256D01*
X124609303Y-103049440D01*
X124644111Y-103100555D01*
X124645972Y-103170400D01*
X124613788Y-103226327D01*
X124431301Y-103408815D01*
X124431300Y-103408816D01*
X124400938Y-103439179D01*
X124400936Y-103439180D01*
X124322013Y-103518103D01*
X124260690Y-103551588D01*
X124190998Y-103546604D01*
X124146651Y-103518103D01*
X124017942Y-103389394D01*
X123816819Y-103188270D01*
X123783334Y-103126947D01*
X123780500Y-103100589D01*
X123780500Y-97163439D01*
X123800185Y-97096400D01*
X123852989Y-97050645D01*
X123922147Y-97040701D01*
X123985703Y-97069726D01*
G37*
%TD.AperFunction*%
%TA.AperFunction,Conductor*%
G36*
X123872174Y-93948227D02*
G01*
X123878652Y-93954259D01*
X124566178Y-94641786D01*
X124566182Y-94641789D01*
X124697285Y-94729390D01*
X124697298Y-94729397D01*
X124821673Y-94780914D01*
X124842974Y-94789737D01*
X124997629Y-94820500D01*
X124997640Y-94820500D01*
X124998546Y-94820590D01*
X124999000Y-94820773D01*
X125003603Y-94821689D01*
X125003429Y-94822561D01*
X125063336Y-94846744D01*
X125103701Y-94903774D01*
X125105063Y-94907989D01*
X125106734Y-94913498D01*
X125167073Y-95059172D01*
X125167080Y-95059185D01*
X125254681Y-95190288D01*
X125254684Y-95190292D01*
X126134682Y-96070289D01*
X126197163Y-96132770D01*
X126246183Y-96181790D01*
X126377285Y-96269390D01*
X126377298Y-96269397D01*
X126522969Y-96329735D01*
X126522974Y-96329737D01*
X126652337Y-96355469D01*
X126677624Y-96360499D01*
X126677627Y-96360500D01*
X126677629Y-96360500D01*
X129495315Y-96360500D01*
X129495316Y-96360499D01*
X129649968Y-96329737D01*
X129649980Y-96329731D01*
X129655795Y-96327969D01*
X129656586Y-96330576D01*
X129714309Y-96324285D01*
X129776834Y-96355469D01*
X129812574Y-96415505D01*
X129816471Y-96446339D01*
X129816471Y-96458303D01*
X129816472Y-96458323D01*
X129826615Y-96557607D01*
X129879923Y-96718481D01*
X129879926Y-96718488D01*
X129881109Y-96720405D01*
X129881518Y-96721902D01*
X129882978Y-96725032D01*
X129882443Y-96725281D01*
X129899548Y-96787797D01*
X129878625Y-96854461D01*
X129824982Y-96899229D01*
X129775569Y-96909500D01*
X128853140Y-96909500D01*
X128853124Y-96909499D01*
X128845528Y-96909499D01*
X128687414Y-96909499D01*
X128596667Y-96933815D01*
X128534681Y-96950424D01*
X128534680Y-96950425D01*
X128496085Y-96972709D01*
X128496083Y-96972710D01*
X128397761Y-97029475D01*
X128397753Y-97029481D01*
X127734054Y-97693181D01*
X127672731Y-97726666D01*
X127646373Y-97729500D01*
X127527626Y-97729500D01*
X127372981Y-97760261D01*
X127372969Y-97760264D01*
X127227298Y-97820602D01*
X127227285Y-97820609D01*
X127096182Y-97908210D01*
X127096178Y-97908213D01*
X126984684Y-98019707D01*
X126984681Y-98019711D01*
X126897080Y-98150814D01*
X126897073Y-98150827D01*
X126836735Y-98296498D01*
X126836732Y-98296510D01*
X126805971Y-98451153D01*
X126805971Y-98608846D01*
X126836732Y-98763489D01*
X126836735Y-98763501D01*
X126897073Y-98909172D01*
X126897080Y-98909185D01*
X126984681Y-99040288D01*
X126984684Y-99040292D01*
X127096178Y-99151786D01*
X127096182Y-99151789D01*
X127227285Y-99239390D01*
X127227298Y-99239397D01*
X127362100Y-99295233D01*
X127372974Y-99299737D01*
X127391986Y-99303518D01*
X127453897Y-99335902D01*
X127488472Y-99396617D01*
X127484733Y-99466387D01*
X127482357Y-99472588D01*
X127430963Y-99596664D01*
X127430960Y-99596676D01*
X127400199Y-99751319D01*
X127400199Y-99909012D01*
X127431852Y-100068143D01*
X127425625Y-100137735D01*
X127413337Y-100161224D01*
X127360554Y-100240219D01*
X127360544Y-100240237D01*
X127300206Y-100385908D01*
X127300203Y-100385918D01*
X127269303Y-100541260D01*
X127236918Y-100603171D01*
X127235367Y-100604749D01*
X125920638Y-101919478D01*
X125859315Y-101952963D01*
X125789623Y-101947979D01*
X125743624Y-101915119D01*
X125742567Y-101916177D01*
X125626762Y-101800372D01*
X125626758Y-101800369D01*
X125495655Y-101712768D01*
X125495646Y-101712763D01*
X125357047Y-101655354D01*
X125302644Y-101611513D01*
X125280579Y-101545219D01*
X125280500Y-101540793D01*
X125280500Y-97239765D01*
X125300185Y-97172726D01*
X125301398Y-97170874D01*
X125308053Y-97160915D01*
X125389394Y-97039179D01*
X125393414Y-97029475D01*
X125416926Y-96972710D01*
X125449737Y-96893497D01*
X125480500Y-96738842D01*
X125480500Y-96581158D01*
X125480500Y-96581155D01*
X125480499Y-96581153D01*
X125478841Y-96572819D01*
X125449737Y-96426503D01*
X125422398Y-96360500D01*
X125389397Y-96280827D01*
X125389390Y-96280814D01*
X125301789Y-96149711D01*
X125301786Y-96149707D01*
X125190292Y-96038213D01*
X125190288Y-96038210D01*
X125059185Y-95950609D01*
X125059172Y-95950602D01*
X124913501Y-95890264D01*
X124913489Y-95890261D01*
X124758845Y-95859500D01*
X124758842Y-95859500D01*
X124601158Y-95859500D01*
X124601155Y-95859500D01*
X124446510Y-95890261D01*
X124446498Y-95890264D01*
X124300827Y-95950602D01*
X124300814Y-95950609D01*
X124169711Y-96038210D01*
X124169707Y-96038213D01*
X124058213Y-96149707D01*
X124058210Y-96149711D01*
X123970609Y-96280814D01*
X123970603Y-96280826D01*
X123958325Y-96310467D01*
X123914483Y-96364870D01*
X123848188Y-96386933D01*
X123780489Y-96369652D01*
X123732880Y-96318514D01*
X123730289Y-96313005D01*
X123729757Y-96311799D01*
X123689394Y-96214352D01*
X123681856Y-96203071D01*
X123677495Y-96193171D01*
X123674326Y-96168816D01*
X123666991Y-96145386D01*
X123666971Y-96143178D01*
X123666971Y-94041940D01*
X123686656Y-93974901D01*
X123739460Y-93929146D01*
X123808618Y-93919202D01*
X123872174Y-93948227D01*
G37*
%TD.AperFunction*%
%TA.AperFunction,Conductor*%
G36*
X131088923Y-98130185D02*
G01*
X131134678Y-98182989D01*
X131144622Y-98252147D01*
X131142611Y-98260682D01*
X131143032Y-98260773D01*
X131141615Y-98267391D01*
X131131471Y-98366677D01*
X131131471Y-98390000D01*
X131982471Y-98390000D01*
X132049510Y-98409685D01*
X132095265Y-98462489D01*
X132106471Y-98514000D01*
X132106471Y-98766000D01*
X132086786Y-98833039D01*
X132033982Y-98878794D01*
X131982471Y-98890000D01*
X131131472Y-98890000D01*
X131131472Y-98913322D01*
X131141615Y-99012607D01*
X131194923Y-99173481D01*
X131194928Y-99173492D01*
X131283895Y-99317728D01*
X131283898Y-99317732D01*
X131293131Y-99326965D01*
X131326616Y-99388288D01*
X131321632Y-99457980D01*
X131293134Y-99502324D01*
X131283504Y-99511953D01*
X131283500Y-99511959D01*
X131194472Y-99656294D01*
X131194467Y-99656305D01*
X131141122Y-99817290D01*
X131130971Y-99916647D01*
X131130971Y-99923843D01*
X131111286Y-99990882D01*
X131058482Y-100036637D01*
X130989324Y-100046581D01*
X130925768Y-100017556D01*
X130919291Y-100011525D01*
X130861833Y-99954068D01*
X130808716Y-99900951D01*
X130808713Y-99900949D01*
X130576119Y-99668355D01*
X130576117Y-99668352D01*
X130457246Y-99549481D01*
X130457241Y-99549477D01*
X130353441Y-99489549D01*
X130353440Y-99489548D01*
X130320319Y-99470425D01*
X130320318Y-99470424D01*
X130278997Y-99459352D01*
X130167586Y-99429499D01*
X130009472Y-99429499D01*
X130001876Y-99429499D01*
X130001860Y-99429500D01*
X129476122Y-99429500D01*
X129409083Y-99409815D01*
X129367920Y-99366067D01*
X129361591Y-99354761D01*
X129360276Y-99349852D01*
X129313684Y-99269153D01*
X129281219Y-99212921D01*
X129169415Y-99101117D01*
X129169414Y-99101116D01*
X129165084Y-99096786D01*
X129165073Y-99096776D01*
X129131101Y-99062804D01*
X129097616Y-99001481D01*
X129094782Y-98975123D01*
X129094782Y-98956811D01*
X129094781Y-98956809D01*
X129078371Y-98874310D01*
X129064019Y-98802159D01*
X129049042Y-98766000D01*
X129003679Y-98656483D01*
X129003672Y-98656470D01*
X128916071Y-98525367D01*
X128916068Y-98525363D01*
X128845886Y-98455181D01*
X128812401Y-98393858D01*
X128817385Y-98324166D01*
X128845883Y-98279821D01*
X128978888Y-98146816D01*
X129040210Y-98113334D01*
X129066568Y-98110500D01*
X131021884Y-98110500D01*
X131088923Y-98130185D01*
G37*
%TD.AperFunction*%
%TA.AperFunction,Conductor*%
G36*
X145129503Y-93227127D02*
G01*
X145143772Y-93239379D01*
X145989652Y-94085259D01*
X146023137Y-94146582D01*
X146025971Y-94172940D01*
X146025971Y-94725902D01*
X146056732Y-94880545D01*
X146056735Y-94880557D01*
X146117073Y-95026228D01*
X146117080Y-95026241D01*
X146204681Y-95157344D01*
X146204684Y-95157348D01*
X146566500Y-95519163D01*
X146599985Y-95580486D01*
X146600436Y-95582652D01*
X146615215Y-95656951D01*
X146615218Y-95656961D01*
X146675556Y-95802632D01*
X146675563Y-95802645D01*
X146763164Y-95933748D01*
X146763167Y-95933752D01*
X146916199Y-96086784D01*
X146916203Y-96086787D01*
X147047306Y-96174388D01*
X147047310Y-96174390D01*
X147047313Y-96174392D01*
X147192995Y-96234736D01*
X147347645Y-96265497D01*
X147347649Y-96265498D01*
X147631971Y-96265498D01*
X147699010Y-96285183D01*
X147744765Y-96337987D01*
X147755971Y-96389498D01*
X147755971Y-97818876D01*
X147736286Y-97885915D01*
X147683482Y-97931670D01*
X147656163Y-97940493D01*
X147506508Y-97970261D01*
X147506498Y-97970264D01*
X147360827Y-98030602D01*
X147360814Y-98030609D01*
X147229711Y-98118210D01*
X147229707Y-98118213D01*
X147118213Y-98229707D01*
X147118210Y-98229711D01*
X147030609Y-98360814D01*
X147030602Y-98360827D01*
X146970264Y-98506498D01*
X146970261Y-98506510D01*
X146939500Y-98661153D01*
X146939500Y-98818846D01*
X146970261Y-98973489D01*
X146970264Y-98973501D01*
X147030602Y-99119172D01*
X147030609Y-99119185D01*
X147118602Y-99250874D01*
X147139480Y-99317551D01*
X147139500Y-99319765D01*
X147139500Y-99326094D01*
X147119815Y-99393133D01*
X147067011Y-99438888D01*
X147033524Y-99447915D01*
X147033603Y-99448311D01*
X147027708Y-99449483D01*
X147027662Y-99449496D01*
X147027629Y-99449499D01*
X146880129Y-99478839D01*
X146810538Y-99472612D01*
X146768257Y-99444903D01*
X145549232Y-98225878D01*
X145549230Y-98225875D01*
X145430359Y-98107004D01*
X145430358Y-98107003D01*
X145335612Y-98052302D01*
X145335611Y-98052301D01*
X145293425Y-98027945D01*
X145237523Y-98012966D01*
X145140699Y-97987022D01*
X144982585Y-97987022D01*
X144974989Y-97987022D01*
X144974973Y-97987023D01*
X144665982Y-97987023D01*
X144598943Y-97967338D01*
X144597091Y-97966125D01*
X144465401Y-97878132D01*
X144465388Y-97878125D01*
X144319717Y-97817787D01*
X144319705Y-97817784D01*
X144165061Y-97787023D01*
X144165058Y-97787023D01*
X144007374Y-97787023D01*
X144007371Y-97787023D01*
X143852726Y-97817784D01*
X143852714Y-97817787D01*
X143707043Y-97878125D01*
X143707030Y-97878132D01*
X143575927Y-97965733D01*
X143575923Y-97965736D01*
X143464429Y-98077230D01*
X143464426Y-98077234D01*
X143376825Y-98208337D01*
X143376818Y-98208350D01*
X143316480Y-98354021D01*
X143316477Y-98354033D01*
X143285716Y-98508676D01*
X143285716Y-98565500D01*
X143266031Y-98632539D01*
X143213227Y-98678294D01*
X143161716Y-98689500D01*
X142864855Y-98689500D01*
X142845616Y-98691248D01*
X142794278Y-98695913D01*
X142631862Y-98746523D01*
X142509029Y-98820778D01*
X142441475Y-98838614D01*
X142375001Y-98817096D01*
X142330714Y-98763055D01*
X142322673Y-98693650D01*
X142339340Y-98649565D01*
X142398474Y-98553697D01*
X142451820Y-98392708D01*
X142461971Y-98293345D01*
X142461970Y-97746656D01*
X142451820Y-97647292D01*
X142398474Y-97486303D01*
X142398470Y-97486297D01*
X142398469Y-97486294D01*
X142309441Y-97341959D01*
X142309438Y-97341955D01*
X142299810Y-97332327D01*
X142266325Y-97271004D01*
X142271309Y-97201312D01*
X142299816Y-97156959D01*
X142309044Y-97147731D01*
X142398013Y-97003492D01*
X142398018Y-97003481D01*
X142451326Y-96842606D01*
X142461470Y-96743322D01*
X142461471Y-96743309D01*
X142461471Y-96720000D01*
X141610471Y-96720000D01*
X141543432Y-96700315D01*
X141497677Y-96647511D01*
X141486471Y-96596000D01*
X141486471Y-96344000D01*
X141506156Y-96276961D01*
X141558960Y-96231206D01*
X141610471Y-96220000D01*
X142461470Y-96220000D01*
X142461470Y-96196692D01*
X142461469Y-96196677D01*
X142451326Y-96097392D01*
X142416434Y-95992093D01*
X142414032Y-95922265D01*
X142449764Y-95862223D01*
X142512284Y-95831030D01*
X142571028Y-95834703D01*
X142649275Y-95859086D01*
X142719855Y-95865500D01*
X142719858Y-95865500D01*
X143233084Y-95865500D01*
X143233087Y-95865500D01*
X143303667Y-95859086D01*
X143466077Y-95808478D01*
X143611656Y-95720472D01*
X143731943Y-95600185D01*
X143819949Y-95454606D01*
X143870557Y-95292196D01*
X143876971Y-95221616D01*
X143876971Y-94558384D01*
X143870557Y-94487804D01*
X143819949Y-94325394D01*
X143805627Y-94301704D01*
X143787792Y-94234150D01*
X143809310Y-94167677D01*
X143824057Y-94149881D01*
X144254370Y-93719570D01*
X144315689Y-93686088D01*
X144317856Y-93685637D01*
X144318545Y-93685500D01*
X144318547Y-93685500D01*
X144473202Y-93654737D01*
X144608136Y-93598846D01*
X144618877Y-93594397D01*
X144618877Y-93594396D01*
X144618884Y-93594394D01*
X144749994Y-93506789D01*
X144861494Y-93395289D01*
X144934186Y-93286498D01*
X144952484Y-93259114D01*
X144954643Y-93260556D01*
X144995685Y-93218768D01*
X145063821Y-93203301D01*
X145129503Y-93227127D01*
G37*
%TD.AperFunction*%
%TA.AperFunction,Conductor*%
G36*
X160073413Y-89770185D02*
G01*
X160094055Y-89786819D01*
X160981896Y-90674660D01*
X161015381Y-90735983D01*
X161015832Y-90738149D01*
X161046732Y-90893491D01*
X161046735Y-90893501D01*
X161107073Y-91039172D01*
X161107080Y-91039185D01*
X161194681Y-91170288D01*
X161194684Y-91170292D01*
X161306178Y-91281786D01*
X161306182Y-91281789D01*
X161437285Y-91369390D01*
X161437294Y-91369395D01*
X161457146Y-91377618D01*
X161511549Y-91421459D01*
X161533614Y-91487753D01*
X161516335Y-91555453D01*
X161497374Y-91579860D01*
X160877757Y-92199478D01*
X160765952Y-92311282D01*
X160765948Y-92311287D01*
X160725197Y-92381872D01*
X160725197Y-92381873D01*
X160686894Y-92448214D01*
X160677665Y-92482658D01*
X160645970Y-92600943D01*
X160645970Y-92600945D01*
X160645970Y-92616275D01*
X160626285Y-92683314D01*
X160573481Y-92729069D01*
X160504323Y-92739013D01*
X160497779Y-92737892D01*
X160405316Y-92719500D01*
X160405313Y-92719500D01*
X160247629Y-92719500D01*
X160247626Y-92719500D01*
X160092981Y-92750261D01*
X160092969Y-92750264D01*
X159947298Y-92810602D01*
X159947285Y-92810609D01*
X159816182Y-92898210D01*
X159816178Y-92898213D01*
X159704684Y-93009707D01*
X159704681Y-93009711D01*
X159617080Y-93140814D01*
X159617073Y-93140827D01*
X159556735Y-93286498D01*
X159556732Y-93286510D01*
X159525971Y-93441153D01*
X159525971Y-93598846D01*
X159556732Y-93753489D01*
X159556735Y-93753501D01*
X159617073Y-93899172D01*
X159617080Y-93899185D01*
X159705073Y-94030874D01*
X159725951Y-94097551D01*
X159725971Y-94099765D01*
X159725971Y-95362312D01*
X159706286Y-95429351D01*
X159689652Y-95449993D01*
X158209169Y-96930475D01*
X158147846Y-96963960D01*
X158078154Y-96958976D01*
X158046001Y-96941169D01*
X157980451Y-96890870D01*
X157939249Y-96834442D01*
X157935094Y-96764696D01*
X157969307Y-96703776D01*
X158014386Y-96676891D01*
X158014236Y-96676557D01*
X158017137Y-96675251D01*
X158019053Y-96674108D01*
X158021077Y-96673478D01*
X158166656Y-96585472D01*
X158286943Y-96465185D01*
X158374949Y-96319606D01*
X158425557Y-96157196D01*
X158431971Y-96086616D01*
X158431971Y-95573384D01*
X158425557Y-95502804D01*
X158374949Y-95340394D01*
X158286943Y-95194815D01*
X158286941Y-95194813D01*
X158286940Y-95194811D01*
X158184455Y-95092326D01*
X158150970Y-95031003D01*
X158155954Y-94961311D01*
X158184456Y-94916963D01*
X158286542Y-94814878D01*
X158286543Y-94814877D01*
X158374490Y-94669395D01*
X158425061Y-94507106D01*
X158431471Y-94436572D01*
X158431471Y-94430000D01*
X156481472Y-94430000D01*
X156481472Y-94436582D01*
X156487879Y-94507102D01*
X156487880Y-94507107D01*
X156538452Y-94669397D01*
X156583742Y-94744316D01*
X156601578Y-94811871D01*
X156580060Y-94878345D01*
X156526020Y-94922632D01*
X156456614Y-94930673D01*
X156413477Y-94914583D01*
X156276077Y-94831522D01*
X156113667Y-94780914D01*
X156113665Y-94780913D01*
X156113663Y-94780913D01*
X156064249Y-94776423D01*
X156043087Y-94774500D01*
X155529855Y-94774500D01*
X155510616Y-94776248D01*
X155459278Y-94780913D01*
X155296864Y-94831522D01*
X155151282Y-94919530D01*
X155151281Y-94919531D01*
X155049152Y-95021661D01*
X154987829Y-95055146D01*
X154918137Y-95050162D01*
X154873790Y-95021661D01*
X154771659Y-94919530D01*
X154761679Y-94913497D01*
X154626077Y-94831522D01*
X154463667Y-94780914D01*
X154463665Y-94780913D01*
X154463663Y-94780913D01*
X154414249Y-94776423D01*
X154393087Y-94774500D01*
X154393084Y-94774500D01*
X154220971Y-94774500D01*
X154153932Y-94754815D01*
X154108177Y-94702011D01*
X154096971Y-94650508D01*
X154096971Y-94641935D01*
X154096970Y-94641931D01*
X154096970Y-94498773D01*
X154116655Y-94431734D01*
X154169459Y-94385979D01*
X154238617Y-94376035D01*
X154285121Y-94392657D01*
X154327073Y-94418018D01*
X154327074Y-94418019D01*
X154489365Y-94468590D01*
X154489364Y-94468590D01*
X154559879Y-94474998D01*
X154559897Y-94474999D01*
X155066471Y-94474999D01*
X155073052Y-94474999D01*
X155143573Y-94468591D01*
X155143578Y-94468590D01*
X155305867Y-94418018D01*
X155451348Y-94330072D01*
X155571543Y-94209877D01*
X155659490Y-94064395D01*
X155703417Y-93923427D01*
X156481471Y-93923427D01*
X156481471Y-93930000D01*
X157206471Y-93930000D01*
X157706471Y-93930000D01*
X158431470Y-93930000D01*
X158431470Y-93923417D01*
X158425062Y-93852897D01*
X158425061Y-93852892D01*
X158374489Y-93690603D01*
X158286543Y-93545122D01*
X158166348Y-93424927D01*
X158020866Y-93336980D01*
X158020867Y-93336980D01*
X157858576Y-93286409D01*
X157858577Y-93286409D01*
X157788043Y-93280000D01*
X157706471Y-93280000D01*
X157706471Y-93930000D01*
X157206471Y-93930000D01*
X157206471Y-93280000D01*
X157206470Y-93279999D01*
X157124888Y-93280000D01*
X157054368Y-93286408D01*
X157054363Y-93286409D01*
X156892074Y-93336981D01*
X156746593Y-93424927D01*
X156626398Y-93545122D01*
X156538451Y-93690604D01*
X156487880Y-93852893D01*
X156481471Y-93923427D01*
X155703417Y-93923427D01*
X155710061Y-93902106D01*
X155716471Y-93831572D01*
X155716471Y-93750000D01*
X155066471Y-93750000D01*
X155066471Y-94474999D01*
X154559897Y-94474999D01*
X154566470Y-94474998D01*
X154566471Y-94474998D01*
X154566471Y-93624000D01*
X154586156Y-93556961D01*
X154638960Y-93511206D01*
X154690471Y-93500000D01*
X154816471Y-93500000D01*
X154816471Y-93374000D01*
X154836156Y-93306961D01*
X154888960Y-93261206D01*
X154940471Y-93250000D01*
X155716470Y-93250000D01*
X155716470Y-93168417D01*
X155710062Y-93097897D01*
X155710061Y-93097892D01*
X155659489Y-92935603D01*
X155571543Y-92790122D01*
X155451348Y-92669927D01*
X155299451Y-92578102D01*
X155300698Y-92576037D01*
X155256536Y-92538189D01*
X155236486Y-92471258D01*
X155255805Y-92404112D01*
X155272797Y-92382907D01*
X157071135Y-90584571D01*
X157132456Y-90551088D01*
X157134623Y-90550637D01*
X157135312Y-90550500D01*
X157135313Y-90550500D01*
X157289968Y-90519737D01*
X157435650Y-90459394D01*
X157566760Y-90371789D01*
X157678260Y-90260289D01*
X157765865Y-90129179D01*
X157826208Y-89983497D01*
X157832750Y-89950609D01*
X157852702Y-89850308D01*
X157885087Y-89788397D01*
X157945803Y-89753823D01*
X157974319Y-89750500D01*
X160006374Y-89750500D01*
X160073413Y-89770185D01*
G37*
%TD.AperFunction*%
%TA.AperFunction,Conductor*%
G36*
X153220770Y-96180185D02*
G01*
X153266525Y-96232989D01*
X153272115Y-96247607D01*
X153292993Y-96314606D01*
X153379873Y-96458323D01*
X153381001Y-96460188D01*
X153493632Y-96572819D01*
X153527117Y-96634142D01*
X153522133Y-96703834D01*
X153480261Y-96759767D01*
X153414797Y-96784184D01*
X153405951Y-96784500D01*
X150509253Y-96784500D01*
X150442214Y-96764815D01*
X150396459Y-96712011D01*
X150385895Y-96647898D01*
X150391470Y-96593324D01*
X150391471Y-96593309D01*
X150391471Y-96570000D01*
X149540471Y-96570000D01*
X149473432Y-96550315D01*
X149427677Y-96497511D01*
X149416471Y-96446000D01*
X149416471Y-96284500D01*
X149436156Y-96217461D01*
X149488960Y-96171706D01*
X149540471Y-96160500D01*
X153153731Y-96160500D01*
X153220770Y-96180185D01*
G37*
%TD.AperFunction*%
%TA.AperFunction,Conductor*%
G36*
X139465305Y-91528233D02*
G01*
X139521238Y-91570105D01*
X139545655Y-91635569D01*
X139545971Y-91644415D01*
X139545971Y-92078337D01*
X139545972Y-92078355D01*
X139556121Y-92177707D01*
X139556122Y-92177710D01*
X139609467Y-92338694D01*
X139609469Y-92338699D01*
X139629025Y-92370403D01*
X139647465Y-92437795D01*
X139626543Y-92504459D01*
X139572901Y-92549229D01*
X139523486Y-92559500D01*
X137526427Y-92559500D01*
X137526423Y-92559499D01*
X137368309Y-92559499D01*
X137356543Y-92562651D01*
X137341332Y-92562920D01*
X137321709Y-92557532D01*
X137301369Y-92557045D01*
X137288704Y-92548470D01*
X137273955Y-92544421D01*
X137260360Y-92529280D01*
X137243512Y-92517873D01*
X137236102Y-92502262D01*
X137227276Y-92492432D01*
X137225123Y-92479132D01*
X137217526Y-92463126D01*
X137216209Y-92456503D01*
X137155865Y-92310821D01*
X137155863Y-92310818D01*
X137155861Y-92310814D01*
X137068260Y-92179711D01*
X137068257Y-92179707D01*
X136933290Y-92044740D01*
X136899805Y-91983417D01*
X136896971Y-91957059D01*
X136896971Y-91941941D01*
X136916656Y-91874902D01*
X136969460Y-91829147D01*
X137038618Y-91819203D01*
X137102174Y-91848228D01*
X137108652Y-91854260D01*
X137196178Y-91941786D01*
X137196182Y-91941789D01*
X137327285Y-92029390D01*
X137327298Y-92029397D01*
X137462745Y-92085500D01*
X137472974Y-92089737D01*
X137610335Y-92117060D01*
X137627624Y-92120499D01*
X137627627Y-92120500D01*
X137627629Y-92120500D01*
X137785315Y-92120500D01*
X137785316Y-92120499D01*
X137939968Y-92089737D01*
X138085650Y-92029394D01*
X138128730Y-92000609D01*
X138217346Y-91941398D01*
X138284024Y-91920520D01*
X138286237Y-91920500D01*
X138635121Y-91920500D01*
X138635137Y-91920501D01*
X138642733Y-91920501D01*
X138800844Y-91920501D01*
X138800847Y-91920501D01*
X138953575Y-91879577D01*
X138997425Y-91854260D01*
X139007894Y-91848216D01*
X139007895Y-91848215D01*
X139090506Y-91800520D01*
X139202310Y-91688716D01*
X139202310Y-91688714D01*
X139212511Y-91678514D01*
X139212514Y-91678509D01*
X139334293Y-91556731D01*
X139395613Y-91523249D01*
X139465305Y-91528233D01*
G37*
%TD.AperFunction*%
%TA.AperFunction,Conductor*%
G36*
X154586942Y-90110185D02*
G01*
X154607584Y-90126819D01*
X154666319Y-90185554D01*
X154699804Y-90246877D01*
X154694820Y-90316569D01*
X154666319Y-90360916D01*
X154362829Y-90664406D01*
X154301506Y-90697891D01*
X154231814Y-90692907D01*
X154175881Y-90651035D01*
X154169610Y-90641822D01*
X154139046Y-90592271D01*
X154139043Y-90592267D01*
X154129810Y-90583034D01*
X154096325Y-90521711D01*
X154101309Y-90452019D01*
X154129814Y-90407668D01*
X154139439Y-90398044D01*
X154228474Y-90253697D01*
X154254387Y-90175495D01*
X154294160Y-90118052D01*
X154358676Y-90091229D01*
X154372088Y-90090501D01*
X154389224Y-90090501D01*
X154389226Y-90090500D01*
X154396831Y-90090500D01*
X154519903Y-90090500D01*
X154586942Y-90110185D01*
G37*
%TD.AperFunction*%
%TA.AperFunction,Conductor*%
G36*
X164014541Y-88210951D02*
G01*
X164060296Y-88263755D01*
X164069119Y-88291074D01*
X164099232Y-88442462D01*
X164099235Y-88442472D01*
X164159573Y-88588143D01*
X164159580Y-88588156D01*
X164235021Y-88701061D01*
X164255899Y-88767739D01*
X164237414Y-88835119D01*
X164219600Y-88857633D01*
X162736331Y-90340903D01*
X162675008Y-90374388D01*
X162605316Y-90369404D01*
X162549383Y-90327532D01*
X162534089Y-90300675D01*
X162525866Y-90280823D01*
X162525861Y-90280814D01*
X162438260Y-90149711D01*
X162438257Y-90149707D01*
X162326763Y-90038213D01*
X162326759Y-90038210D01*
X162195656Y-89950609D01*
X162195643Y-89950602D01*
X162049972Y-89890264D01*
X162049962Y-89890261D01*
X161894620Y-89859361D01*
X161832709Y-89826976D01*
X161831131Y-89825425D01*
X160794061Y-88788355D01*
X160794059Y-88788352D01*
X160675188Y-88669481D01*
X160675180Y-88669475D01*
X160573031Y-88610500D01*
X160538259Y-88590424D01*
X160538258Y-88590423D01*
X160477164Y-88574053D01*
X160385528Y-88549499D01*
X160227414Y-88549499D01*
X160219810Y-88549499D01*
X160219810Y-88546041D01*
X160166219Y-88537325D01*
X160160642Y-88534477D01*
X160020627Y-88458467D01*
X159902567Y-88531110D01*
X159837586Y-88425500D01*
X159790134Y-88310939D01*
X159816149Y-88300163D01*
X159816149Y-88300162D01*
X159816156Y-88300160D01*
X159834635Y-88287813D01*
X159947852Y-88212164D01*
X160014530Y-88191286D01*
X160016743Y-88191266D01*
X163947502Y-88191266D01*
X164014541Y-88210951D01*
G37*
%TD.AperFunction*%
%TA.AperFunction,Conductor*%
G36*
X153529510Y-85434685D02*
G01*
X153575265Y-85487489D01*
X153586471Y-85539000D01*
X153586471Y-86371000D01*
X153566786Y-86438039D01*
X153513982Y-86483794D01*
X153462471Y-86495000D01*
X153381471Y-86495000D01*
X153381471Y-87006000D01*
X153361786Y-87073039D01*
X153308982Y-87118794D01*
X153257471Y-87130000D01*
X153005471Y-87130000D01*
X152938432Y-87110315D01*
X152892677Y-87057511D01*
X152881471Y-87006000D01*
X152881471Y-86149000D01*
X152901156Y-86081961D01*
X152953960Y-86036206D01*
X153005471Y-86025000D01*
X153086471Y-86025000D01*
X153086471Y-85539000D01*
X153106156Y-85471961D01*
X153158960Y-85426206D01*
X153210471Y-85415000D01*
X153462471Y-85415000D01*
X153529510Y-85434685D01*
G37*
%TD.AperFunction*%
%TA.AperFunction,Conductor*%
G36*
X163696565Y-83864778D02*
G01*
X163720975Y-83883740D01*
X165391896Y-85554660D01*
X165425381Y-85615983D01*
X165425832Y-85618149D01*
X165456732Y-85773491D01*
X165456735Y-85773501D01*
X165517073Y-85919172D01*
X165517080Y-85919185D01*
X165592522Y-86032091D01*
X165613400Y-86098769D01*
X165594916Y-86166149D01*
X165577101Y-86188663D01*
X164811818Y-86953947D01*
X164750495Y-86987432D01*
X164724137Y-86990266D01*
X160544802Y-86990266D01*
X160477763Y-86970581D01*
X160432008Y-86917777D01*
X160422064Y-86848619D01*
X160451089Y-86785063D01*
X160457121Y-86778585D01*
X161619723Y-85615983D01*
X162801133Y-84434572D01*
X162862454Y-84401089D01*
X162864621Y-84400638D01*
X162922556Y-84389113D01*
X163019968Y-84369737D01*
X163165650Y-84309394D01*
X163296760Y-84221789D01*
X163408260Y-84110289D01*
X163495865Y-83979179D01*
X163518734Y-83923967D01*
X163562572Y-83869566D01*
X163628866Y-83847500D01*
X163696565Y-83864778D01*
G37*
%TD.AperFunction*%
%TA.AperFunction,Conductor*%
G36*
X149630304Y-81495758D02*
G01*
X149686238Y-81537629D01*
X149710655Y-81603094D01*
X149710971Y-81611940D01*
X149710971Y-81637727D01*
X149725784Y-81750235D01*
X149725784Y-81750236D01*
X149783772Y-81890233D01*
X149817750Y-81934514D01*
X149842944Y-81999684D01*
X149828905Y-82068129D01*
X149817750Y-82085486D01*
X149783772Y-82129766D01*
X149725784Y-82269763D01*
X149725784Y-82269764D01*
X149710971Y-82382272D01*
X149710971Y-82907713D01*
X149710972Y-82907730D01*
X149719738Y-82974315D01*
X149708972Y-83043350D01*
X149662592Y-83095606D01*
X149596799Y-83114500D01*
X149397878Y-83114500D01*
X149243233Y-83145261D01*
X149243221Y-83145264D01*
X149097550Y-83205602D01*
X149097537Y-83205609D01*
X148966434Y-83293210D01*
X148966430Y-83293213D01*
X148780285Y-83479360D01*
X148718808Y-83540837D01*
X148675884Y-83583761D01*
X148639147Y-83620498D01*
X148577823Y-83653982D01*
X148508132Y-83648997D01*
X148452198Y-83607126D01*
X148427782Y-83541661D01*
X148431690Y-83500725D01*
X148466972Y-83369056D01*
X148466972Y-83210942D01*
X148466972Y-83203347D01*
X148466971Y-83203329D01*
X148466971Y-82442347D01*
X148466971Y-82432349D01*
X148466972Y-82432347D01*
X148466972Y-82375192D01*
X148469355Y-82351005D01*
X148480922Y-82292854D01*
X148484504Y-82274842D01*
X148516888Y-82212933D01*
X148577604Y-82178359D01*
X148593979Y-82175631D01*
X148595302Y-82175500D01*
X148595313Y-82175500D01*
X148749968Y-82144737D01*
X148880653Y-82090606D01*
X148895643Y-82084397D01*
X148895643Y-82084396D01*
X148895650Y-82084394D01*
X149026760Y-81996789D01*
X149499290Y-81524259D01*
X149560613Y-81490774D01*
X149630304Y-81495758D01*
G37*
%TD.AperFunction*%
%TD*%
M02*
