%TF.GenerationSoftware,KiCad,Pcbnew,10.0.0*%
%TF.CreationDate,2026-08-22T15:59:19+02:00*%
%TF.ProjectId,PCB v2,50434220-7632-42e6-9b69-6361645f7063,rev?*%
%TF.SameCoordinates,Original*%
%TF.FileFunction,Paste,Bot*%
%TF.FilePolarity,Positive*%
%FSLAX46Y46*%
G04 Gerber Fmt 4.6, Leading zero omitted, Abs format (unit mm)*
G04 Created by KiCad (PCBNEW 10.0.0) date 2026-08-22 15:59:19*
%MOMM*%
%LPD*%
G01*
G04 APERTURE LIST*
G04 Aperture macros list*
%AMRoundRect*
0 Rectangle with rounded corners*
0 $1 Rounding radius*
0 $2 $3 $4 $5 $6 $7 $8 $9 X,Y pos of 4 corners*
0 Add a 4 corners polygon primitive as box body*
4,1,4,$2,$3,$4,$5,$6,$7,$8,$9,$2,$3,0*
0 Add four circle primitives for the rounded corners*
1,1,$1+$1,$2,$3*
1,1,$1+$1,$4,$5*
1,1,$1+$1,$6,$7*
1,1,$1+$1,$8,$9*
0 Add four rect primitives between the rounded corners*
20,1,$1+$1,$2,$3,$4,$5,0*
20,1,$1+$1,$4,$5,$6,$7,0*
20,1,$1+$1,$6,$7,$8,$9,0*
20,1,$1+$1,$8,$9,$2,$3,0*%
G04 Aperture macros list end*
%ADD10RoundRect,0.200000X-0.275000X0.200000X-0.275000X-0.200000X0.275000X-0.200000X0.275000X0.200000X0*%
%ADD11RoundRect,0.075000X-0.910000X-0.225000X0.910000X-0.225000X0.910000X0.225000X-0.910000X0.225000X0*%
%ADD12RoundRect,0.200000X0.200000X0.275000X-0.200000X0.275000X-0.200000X-0.275000X0.200000X-0.275000X0*%
%ADD13RoundRect,0.200000X-0.200000X-0.275000X0.200000X-0.275000X0.200000X0.275000X-0.200000X0.275000X0*%
%ADD14RoundRect,0.200000X0.275000X-0.200000X0.275000X0.200000X-0.275000X0.200000X-0.275000X-0.200000X0*%
%ADD15RoundRect,0.150000X0.512500X0.150000X-0.512500X0.150000X-0.512500X-0.150000X0.512500X-0.150000X0*%
%ADD16RoundRect,0.225000X0.225000X0.250000X-0.225000X0.250000X-0.225000X-0.250000X0.225000X-0.250000X0*%
%ADD17RoundRect,0.225000X-0.250000X0.225000X-0.250000X-0.225000X0.250000X-0.225000X0.250000X0.225000X0*%
%ADD18RoundRect,0.075000X0.910000X0.225000X-0.910000X0.225000X-0.910000X-0.225000X0.910000X-0.225000X0*%
%ADD19RoundRect,0.225000X-0.225000X-0.250000X0.225000X-0.250000X0.225000X0.250000X-0.225000X0.250000X0*%
%ADD20RoundRect,0.225000X0.250000X-0.225000X0.250000X0.225000X-0.250000X0.225000X-0.250000X-0.225000X0*%
%ADD21RoundRect,0.250000X-0.475000X0.250000X-0.475000X-0.250000X0.475000X-0.250000X0.475000X0.250000X0*%
%ADD22R,2.260600X2.260600*%
G04 APERTURE END LIST*
D10*
%TO.C,R32*%
X143196471Y-99590000D03*
X143196471Y-101240000D03*
%TD*%
D11*
%TO.C,U19*%
X126536471Y-109710000D03*
X126536471Y-108440000D03*
X126536471Y-107170000D03*
X126536471Y-105900000D03*
X131476471Y-105900000D03*
X131476471Y-107170000D03*
X131476471Y-108440000D03*
X131476471Y-109710000D03*
%TD*%
D12*
%TO.C,R39*%
X155786471Y-95750000D03*
X154136471Y-95750000D03*
%TD*%
D11*
%TO.C,U15*%
X134416471Y-104330000D03*
X134416471Y-103060000D03*
X134416471Y-101790000D03*
X134416471Y-100520000D03*
X139356471Y-100520000D03*
X139356471Y-101790000D03*
X139356471Y-103060000D03*
X139356471Y-104330000D03*
%TD*%
D13*
%TO.C,R37*%
X138246471Y-111420000D03*
X139896471Y-111420000D03*
%TD*%
D14*
%TO.C,R6*%
X140646471Y-83575000D03*
X140646471Y-81925000D03*
%TD*%
D15*
%TO.C,U1*%
X129506471Y-88000000D03*
X129506471Y-88950000D03*
X129506471Y-89900000D03*
X127231471Y-89900000D03*
X127231471Y-88950000D03*
X127231471Y-88000000D03*
%TD*%
D16*
%TO.C,C14*%
X129191471Y-111430000D03*
X127641471Y-111430000D03*
%TD*%
D17*
%TO.C,C34*%
X131936471Y-102735000D03*
X131936471Y-104285000D03*
%TD*%
D18*
%TO.C,U4*%
X138501471Y-81965000D03*
X138501471Y-83235000D03*
X138501471Y-84505000D03*
X138501471Y-85775000D03*
X133561471Y-85775000D03*
X133561471Y-84505000D03*
X133561471Y-83235000D03*
X133561471Y-81965000D03*
%TD*%
D12*
%TO.C,R28*%
X142976471Y-94890000D03*
X141326471Y-94890000D03*
%TD*%
D19*
%TO.C,C2*%
X127306471Y-91410000D03*
X128856471Y-91410000D03*
%TD*%
D17*
%TO.C,C30*%
X132106471Y-98640000D03*
X132106471Y-100190000D03*
%TD*%
D14*
%TO.C,R30*%
X144136471Y-84455000D03*
X144136471Y-82805000D03*
%TD*%
D11*
%TO.C,U20*%
X151896471Y-110225000D03*
X151896471Y-108955000D03*
X151896471Y-107685000D03*
X151896471Y-106415000D03*
X156836471Y-106415000D03*
X156836471Y-107685000D03*
X156836471Y-108955000D03*
X156836471Y-110225000D03*
%TD*%
D16*
%TO.C,C38*%
X127951471Y-104190000D03*
X126401471Y-104190000D03*
%TD*%
D12*
%TO.C,R45*%
X160526471Y-112240000D03*
X158876471Y-112240000D03*
%TD*%
D19*
%TO.C,C32*%
X153131471Y-87130000D03*
X154681471Y-87130000D03*
%TD*%
D12*
%TO.C,R29*%
X145381471Y-79480000D03*
X143731471Y-79480000D03*
%TD*%
D10*
%TO.C,R40*%
X157456471Y-94180000D03*
X157456471Y-95830000D03*
%TD*%
D17*
%TO.C,C12*%
X141606471Y-99595000D03*
X141606471Y-101145000D03*
%TD*%
D19*
%TO.C,C26*%
X130766471Y-96160000D03*
X132316471Y-96160000D03*
%TD*%
D12*
%TO.C,R34*%
X151641471Y-94250000D03*
X149991471Y-94250000D03*
%TD*%
D17*
%TO.C,C27*%
X141486471Y-96470000D03*
X141486471Y-98020000D03*
%TD*%
D16*
%TO.C,C40*%
X153706471Y-104780000D03*
X152156471Y-104780000D03*
%TD*%
D20*
%TO.C,C29*%
X153336471Y-85415000D03*
X153336471Y-83865000D03*
%TD*%
%TO.C,C41*%
X158986471Y-110660000D03*
X158986471Y-109110000D03*
%TD*%
D10*
%TO.C,R33*%
X144846471Y-99560000D03*
X144846471Y-101210000D03*
%TD*%
D19*
%TO.C,C11*%
X140496471Y-91780000D03*
X142046471Y-91780000D03*
%TD*%
D12*
%TO.C,R41*%
X153606471Y-103080000D03*
X151956471Y-103080000D03*
%TD*%
%TO.C,R36*%
X151636471Y-92490000D03*
X149986471Y-92490000D03*
%TD*%
D11*
%TO.C,U18*%
X151796471Y-101395000D03*
X151796471Y-100125000D03*
X151796471Y-98855000D03*
X151796471Y-97585000D03*
X156736471Y-97585000D03*
X156736471Y-98855000D03*
X156736471Y-100125000D03*
X156736471Y-101395000D03*
%TD*%
D13*
%TO.C,R42*%
X130731471Y-111460000D03*
X132381471Y-111460000D03*
%TD*%
D17*
%TO.C,C39*%
X129586471Y-102300000D03*
X129586471Y-103850000D03*
%TD*%
D13*
%TO.C,R27*%
X140476471Y-93320000D03*
X142126471Y-93320000D03*
%TD*%
D11*
%TO.C,U17*%
X134406471Y-109810000D03*
X134406471Y-108540000D03*
X134406471Y-107270000D03*
X134406471Y-106000000D03*
X139346471Y-106000000D03*
X139346471Y-107270000D03*
X139346471Y-108540000D03*
X139346471Y-109810000D03*
%TD*%
D13*
%TO.C,R3*%
X127226471Y-93060000D03*
X128876471Y-93060000D03*
%TD*%
D20*
%TO.C,C35*%
X141466471Y-110160000D03*
X141466471Y-108610000D03*
%TD*%
D21*
%TO.C,C1*%
X131746471Y-88020000D03*
X131746471Y-89920000D03*
%TD*%
D20*
%TO.C,C33*%
X153316471Y-91270000D03*
X153316471Y-89720000D03*
%TD*%
D12*
%TO.C,R46*%
X157076471Y-104780000D03*
X155426471Y-104780000D03*
%TD*%
%TO.C,R31*%
X148561471Y-79550000D03*
X146911471Y-79550000D03*
%TD*%
D16*
%TO.C,C6*%
X135356471Y-80360000D03*
X133806471Y-80360000D03*
%TD*%
D11*
%TO.C,U16*%
X146116471Y-90885000D03*
X146116471Y-89615000D03*
X146116471Y-88345000D03*
X146116471Y-87075000D03*
X151056471Y-87075000D03*
X151056471Y-88345000D03*
X151056471Y-89615000D03*
X151056471Y-90885000D03*
%TD*%
D16*
%TO.C,C28*%
X151811471Y-79630000D03*
X150261471Y-79630000D03*
%TD*%
D20*
%TO.C,C31*%
X141486471Y-104420000D03*
X141486471Y-102870000D03*
%TD*%
D12*
%TO.C,R44*%
X157255000Y-112350000D03*
X155605000Y-112350000D03*
%TD*%
D19*
%TO.C,C44*%
X135651471Y-87550000D03*
X137201471Y-87550000D03*
%TD*%
D11*
%TO.C,U13*%
X134416471Y-98780000D03*
X134416471Y-97510000D03*
X134416471Y-96240000D03*
X134416471Y-94970000D03*
X139356471Y-94970000D03*
X139356471Y-96240000D03*
X139356471Y-97510000D03*
X139356471Y-98780000D03*
%TD*%
D21*
%TO.C,C3*%
X124606471Y-87950000D03*
X124606471Y-89850000D03*
%TD*%
D17*
%TO.C,C36*%
X149416471Y-96320000D03*
X149416471Y-97870000D03*
%TD*%
D12*
%TO.C,R43*%
X143121471Y-111810000D03*
X141471471Y-111810000D03*
%TD*%
D17*
%TO.C,C43*%
X140666471Y-85070000D03*
X140666471Y-86620000D03*
%TD*%
D12*
%TO.C,R38*%
X143036471Y-107180000D03*
X141386471Y-107180000D03*
%TD*%
D22*
%TO.C,L1*%
X129804871Y-81791600D03*
X129804871Y-85500000D03*
X126096471Y-85500000D03*
X126096471Y-81791600D03*
%TD*%
D19*
%TO.C,C37*%
X155961471Y-103080000D03*
X157511471Y-103080000D03*
%TD*%
D11*
%TO.C,U14*%
X146256471Y-85185000D03*
X146256471Y-83915000D03*
X146256471Y-82645000D03*
X146256471Y-81375000D03*
X151196471Y-81375000D03*
X151196471Y-82645000D03*
X151196471Y-83915000D03*
X151196471Y-85185000D03*
%TD*%
D16*
%TO.C,C13*%
X136751471Y-111460000D03*
X135201471Y-111460000D03*
%TD*%
D12*
%TO.C,R35*%
X154816471Y-93500000D03*
X153166471Y-93500000D03*
%TD*%
M02*
